ISO-10303-21;
HEADER;
/* Generated by software containing ST-Developer
 * from STEP Tools, Inc. (www.steptools.com) 
 */

FILE_DESCRIPTION(
/* description */ (''),
/* implementation_level */ '2;1');

FILE_NAME(
/* name */ 'Back Plate.step',
/* time_stamp */ '2026-09-12T14:09:02-05:00',
/* author */ (''),
/* organization */ (''),
/* preprocessor_version */ 'ST-DEVELOPER v20.1',
/* originating_system */ 'Autodesk Translation Framework v15.8.0.0',
/* authorisation */ '');

FILE_SCHEMA (('AUTOMOTIVE_DESIGN { 1 0 10303 214 3 1 1 }'));
ENDSEC;

DATA;
#10=MECHANICAL_DESIGN_GEOMETRIC_PRESENTATION_REPRESENTATION('',(#13),#879);
#11=SHAPE_REPRESENTATION_RELATIONSHIP('SRR','None',#886,#12);
#12=ADVANCED_BREP_SHAPE_REPRESENTATION('',(#14),#878);
#13=STYLED_ITEM('',(#895),#14);
#14=MANIFOLD_SOLID_BREP('Body271',#489);
#15=FACE_BOUND('',#158,.T.);
#16=FACE_BOUND('',#159,.T.);
#17=FACE_BOUND('',#162,.T.);
#18=FACE_BOUND('',#166,.T.);
#19=FACE_BOUND('',#170,.T.);
#20=FACE_BOUND('',#174,.T.);
#21=FACE_BOUND('',#179,.T.);
#22=FACE_BOUND('',#180,.T.);
#23=FACE_BOUND('',#181,.T.);
#24=FACE_BOUND('',#182,.T.);
#25=PLANE('',#531);
#26=PLANE('',#532);
#27=PLANE('',#533);
#28=PLANE('',#542);
#29=PLANE('',#548);
#30=PLANE('',#554);
#31=PLANE('',#560);
#32=PLANE('',#564);
#33=PLANE('',#565);
#34=PLANE('',#566);
#35=B_SPLINE_CURVE_WITH_KNOTS('',3,(#789,#790,#791,#792,#793,#794,#795),
 .UNSPECIFIED.,.F.,.F.,(4,3,4),(0.54589058003888,0.586299895307019,0.626709210575158),
 .UNSPECIFIED.);
#36=B_SPLINE_CURVE_WITH_KNOTS('',3,(#801,#802,#803,#804,#805,#806,#807),
 .UNSPECIFIED.,.F.,.F.,(4,3,4),(0.54589058003888,0.586299895307019,0.626709210575158),
 .UNSPECIFIED.);
#37=LINE('',#739,#67);
#38=LINE('',#740,#68);
#39=LINE('',#752,#69);
#40=LINE('',#753,#70);
#41=LINE('',#765,#71);
#42=LINE('',#766,#72);
#43=LINE('',#768,#73);
#44=LINE('',#769,#74);
#45=LINE('',#781,#75);
#46=LINE('',#782,#76);
#47=LINE('',#784,#77);
#48=LINE('',#785,#78);
#49=LINE('',#796,#79);
#50=LINE('',#797,#80);
#51=LINE('',#799,#81);
#52=LINE('',#808,#82);
#53=LINE('',#810,#83);
#54=LINE('',#811,#84);
#55=LINE('',#813,#85);
#56=LINE('',#815,#86);
#57=LINE('',#829,#87);
#58=LINE('',#837,#88);
#59=LINE('',#840,#89);
#60=LINE('',#848,#90);
#61=LINE('',#851,#91);
#62=LINE('',#859,#92);
#63=LINE('',#862,#93);
#64=LINE('',#869,#94);
#65=LINE('',#872,#95);
#66=LINE('',#874,#96);
#67=VECTOR('',#581,10.);
#68=VECTOR('',#582,10.);
#69=VECTOR('',#595,10.);
#70=VECTOR('',#596,10.);
#71=VECTOR('',#609,10.);
#72=VECTOR('',#610,10.);
#73=VECTOR('',#613,10.);
#74=VECTOR('',#614,10.);
#75=VECTOR('',#627,10.);
#76=VECTOR('',#628,10.);
#77=VECTOR('',#631,10.);
#78=VECTOR('',#632,10.);
#79=VECTOR('',#635,10.);
#80=VECTOR('',#636,10.);
#81=VECTOR('',#637,10.);
#82=VECTOR('',#638,10.);
#83=VECTOR('',#641,10.);
#84=VECTOR('',#642,10.);
#85=VECTOR('',#645,10.);
#86=VECTOR('',#648,10.);
#87=VECTOR('',#665,1.2);
#88=VECTOR('',#676,1.2);
#89=VECTOR('',#679,0.8115);
#90=VECTOR('',#690,1.2);
#91=VECTOR('',#693,0.8115);
#92=VECTOR('',#704,1.2);
#93=VECTOR('',#707,0.8115);
#94=VECTOR('',#716,0.8115);
#95=VECTOR('',#721,10.);
#96=VECTOR('',#724,10.);
#97=CYLINDRICAL_SURFACE('',#507,0.5);
#98=CYLINDRICAL_SURFACE('',#513,0.5);
#99=CYLINDRICAL_SURFACE('',#519,0.5);
#100=CYLINDRICAL_SURFACE('',#521,0.5);
#101=CYLINDRICAL_SURFACE('',#526,0.5);
#102=CYLINDRICAL_SURFACE('',#528,0.5);
#103=CYLINDRICAL_SURFACE('',#529,0.5);
#104=CYLINDRICAL_SURFACE('',#530,0.5);
#105=CYLINDRICAL_SURFACE('',#540,1.2);
#106=CYLINDRICAL_SURFACE('',#545,1.2);
#107=CYLINDRICAL_SURFACE('',#546,0.8115);
#108=CYLINDRICAL_SURFACE('',#551,1.2);
#109=CYLINDRICAL_SURFACE('',#552,0.8115);
#110=CYLINDRICAL_SURFACE('',#557,1.2);
#111=CYLINDRICAL_SURFACE('',#558,0.8115);
#112=CYLINDRICAL_SURFACE('',#562,0.8115);
#113=FACE_OUTER_BOUND('',#143,.T.);
#114=FACE_OUTER_BOUND('',#144,.T.);
#115=FACE_OUTER_BOUND('',#145,.T.);
#116=FACE_OUTER_BOUND('',#146,.T.);
#117=FACE_OUTER_BOUND('',#147,.T.);
#118=FACE_OUTER_BOUND('',#148,.T.);
#119=FACE_OUTER_BOUND('',#149,.T.);
#120=FACE_OUTER_BOUND('',#150,.T.);
#121=FACE_OUTER_BOUND('',#151,.T.);
#122=FACE_OUTER_BOUND('',#152,.T.);
#123=FACE_OUTER_BOUND('',#153,.T.);
#124=FACE_OUTER_BOUND('',#154,.T.);
#125=FACE_OUTER_BOUND('',#155,.T.);
#126=FACE_OUTER_BOUND('',#156,.T.);
#127=FACE_OUTER_BOUND('',#157,.T.);
#128=FACE_OUTER_BOUND('',#160,.T.);
#129=FACE_OUTER_BOUND('',#161,.T.);
#130=FACE_OUTER_BOUND('',#163,.T.);
#131=FACE_OUTER_BOUND('',#164,.T.);
#132=FACE_OUTER_BOUND('',#165,.T.);
#133=FACE_OUTER_BOUND('',#167,.T.);
#134=FACE_OUTER_BOUND('',#168,.T.);
#135=FACE_OUTER_BOUND('',#169,.T.);
#136=FACE_OUTER_BOUND('',#171,.T.);
#137=FACE_OUTER_BOUND('',#172,.T.);
#138=FACE_OUTER_BOUND('',#173,.T.);
#139=FACE_OUTER_BOUND('',#175,.T.);
#140=FACE_OUTER_BOUND('',#176,.T.);
#141=FACE_OUTER_BOUND('',#177,.T.);
#142=FACE_OUTER_BOUND('',#178,.T.);
#143=EDGE_LOOP('',(#323,#324,#325));
#144=EDGE_LOOP('',(#326,#327,#328,#329));
#145=EDGE_LOOP('',(#330,#331,#332));
#146=EDGE_LOOP('',(#333,#334,#335,#336));
#147=EDGE_LOOP('',(#337,#338,#339));
#148=EDGE_LOOP('',(#340,#341,#342,#343));
#149=EDGE_LOOP('',(#344,#345,#346,#347));
#150=EDGE_LOOP('',(#348,#349,#350));
#151=EDGE_LOOP('',(#351,#352,#353,#354));
#152=EDGE_LOOP('',(#355,#356,#357,#358));
#153=EDGE_LOOP('',(#359,#360,#361,#362,#363,#364,#365,#366));
#154=EDGE_LOOP('',(#367,#368,#369,#370));
#155=EDGE_LOOP('',(#371,#372,#373,#374));
#156=EDGE_LOOP('',(#375,#376,#377,#378));
#157=EDGE_LOOP('',(#379,#380,#381,#382,#383,#384,#385,#386,#387,#388));
#158=EDGE_LOOP('',(#389));
#159=EDGE_LOOP('',(#390));
#160=EDGE_LOOP('',(#391,#392,#393,#394,#395,#396));
#161=EDGE_LOOP('',(#397));
#162=EDGE_LOOP('',(#398));
#163=EDGE_LOOP('',(#399,#400,#401,#402,#403,#404));
#164=EDGE_LOOP('',(#405,#406,#407,#408));
#165=EDGE_LOOP('',(#409));
#166=EDGE_LOOP('',(#410));
#167=EDGE_LOOP('',(#411,#412,#413,#414));
#168=EDGE_LOOP('',(#415,#416,#417,#418));
#169=EDGE_LOOP('',(#419));
#170=EDGE_LOOP('',(#420));
#171=EDGE_LOOP('',(#421,#422,#423,#424));
#172=EDGE_LOOP('',(#425,#426,#427,#428));
#173=EDGE_LOOP('',(#429));
#174=EDGE_LOOP('',(#430));
#175=EDGE_LOOP('',(#431,#432,#433,#434));
#176=EDGE_LOOP('',(#435,#436,#437,#438));
#177=EDGE_LOOP('',(#439,#440,#441,#442));
#178=EDGE_LOOP('',(#443,#444,#445,#446,#447,#448,#449,#450));
#179=EDGE_LOOP('',(#451));
#180=EDGE_LOOP('',(#452));
#181=EDGE_LOOP('',(#453));
#182=EDGE_LOOP('',(#454));
#183=CIRCLE('',#504,0.500000000000007);
#184=CIRCLE('',#505,0.499999999999998);
#185=CIRCLE('',#506,0.499999999999998);
#186=CIRCLE('',#508,0.5);
#187=CIRCLE('',#510,0.499999999999998);
#188=CIRCLE('',#511,0.500000000000003);
#189=CIRCLE('',#512,0.499999999999998);
#190=CIRCLE('',#514,0.5);
#191=CIRCLE('',#516,0.499999999999998);
#192=CIRCLE('',#517,0.500000000000007);
#193=CIRCLE('',#518,0.499999999999998);
#194=CIRCLE('',#520,0.5);
#195=CIRCLE('',#523,0.499999999999998);
#196=CIRCLE('',#524,0.499999999999998);
#197=CIRCLE('',#525,0.499999999999998);
#198=CIRCLE('',#527,0.5);
#199=CIRCLE('',#534,1.2);
#200=CIRCLE('',#535,1.2);
#201=CIRCLE('',#536,1.2);
#202=CIRCLE('',#537,1.2);
#203=CIRCLE('',#538,1.2);
#204=CIRCLE('',#539,1.2);
#205=CIRCLE('',#541,1.2);
#206=CIRCLE('',#543,1.2);
#207=CIRCLE('',#544,0.8115);
#208=CIRCLE('',#547,0.8115);
#209=CIRCLE('',#549,1.2);
#210=CIRCLE('',#550,0.8115);
#211=CIRCLE('',#553,0.8115);
#212=CIRCLE('',#555,1.2);
#213=CIRCLE('',#556,0.8115);
#214=CIRCLE('',#559,0.8115);
#215=CIRCLE('',#561,0.8115);
#216=CIRCLE('',#563,0.8115);
#217=VERTEX_POINT('',#729);
#218=VERTEX_POINT('',#730);
#219=VERTEX_POINT('',#732);
#220=VERTEX_POINT('',#736);
#221=VERTEX_POINT('',#737);
#222=VERTEX_POINT('',#742);
#223=VERTEX_POINT('',#743);
#224=VERTEX_POINT('',#745);
#225=VERTEX_POINT('',#749);
#226=VERTEX_POINT('',#750);
#227=VERTEX_POINT('',#755);
#228=VERTEX_POINT('',#756);
#229=VERTEX_POINT('',#758);
#230=VERTEX_POINT('',#762);
#231=VERTEX_POINT('',#763);
#232=VERTEX_POINT('',#771);
#233=VERTEX_POINT('',#772);
#234=VERTEX_POINT('',#774);
#235=VERTEX_POINT('',#778);
#236=VERTEX_POINT('',#779);
#237=VERTEX_POINT('',#787);
#238=VERTEX_POINT('',#788);
#239=VERTEX_POINT('',#798);
#240=VERTEX_POINT('',#800);
#241=VERTEX_POINT('',#817);
#242=VERTEX_POINT('',#820);
#243=VERTEX_POINT('',#823);
#244=VERTEX_POINT('',#825);
#245=VERTEX_POINT('',#828);
#246=VERTEX_POINT('',#832);
#247=VERTEX_POINT('',#834);
#248=VERTEX_POINT('',#839);
#249=VERTEX_POINT('',#843);
#250=VERTEX_POINT('',#845);
#251=VERTEX_POINT('',#850);
#252=VERTEX_POINT('',#854);
#253=VERTEX_POINT('',#856);
#254=VERTEX_POINT('',#861);
#255=VERTEX_POINT('',#865);
#256=VERTEX_POINT('',#868);
#257=EDGE_CURVE('',#217,#218,#183,.F.);
#258=EDGE_CURVE('',#219,#217,#184,.F.);
#259=EDGE_CURVE('',#218,#219,#185,.F.);
#260=EDGE_CURVE('',#220,#221,#186,.T.);
#261=EDGE_CURVE('',#221,#219,#37,.T.);
#262=EDGE_CURVE('',#217,#220,#38,.T.);
#263=EDGE_CURVE('',#222,#223,#187,.F.);
#264=EDGE_CURVE('',#224,#222,#188,.F.);
#265=EDGE_CURVE('',#223,#224,#189,.F.);
#266=EDGE_CURVE('',#225,#226,#190,.T.);
#267=EDGE_CURVE('',#226,#224,#39,.T.);
#268=EDGE_CURVE('',#222,#225,#40,.T.);
#269=EDGE_CURVE('',#227,#228,#191,.F.);
#270=EDGE_CURVE('',#229,#227,#192,.F.);
#271=EDGE_CURVE('',#228,#229,#193,.F.);
#272=EDGE_CURVE('',#230,#231,#194,.T.);
#273=EDGE_CURVE('',#231,#229,#41,.T.);
#274=EDGE_CURVE('',#227,#230,#42,.T.);
#275=EDGE_CURVE('',#218,#228,#43,.T.);
#276=EDGE_CURVE('',#229,#217,#44,.T.);
#277=EDGE_CURVE('',#232,#233,#195,.F.);
#278=EDGE_CURVE('',#234,#232,#196,.F.);
#279=EDGE_CURVE('',#233,#234,#197,.F.);
#280=EDGE_CURVE('',#235,#236,#198,.T.);
#281=EDGE_CURVE('',#236,#234,#45,.T.);
#282=EDGE_CURVE('',#232,#235,#46,.T.);
#283=EDGE_CURVE('',#228,#233,#47,.T.);
#284=EDGE_CURVE('',#234,#227,#48,.T.);
#285=EDGE_CURVE('',#237,#238,#35,.T.);
#286=EDGE_CURVE('',#238,#223,#49,.T.);
#287=EDGE_CURVE('',#224,#232,#50,.T.);
#288=EDGE_CURVE('',#233,#239,#51,.T.);
#289=EDGE_CURVE('',#239,#240,#36,.T.);
#290=EDGE_CURVE('',#240,#237,#52,.T.);
#291=EDGE_CURVE('',#223,#218,#53,.T.);
#292=EDGE_CURVE('',#219,#222,#54,.T.);
#293=EDGE_CURVE('',#220,#231,#55,.T.);
#294=EDGE_CURVE('',#230,#236,#56,.T.);
#295=EDGE_CURVE('',#238,#241,#199,.T.);
#296=EDGE_CURVE('',#241,#237,#200,.T.);
#297=EDGE_CURVE('',#240,#242,#201,.T.);
#298=EDGE_CURVE('',#242,#239,#202,.T.);
#299=EDGE_CURVE('',#243,#243,#203,.T.);
#300=EDGE_CURVE('',#244,#244,#204,.T.);
#301=EDGE_CURVE('',#241,#245,#57,.T.);
#302=EDGE_CURVE('',#245,#245,#205,.T.);
#303=EDGE_CURVE('',#246,#246,#206,.T.);
#304=EDGE_CURVE('',#247,#247,#207,.T.);
#305=EDGE_CURVE('',#242,#246,#58,.T.);
#306=EDGE_CURVE('',#247,#248,#59,.T.);
#307=EDGE_CURVE('',#248,#248,#208,.T.);
#308=EDGE_CURVE('',#249,#249,#209,.T.);
#309=EDGE_CURVE('',#250,#250,#210,.T.);
#310=EDGE_CURVE('',#244,#249,#60,.T.);
#311=EDGE_CURVE('',#250,#251,#61,.T.);
#312=EDGE_CURVE('',#251,#251,#211,.T.);
#313=EDGE_CURVE('',#252,#252,#212,.T.);
#314=EDGE_CURVE('',#253,#253,#213,.T.);
#315=EDGE_CURVE('',#243,#252,#62,.T.);
#316=EDGE_CURVE('',#253,#254,#63,.T.);
#317=EDGE_CURVE('',#254,#254,#214,.T.);
#318=EDGE_CURVE('',#255,#255,#215,.T.);
#319=EDGE_CURVE('',#255,#256,#64,.T.);
#320=EDGE_CURVE('',#256,#256,#216,.T.);
#321=EDGE_CURVE('',#235,#226,#65,.T.);
#322=EDGE_CURVE('',#225,#221,#66,.T.);
#323=ORIENTED_EDGE('',*,*,#257,.F.);
#324=ORIENTED_EDGE('',*,*,#258,.F.);
#325=ORIENTED_EDGE('',*,*,#259,.F.);
#326=ORIENTED_EDGE('',*,*,#260,.T.);
#327=ORIENTED_EDGE('',*,*,#261,.T.);
#328=ORIENTED_EDGE('',*,*,#258,.T.);
#329=ORIENTED_EDGE('',*,*,#262,.T.);
#330=ORIENTED_EDGE('',*,*,#263,.F.);
#331=ORIENTED_EDGE('',*,*,#264,.F.);
#332=ORIENTED_EDGE('',*,*,#265,.F.);
#333=ORIENTED_EDGE('',*,*,#266,.T.);
#334=ORIENTED_EDGE('',*,*,#267,.T.);
#335=ORIENTED_EDGE('',*,*,#264,.T.);
#336=ORIENTED_EDGE('',*,*,#268,.T.);
#337=ORIENTED_EDGE('',*,*,#269,.F.);
#338=ORIENTED_EDGE('',*,*,#270,.F.);
#339=ORIENTED_EDGE('',*,*,#271,.F.);
#340=ORIENTED_EDGE('',*,*,#272,.T.);
#341=ORIENTED_EDGE('',*,*,#273,.T.);
#342=ORIENTED_EDGE('',*,*,#270,.T.);
#343=ORIENTED_EDGE('',*,*,#274,.T.);
#344=ORIENTED_EDGE('',*,*,#257,.T.);
#345=ORIENTED_EDGE('',*,*,#275,.T.);
#346=ORIENTED_EDGE('',*,*,#271,.T.);
#347=ORIENTED_EDGE('',*,*,#276,.T.);
#348=ORIENTED_EDGE('',*,*,#277,.F.);
#349=ORIENTED_EDGE('',*,*,#278,.F.);
#350=ORIENTED_EDGE('',*,*,#279,.F.);
#351=ORIENTED_EDGE('',*,*,#280,.T.);
#352=ORIENTED_EDGE('',*,*,#281,.T.);
#353=ORIENTED_EDGE('',*,*,#278,.T.);
#354=ORIENTED_EDGE('',*,*,#282,.T.);
#355=ORIENTED_EDGE('',*,*,#269,.T.);
#356=ORIENTED_EDGE('',*,*,#283,.T.);
#357=ORIENTED_EDGE('',*,*,#279,.T.);
#358=ORIENTED_EDGE('',*,*,#284,.T.);
#359=ORIENTED_EDGE('',*,*,#285,.T.);
#360=ORIENTED_EDGE('',*,*,#286,.T.);
#361=ORIENTED_EDGE('',*,*,#265,.T.);
#362=ORIENTED_EDGE('',*,*,#287,.T.);
#363=ORIENTED_EDGE('',*,*,#277,.T.);
#364=ORIENTED_EDGE('',*,*,#288,.T.);
#365=ORIENTED_EDGE('',*,*,#289,.T.);
#366=ORIENTED_EDGE('',*,*,#290,.T.);
#367=ORIENTED_EDGE('',*,*,#263,.T.);
#368=ORIENTED_EDGE('',*,*,#291,.T.);
#369=ORIENTED_EDGE('',*,*,#259,.T.);
#370=ORIENTED_EDGE('',*,*,#292,.T.);
#371=ORIENTED_EDGE('',*,*,#262,.F.);
#372=ORIENTED_EDGE('',*,*,#276,.F.);
#373=ORIENTED_EDGE('',*,*,#273,.F.);
#374=ORIENTED_EDGE('',*,*,#293,.F.);
#375=ORIENTED_EDGE('',*,*,#274,.F.);
#376=ORIENTED_EDGE('',*,*,#284,.F.);
#377=ORIENTED_EDGE('',*,*,#281,.F.);
#378=ORIENTED_EDGE('',*,*,#294,.F.);
#379=ORIENTED_EDGE('',*,*,#288,.F.);
#380=ORIENTED_EDGE('',*,*,#283,.F.);
#381=ORIENTED_EDGE('',*,*,#275,.F.);
#382=ORIENTED_EDGE('',*,*,#291,.F.);
#383=ORIENTED_EDGE('',*,*,#286,.F.);
#384=ORIENTED_EDGE('',*,*,#295,.T.);
#385=ORIENTED_EDGE('',*,*,#296,.T.);
#386=ORIENTED_EDGE('',*,*,#290,.F.);
#387=ORIENTED_EDGE('',*,*,#297,.T.);
#388=ORIENTED_EDGE('',*,*,#298,.T.);
#389=ORIENTED_EDGE('',*,*,#299,.T.);
#390=ORIENTED_EDGE('',*,*,#300,.T.);
#391=ORIENTED_EDGE('',*,*,#285,.F.);
#392=ORIENTED_EDGE('',*,*,#296,.F.);
#393=ORIENTED_EDGE('',*,*,#301,.T.);
#394=ORIENTED_EDGE('',*,*,#302,.T.);
#395=ORIENTED_EDGE('',*,*,#301,.F.);
#396=ORIENTED_EDGE('',*,*,#295,.F.);
#397=ORIENTED_EDGE('',*,*,#303,.F.);
#398=ORIENTED_EDGE('',*,*,#304,.T.);
#399=ORIENTED_EDGE('',*,*,#289,.F.);
#400=ORIENTED_EDGE('',*,*,#298,.F.);
#401=ORIENTED_EDGE('',*,*,#305,.T.);
#402=ORIENTED_EDGE('',*,*,#303,.T.);
#403=ORIENTED_EDGE('',*,*,#305,.F.);
#404=ORIENTED_EDGE('',*,*,#297,.F.);
#405=ORIENTED_EDGE('',*,*,#304,.F.);
#406=ORIENTED_EDGE('',*,*,#306,.T.);
#407=ORIENTED_EDGE('',*,*,#307,.F.);
#408=ORIENTED_EDGE('',*,*,#306,.F.);
#409=ORIENTED_EDGE('',*,*,#308,.F.);
#410=ORIENTED_EDGE('',*,*,#309,.T.);
#411=ORIENTED_EDGE('',*,*,#300,.F.);
#412=ORIENTED_EDGE('',*,*,#310,.T.);
#413=ORIENTED_EDGE('',*,*,#308,.T.);
#414=ORIENTED_EDGE('',*,*,#310,.F.);
#415=ORIENTED_EDGE('',*,*,#309,.F.);
#416=ORIENTED_EDGE('',*,*,#311,.T.);
#417=ORIENTED_EDGE('',*,*,#312,.F.);
#418=ORIENTED_EDGE('',*,*,#311,.F.);
#419=ORIENTED_EDGE('',*,*,#313,.F.);
#420=ORIENTED_EDGE('',*,*,#314,.T.);
#421=ORIENTED_EDGE('',*,*,#299,.F.);
#422=ORIENTED_EDGE('',*,*,#315,.T.);
#423=ORIENTED_EDGE('',*,*,#313,.T.);
#424=ORIENTED_EDGE('',*,*,#315,.F.);
#425=ORIENTED_EDGE('',*,*,#314,.F.);
#426=ORIENTED_EDGE('',*,*,#316,.T.);
#427=ORIENTED_EDGE('',*,*,#317,.F.);
#428=ORIENTED_EDGE('',*,*,#316,.F.);
#429=ORIENTED_EDGE('',*,*,#302,.F.);
#430=ORIENTED_EDGE('',*,*,#318,.T.);
#431=ORIENTED_EDGE('',*,*,#318,.F.);
#432=ORIENTED_EDGE('',*,*,#319,.T.);
#433=ORIENTED_EDGE('',*,*,#320,.F.);
#434=ORIENTED_EDGE('',*,*,#319,.F.);
#435=ORIENTED_EDGE('',*,*,#267,.F.);
#436=ORIENTED_EDGE('',*,*,#321,.F.);
#437=ORIENTED_EDGE('',*,*,#282,.F.);
#438=ORIENTED_EDGE('',*,*,#287,.F.);
#439=ORIENTED_EDGE('',*,*,#261,.F.);
#440=ORIENTED_EDGE('',*,*,#322,.F.);
#441=ORIENTED_EDGE('',*,*,#268,.F.);
#442=ORIENTED_EDGE('',*,*,#292,.F.);
#443=ORIENTED_EDGE('',*,*,#260,.F.);
#444=ORIENTED_EDGE('',*,*,#293,.T.);
#445=ORIENTED_EDGE('',*,*,#272,.F.);
#446=ORIENTED_EDGE('',*,*,#294,.T.);
#447=ORIENTED_EDGE('',*,*,#280,.F.);
#448=ORIENTED_EDGE('',*,*,#321,.T.);
#449=ORIENTED_EDGE('',*,*,#266,.F.);
#450=ORIENTED_EDGE('',*,*,#322,.T.);
#451=ORIENTED_EDGE('',*,*,#307,.T.);
#452=ORIENTED_EDGE('',*,*,#312,.T.);
#453=ORIENTED_EDGE('',*,*,#317,.T.);
#454=ORIENTED_EDGE('',*,*,#320,.T.);
#455=SPHERICAL_SURFACE('',#503,0.499999999999998);
#456=SPHERICAL_SURFACE('',#509,0.500000000000003);
#457=SPHERICAL_SURFACE('',#515,0.500000000000007);
#458=SPHERICAL_SURFACE('',#522,0.499999999999998);
#459=ADVANCED_FACE('',(#113),#455,.T.);
#460=ADVANCED_FACE('',(#114),#97,.T.);
#461=ADVANCED_FACE('',(#115),#456,.T.);
#462=ADVANCED_FACE('',(#116),#98,.T.);
#463=ADVANCED_FACE('',(#117),#457,.T.);
#464=ADVANCED_FACE('',(#118),#99,.T.);
#465=ADVANCED_FACE('',(#119),#100,.T.);
#466=ADVANCED_FACE('',(#120),#458,.T.);
#467=ADVANCED_FACE('',(#121),#101,.T.);
#468=ADVANCED_FACE('',(#122),#102,.T.);
#469=ADVANCED_FACE('',(#123),#103,.T.);
#470=ADVANCED_FACE('',(#124),#104,.T.);
#471=ADVANCED_FACE('',(#125),#25,.T.);
#472=ADVANCED_FACE('',(#126),#26,.T.);
#473=ADVANCED_FACE('',(#127,#15,#16),#27,.T.);
#474=ADVANCED_FACE('',(#128),#105,.F.);
#475=ADVANCED_FACE('',(#129,#17),#28,.F.);
#476=ADVANCED_FACE('',(#130),#106,.F.);
#477=ADVANCED_FACE('',(#131),#107,.F.);
#478=ADVANCED_FACE('',(#132,#18),#29,.F.);
#479=ADVANCED_FACE('',(#133),#108,.F.);
#480=ADVANCED_FACE('',(#134),#109,.F.);
#481=ADVANCED_FACE('',(#135,#19),#30,.F.);
#482=ADVANCED_FACE('',(#136),#110,.F.);
#483=ADVANCED_FACE('',(#137),#111,.F.);
#484=ADVANCED_FACE('',(#138,#20),#31,.F.);
#485=ADVANCED_FACE('',(#139),#112,.F.);
#486=ADVANCED_FACE('',(#140),#32,.T.);
#487=ADVANCED_FACE('',(#141),#33,.T.);
#488=ADVANCED_FACE('',(#142,#21,#22,#23,#24),#34,.F.);
#489=CLOSED_SHELL('',(#459,#460,#461,#462,#463,#464,#465,#466,#467,#468,
#469,#470,#471,#472,#473,#474,#475,#476,#477,#478,#479,#480,#481,#482,#483,
#484,#485,#486,#487,#488));
#490=DERIVED_UNIT_ELEMENT(#492,1.);
#491=DERIVED_UNIT_ELEMENT(#881,-3.);
#492=(
MASS_UNIT()
NAMED_UNIT(*)
SI_UNIT(.KILO.,.GRAM.)
);
#493=DERIVED_UNIT((#490,#491));
#494=MEASURE_REPRESENTATION_ITEM('density measure',
POSITIVE_RATIO_MEASURE(7850.),#493);
#495=PROPERTY_DEFINITION_REPRESENTATION(#500,#497);
#496=PROPERTY_DEFINITION_REPRESENTATION(#501,#498);
#497=REPRESENTATION('material name',(#499),#878);
#498=REPRESENTATION('density',(#494),#878);
#499=DESCRIPTIVE_REPRESENTATION_ITEM('Steel','Steel');
#500=PROPERTY_DEFINITION('material property','material name',#888);
#501=PROPERTY_DEFINITION('material property','density of part',#888);
#502=AXIS2_PLACEMENT_3D('',#727,#567,#568);
#503=AXIS2_PLACEMENT_3D('',#728,#569,#570);
#504=AXIS2_PLACEMENT_3D('',#731,#571,#572);
#505=AXIS2_PLACEMENT_3D('',#733,#573,#574);
#506=AXIS2_PLACEMENT_3D('',#734,#575,#576);
#507=AXIS2_PLACEMENT_3D('',#735,#577,#578);
#508=AXIS2_PLACEMENT_3D('',#738,#579,#580);
#509=AXIS2_PLACEMENT_3D('',#741,#583,#584);
#510=AXIS2_PLACEMENT_3D('',#744,#585,#586);
#511=AXIS2_PLACEMENT_3D('',#746,#587,#588);
#512=AXIS2_PLACEMENT_3D('',#747,#589,#590);
#513=AXIS2_PLACEMENT_3D('',#748,#591,#592);
#514=AXIS2_PLACEMENT_3D('',#751,#593,#594);
#515=AXIS2_PLACEMENT_3D('',#754,#597,#598);
#516=AXIS2_PLACEMENT_3D('',#757,#599,#600);
#517=AXIS2_PLACEMENT_3D('',#759,#601,#602);
#518=AXIS2_PLACEMENT_3D('',#760,#603,#604);
#519=AXIS2_PLACEMENT_3D('',#761,#605,#606);
#520=AXIS2_PLACEMENT_3D('',#764,#607,#608);
#521=AXIS2_PLACEMENT_3D('',#767,#611,#612);
#522=AXIS2_PLACEMENT_3D('',#770,#615,#616);
#523=AXIS2_PLACEMENT_3D('',#773,#617,#618);
#524=AXIS2_PLACEMENT_3D('',#775,#619,#620);
#525=AXIS2_PLACEMENT_3D('',#776,#621,#622);
#526=AXIS2_PLACEMENT_3D('',#777,#623,#624);
#527=AXIS2_PLACEMENT_3D('',#780,#625,#626);
#528=AXIS2_PLACEMENT_3D('',#783,#629,#630);
#529=AXIS2_PLACEMENT_3D('',#786,#633,#634);
#530=AXIS2_PLACEMENT_3D('',#809,#639,#640);
#531=AXIS2_PLACEMENT_3D('',#812,#643,#644);
#532=AXIS2_PLACEMENT_3D('',#814,#646,#647);
#533=AXIS2_PLACEMENT_3D('',#816,#649,#650);
#534=AXIS2_PLACEMENT_3D('',#818,#651,#652);
#535=AXIS2_PLACEMENT_3D('',#819,#653,#654);
#536=AXIS2_PLACEMENT_3D('',#821,#655,#656);
#537=AXIS2_PLACEMENT_3D('',#822,#657,#658);
#538=AXIS2_PLACEMENT_3D('',#824,#659,#660);
#539=AXIS2_PLACEMENT_3D('',#826,#661,#662);
#540=AXIS2_PLACEMENT_3D('',#827,#663,#664);
#541=AXIS2_PLACEMENT_3D('',#830,#666,#667);
#542=AXIS2_PLACEMENT_3D('',#831,#668,#669);
#543=AXIS2_PLACEMENT_3D('',#833,#670,#671);
#544=AXIS2_PLACEMENT_3D('',#835,#672,#673);
#545=AXIS2_PLACEMENT_3D('',#836,#674,#675);
#546=AXIS2_PLACEMENT_3D('',#838,#677,#678);
#547=AXIS2_PLACEMENT_3D('',#841,#680,#681);
#548=AXIS2_PLACEMENT_3D('',#842,#682,#683);
#549=AXIS2_PLACEMENT_3D('',#844,#684,#685);
#550=AXIS2_PLACEMENT_3D('',#846,#686,#687);
#551=AXIS2_PLACEMENT_3D('',#847,#688,#689);
#552=AXIS2_PLACEMENT_3D('',#849,#691,#692);
#553=AXIS2_PLACEMENT_3D('',#852,#694,#695);
#554=AXIS2_PLACEMENT_3D('',#853,#696,#697);
#555=AXIS2_PLACEMENT_3D('',#855,#698,#699);
#556=AXIS2_PLACEMENT_3D('',#857,#700,#701);
#557=AXIS2_PLACEMENT_3D('',#858,#702,#703);
#558=AXIS2_PLACEMENT_3D('',#860,#705,#706);
#559=AXIS2_PLACEMENT_3D('',#863,#708,#709);
#560=AXIS2_PLACEMENT_3D('',#864,#710,#711);
#561=AXIS2_PLACEMENT_3D('',#866,#712,#713);
#562=AXIS2_PLACEMENT_3D('',#867,#714,#715);
#563=AXIS2_PLACEMENT_3D('',#870,#717,#718);
#564=AXIS2_PLACEMENT_3D('',#871,#719,#720);
#565=AXIS2_PLACEMENT_3D('',#873,#722,#723);
#566=AXIS2_PLACEMENT_3D('',#875,#725,#726);
#567=DIRECTION('axis',(0.,0.,1.));
#568=DIRECTION('refdir',(1.,0.,0.));
#569=DIRECTION('center_axis',(-0.408248290463858,0.408248290463858,-0.816496580927731));
#570=DIRECTION('ref_axis',(0.577350269189626,-0.577350269189626,-0.577350269189626));
#571=DIRECTION('center_axis',(0.,-1.,0.));
#572=DIRECTION('ref_axis',(1.,0.,0.));
#573=DIRECTION('center_axis',(0.,0.,-1.));
#574=DIRECTION('ref_axis',(0.,-1.,0.));
#575=DIRECTION('center_axis',(1.,0.,0.));
#576=DIRECTION('ref_axis',(0.,0.,-1.));
#577=DIRECTION('center_axis',(0.,0.,-1.));
#578=DIRECTION('ref_axis',(0.707106781186554,-0.707106781186541,0.));
#579=DIRECTION('center_axis',(0.,0.,-1.));
#580=DIRECTION('ref_axis',(0.707106781186554,-0.707106781186541,0.));
#581=DIRECTION('',(0.,0.,-1.));
#582=DIRECTION('',(0.,0.,1.));
#583=DIRECTION('center_axis',(0.408248290463858,0.408248290463858,-0.816496580927731));
#584=DIRECTION('ref_axis',(-0.577350269189635,-0.577350269189621,-0.577350269189621));
#585=DIRECTION('center_axis',(-1.,0.,0.));
#586=DIRECTION('ref_axis',(0.,-1.,0.));
#587=DIRECTION('center_axis',(0.,0.,-1.));
#588=DIRECTION('ref_axis',(-1.,0.,0.));
#589=DIRECTION('center_axis',(0.,-1.,0.));
#590=DIRECTION('ref_axis',(0.,0.,-1.));
#591=DIRECTION('center_axis',(0.,0.,-1.));
#592=DIRECTION('ref_axis',(-0.707106781186548,-0.707106781186548,0.));
#593=DIRECTION('center_axis',(0.,0.,-1.));
#594=DIRECTION('ref_axis',(-0.707106781186548,-0.707106781186548,0.));
#595=DIRECTION('',(0.,0.,-1.));
#596=DIRECTION('',(0.,0.,1.));
#597=DIRECTION('center_axis',(-0.408248290463858,-0.408248290463858,-0.816496580927731));
#598=DIRECTION('ref_axis',(0.577350269189638,0.577350269189616,-0.577350269189623));
#599=DIRECTION('center_axis',(1.,0.,0.));
#600=DIRECTION('ref_axis',(0.,1.,0.));
#601=DIRECTION('center_axis',(0.,0.,-1.));
#602=DIRECTION('ref_axis',(1.,0.,0.));
#603=DIRECTION('center_axis',(0.,1.,0.));
#604=DIRECTION('ref_axis',(0.,0.,-1.));
#605=DIRECTION('center_axis',(0.,0.,-1.));
#606=DIRECTION('ref_axis',(0.707106781186554,0.707106781186541,0.));
#607=DIRECTION('center_axis',(0.,0.,-1.));
#608=DIRECTION('ref_axis',(0.707106781186554,0.707106781186541,0.));
#609=DIRECTION('',(0.,0.,-1.));
#610=DIRECTION('',(0.,0.,1.));
#611=DIRECTION('center_axis',(0.,-1.,0.));
#612=DIRECTION('ref_axis',(0.707106781186554,0.,-0.707106781186541));
#613=DIRECTION('',(0.,1.,0.));
#614=DIRECTION('',(0.,-1.,0.));
#615=DIRECTION('center_axis',(-0.816496580927726,-0.408248290463863,0.408248290463863));
#616=DIRECTION('ref_axis',(-0.577350269189623,0.577350269189631,-0.577350269189623));
#617=DIRECTION('center_axis',(0.,1.,0.));
#618=DIRECTION('ref_axis',(-1.,0.,0.));
#619=DIRECTION('center_axis',(0.,0.,-1.));
#620=DIRECTION('ref_axis',(0.,1.,0.));
#621=DIRECTION('center_axis',(-1.,0.,0.));
#622=DIRECTION('ref_axis',(0.,0.,-1.));
#623=DIRECTION('center_axis',(0.,0.,-1.));
#624=DIRECTION('ref_axis',(-0.707106781186548,0.707106781186548,0.));
#625=DIRECTION('center_axis',(0.,0.,-1.));
#626=DIRECTION('ref_axis',(-0.707106781186548,0.707106781186548,0.));
#627=DIRECTION('',(0.,0.,-1.));
#628=DIRECTION('',(0.,0.,1.));
#629=DIRECTION('center_axis',(1.,0.,0.));
#630=DIRECTION('ref_axis',(0.,0.707106781186548,-0.707106781186548));
#631=DIRECTION('',(-1.,0.,0.));
#632=DIRECTION('',(1.,0.,0.));
#633=DIRECTION('center_axis',(0.,1.,0.));
#634=DIRECTION('ref_axis',(-0.707106781186548,0.,-0.707106781186548));
#635=DIRECTION('',(0.,-1.,0.));
#636=DIRECTION('',(0.,1.,0.));
#637=DIRECTION('',(0.,-1.,0.));
#638=DIRECTION('',(0.,-1.,0.));
#639=DIRECTION('center_axis',(-1.,0.,0.));
#640=DIRECTION('ref_axis',(0.,-0.707106781186548,-0.707106781186548));
#641=DIRECTION('',(1.,0.,0.));
#642=DIRECTION('',(-1.,0.,0.));
#643=DIRECTION('center_axis',(1.,0.,0.));
#644=DIRECTION('ref_axis',(0.,-1.,0.));
#645=DIRECTION('',(0.,1.,0.));
#646=DIRECTION('center_axis',(0.,1.,0.));
#647=DIRECTION('ref_axis',(1.,0.,0.));
#648=DIRECTION('',(-1.,0.,0.));
#649=DIRECTION('center_axis',(0.,0.,-1.));
#650=DIRECTION('ref_axis',(-1.,0.,0.));
#651=DIRECTION('center_axis',(0.,0.,1.));
#652=DIRECTION('ref_axis',(-1.,0.,0.));
#653=DIRECTION('center_axis',(0.,0.,1.));
#654=DIRECTION('ref_axis',(-1.,0.,0.));
#655=DIRECTION('center_axis',(0.,0.,1.));
#656=DIRECTION('ref_axis',(-1.,0.,0.));
#657=DIRECTION('center_axis',(0.,0.,1.));
#658=DIRECTION('ref_axis',(-1.,0.,0.));
#659=DIRECTION('center_axis',(0.,0.,1.));
#660=DIRECTION('ref_axis',(-1.,0.,0.));
#661=DIRECTION('center_axis',(0.,0.,1.));
#662=DIRECTION('ref_axis',(-1.,0.,0.));
#663=DIRECTION('center_axis',(0.,0.,1.));
#664=DIRECTION('ref_axis',(-1.,0.,0.));
#665=DIRECTION('',(0.,0.,1.));
#666=DIRECTION('center_axis',(0.,0.,1.));
#667=DIRECTION('ref_axis',(-1.,0.,0.));
#668=DIRECTION('center_axis',(0.,0.,1.));
#669=DIRECTION('ref_axis',(-1.,0.,0.));
#670=DIRECTION('center_axis',(0.,0.,1.));
#671=DIRECTION('ref_axis',(-1.,0.,0.));
#672=DIRECTION('center_axis',(0.,0.,1.));
#673=DIRECTION('ref_axis',(-1.,0.,0.));
#674=DIRECTION('center_axis',(0.,0.,1.));
#675=DIRECTION('ref_axis',(-1.,0.,0.));
#676=DIRECTION('',(0.,0.,1.));
#677=DIRECTION('center_axis',(0.,0.,1.));
#678=DIRECTION('ref_axis',(-1.,0.,0.));
#679=DIRECTION('',(0.,0.,1.));
#680=DIRECTION('center_axis',(0.,0.,-1.));
#681=DIRECTION('ref_axis',(-1.,0.,0.));
#682=DIRECTION('center_axis',(0.,0.,1.));
#683=DIRECTION('ref_axis',(-1.,0.,0.));
#684=DIRECTION('center_axis',(0.,0.,1.));
#685=DIRECTION('ref_axis',(-1.,0.,0.));
#686=DIRECTION('center_axis',(0.,0.,1.));
#687=DIRECTION('ref_axis',(-1.,0.,0.));
#688=DIRECTION('center_axis',(0.,0.,1.));
#689=DIRECTION('ref_axis',(-1.,0.,0.));
#690=DIRECTION('',(0.,0.,1.));
#691=DIRECTION('center_axis',(0.,0.,1.));
#692=DIRECTION('ref_axis',(-1.,0.,0.));
#693=DIRECTION('',(0.,0.,1.));
#694=DIRECTION('center_axis',(0.,0.,-1.));
#695=DIRECTION('ref_axis',(-1.,0.,0.));
#696=DIRECTION('center_axis',(0.,0.,1.));
#697=DIRECTION('ref_axis',(-1.,0.,0.));
#698=DIRECTION('center_axis',(0.,0.,1.));
#699=DIRECTION('ref_axis',(-1.,0.,0.));
#700=DIRECTION('center_axis',(0.,0.,1.));
#701=DIRECTION('ref_axis',(-1.,0.,0.));
#702=DIRECTION('center_axis',(0.,0.,1.));
#703=DIRECTION('ref_axis',(-1.,0.,0.));
#704=DIRECTION('',(0.,0.,1.));
#705=DIRECTION('center_axis',(0.,0.,1.));
#706=DIRECTION('ref_axis',(-1.,0.,0.));
#707=DIRECTION('',(0.,0.,1.));
#708=DIRECTION('center_axis',(0.,0.,-1.));
#709=DIRECTION('ref_axis',(-1.,0.,0.));
#710=DIRECTION('center_axis',(0.,0.,1.));
#711=DIRECTION('ref_axis',(-1.,0.,0.));
#712=DIRECTION('center_axis',(0.,0.,1.));
#713=DIRECTION('ref_axis',(-1.,0.,0.));
#714=DIRECTION('center_axis',(0.,0.,1.));
#715=DIRECTION('ref_axis',(-1.,0.,0.));
#716=DIRECTION('',(0.,0.,1.));
#717=DIRECTION('center_axis',(0.,0.,-1.));
#718=DIRECTION('ref_axis',(-1.,0.,0.));
#719=DIRECTION('center_axis',(-1.,0.,0.));
#720=DIRECTION('ref_axis',(0.,1.,0.));
#721=DIRECTION('',(0.,-1.,0.));
#722=DIRECTION('center_axis',(0.,-1.,0.));
#723=DIRECTION('ref_axis',(-1.,0.,0.));
#724=DIRECTION('',(1.,0.,0.));
#725=DIRECTION('center_axis',(0.,0.,-1.));
#726=DIRECTION('ref_axis',(-1.,0.,0.));
#727=CARTESIAN_POINT('',(0.,0.,0.));
#728=CARTESIAN_POINT('Origin',(112.87,-20.5,-34.944));
#729=CARTESIAN_POINT('',(113.37,-20.5,-34.944));
#730=CARTESIAN_POINT('',(112.87,-20.5,-35.444));
#731=CARTESIAN_POINT('Origin',(112.87,-20.5,-34.944));
#732=CARTESIAN_POINT('',(112.87,-21.,-34.944));
#733=CARTESIAN_POINT('Origin',(112.87,-20.5,-34.944));
#734=CARTESIAN_POINT('Origin',(112.87,-20.5,-34.944));
#735=CARTESIAN_POINT('Origin',(112.87,-20.5,-32.444));
#736=CARTESIAN_POINT('',(113.37,-20.5,-32.444));
#737=CARTESIAN_POINT('',(112.87,-21.,-32.444));
#738=CARTESIAN_POINT('Origin',(112.87,-20.5,-32.444));
#739=CARTESIAN_POINT('',(112.87,-21.,-32.444));
#740=CARTESIAN_POINT('',(113.37,-20.5,-32.444));
#741=CARTESIAN_POINT('Origin',(-34.13,-20.5,-34.944));
#742=CARTESIAN_POINT('',(-34.13,-21.,-34.944));
#743=CARTESIAN_POINT('',(-34.13,-20.5,-35.444));
#744=CARTESIAN_POINT('Origin',(-34.13,-20.5,-34.944));
#745=CARTESIAN_POINT('',(-34.63,-20.5,-34.944));
#746=CARTESIAN_POINT('Origin',(-34.13,-20.5,-34.944));
#747=CARTESIAN_POINT('Origin',(-34.13,-20.5,-34.944));
#748=CARTESIAN_POINT('Origin',(-34.13,-20.5,-32.444));
#749=CARTESIAN_POINT('',(-34.13,-21.,-32.444));
#750=CARTESIAN_POINT('',(-34.63,-20.5,-32.444));
#751=CARTESIAN_POINT('Origin',(-34.13,-20.5,-32.444));
#752=CARTESIAN_POINT('',(-34.63,-20.5,-32.444));
#753=CARTESIAN_POINT('',(-34.13,-21.,-32.444));
#754=CARTESIAN_POINT('Origin',(112.87,20.5,-34.944));
#755=CARTESIAN_POINT('',(112.87,21.,-34.944));
#756=CARTESIAN_POINT('',(112.87,20.5,-35.444));
#757=CARTESIAN_POINT('Origin',(112.87,20.5,-34.944));
#758=CARTESIAN_POINT('',(113.37,20.5,-34.944));
#759=CARTESIAN_POINT('Origin',(112.87,20.5,-34.944));
#760=CARTESIAN_POINT('Origin',(112.87,20.5,-34.944));
#761=CARTESIAN_POINT('Origin',(112.87,20.5,-32.444));
#762=CARTESIAN_POINT('',(112.87,21.,-32.444));
#763=CARTESIAN_POINT('',(113.37,20.5,-32.444));
#764=CARTESIAN_POINT('Origin',(112.87,20.5,-32.444));
#765=CARTESIAN_POINT('',(113.37,20.5,-32.444));
#766=CARTESIAN_POINT('',(112.87,21.,-32.444));
#767=CARTESIAN_POINT('Origin',(112.87,10.5,-34.944));
#768=CARTESIAN_POINT('',(112.87,10.5,-35.444));
#769=CARTESIAN_POINT('',(113.37,10.5,-34.944));
#770=CARTESIAN_POINT('Origin',(-34.13,20.5,-34.944));
#771=CARTESIAN_POINT('',(-34.63,20.5,-34.944));
#772=CARTESIAN_POINT('',(-34.13,20.5,-35.444));
#773=CARTESIAN_POINT('Origin',(-34.13,20.5,-34.944));
#774=CARTESIAN_POINT('',(-34.13,21.,-34.944));
#775=CARTESIAN_POINT('Origin',(-34.13,20.5,-34.944));
#776=CARTESIAN_POINT('Origin',(-34.13,20.5,-34.944));
#777=CARTESIAN_POINT('Origin',(-34.13,20.5,-32.444));
#778=CARTESIAN_POINT('',(-34.63,20.5,-32.444));
#779=CARTESIAN_POINT('',(-34.13,21.,-32.444));
#780=CARTESIAN_POINT('Origin',(-34.13,20.5,-32.444));
#781=CARTESIAN_POINT('',(-34.13,21.,-32.444));
#782=CARTESIAN_POINT('',(-34.63,20.5,-32.444));
#783=CARTESIAN_POINT('Origin',(2.36999999999999,20.5,-34.944));
#784=CARTESIAN_POINT('',(2.36999999999999,20.5,-35.444));
#785=CARTESIAN_POINT('',(2.36999999999999,21.,-34.944));
#786=CARTESIAN_POINT('Origin',(-34.13,-10.5,-34.944));
#787=CARTESIAN_POINT('',(-34.13,-18.5961424971029,-35.444));
#788=CARTESIAN_POINT('',(-34.13,-19.4038580691413,-35.444));
#789=CARTESIAN_POINT('Ctrl Pts',(-34.13,-18.5961424971029,-35.444));
#790=CARTESIAN_POINT('Ctrl Pts',(-34.1763143734057,-18.7257307357988,-35.444));
#791=CARTESIAN_POINT('Ctrl Pts',(-34.2000004917383,-18.8653025655616,-35.4390756822511));
#792=CARTESIAN_POINT('Ctrl Pts',(-34.2000004917383,-19.0000002831221,-35.4390756822511));
#793=CARTESIAN_POINT('Ctrl Pts',(-34.2000004917383,-19.1346980006825,-35.4390756822511));
#794=CARTESIAN_POINT('Ctrl Pts',(-34.1763143734057,-19.2742698304453,-35.444));
#795=CARTESIAN_POINT('Ctrl Pts',(-34.13,-19.4038580691413,-35.444));
#796=CARTESIAN_POINT('',(-34.13,-10.5,-35.444));
#797=CARTESIAN_POINT('',(-34.63,-10.5,-34.944));
#798=CARTESIAN_POINT('',(-34.13,15.4038580095366,-35.444));
#799=CARTESIAN_POINT('',(-34.13,-10.5,-35.444));
#800=CARTESIAN_POINT('',(-34.13,14.5961424374982,-35.444));
#801=CARTESIAN_POINT('Ctrl Pts',(-34.13,15.4038580095366,-35.444));
#802=CARTESIAN_POINT('Ctrl Pts',(-34.1763143734057,15.2742697708406,-35.444));
#803=CARTESIAN_POINT('Ctrl Pts',(-34.2000004917383,15.1346979410779,-35.4390756822511));
#804=CARTESIAN_POINT('Ctrl Pts',(-34.2000004917383,15.0000002235174,-35.4390756822511));
#805=CARTESIAN_POINT('Ctrl Pts',(-34.2000004917383,14.865302505957,-35.4390756822511));
#806=CARTESIAN_POINT('Ctrl Pts',(-34.1763143734057,14.7257306761942,-35.444));
#807=CARTESIAN_POINT('Ctrl Pts',(-34.13,14.5961424374982,-35.444));
#808=CARTESIAN_POINT('',(-34.13,-10.5,-35.444));
#809=CARTESIAN_POINT('Origin',(76.37,-20.5,-34.944));
#810=CARTESIAN_POINT('',(76.37,-20.5,-35.444));
#811=CARTESIAN_POINT('',(76.37,-21.,-34.944));
#812=CARTESIAN_POINT('Origin',(113.37,21.,-32.444));
#813=CARTESIAN_POINT('',(113.37,-21.,-32.444));
#814=CARTESIAN_POINT('Origin',(-34.63,21.,-32.444));
#815=CARTESIAN_POINT('',(113.37,21.,-32.444));
#816=CARTESIAN_POINT('Origin',(39.37,0.,-35.444));
#817=CARTESIAN_POINT('',(-31.8000004917383,-19.0000002831221,-35.444));
#818=CARTESIAN_POINT('Origin',(-33.0000004917383,-19.0000002831221,-35.444));
#819=CARTESIAN_POINT('Origin',(-33.0000004917383,-19.0000002831221,-35.444));
#820=CARTESIAN_POINT('',(-31.8000004917383,15.0000002235174,-35.444));
#821=CARTESIAN_POINT('Origin',(-33.0000004917383,15.0000002235174,-35.444));
#822=CARTESIAN_POINT('Origin',(-33.0000004917383,15.0000002235174,-35.444));
#823=CARTESIAN_POINT('',(112.820769281931,-19.0000002831221,-35.444));
#824=CARTESIAN_POINT('Origin',(111.620769281931,-19.0000002831221,-35.444));
#825=CARTESIAN_POINT('',(112.820769281931,15.0000002235174,-35.444));
#826=CARTESIAN_POINT('Origin',(111.620769281931,15.0000002235174,-35.444));
#827=CARTESIAN_POINT('Origin',(-33.0000004917383,-19.0000002831221,-34.944));
#828=CARTESIAN_POINT('',(-31.8000004917383,-19.0000002831221,-34.444));
#829=CARTESIAN_POINT('',(-31.8000004917383,-19.0000002831221,-34.944));
#830=CARTESIAN_POINT('Origin',(-33.0000004917383,-19.0000002831221,-34.444));
#831=CARTESIAN_POINT('Origin',(-33.0000004917383,15.0000002235174,-34.444));
#832=CARTESIAN_POINT('',(-31.8000004917383,15.0000002235174,-34.444));
#833=CARTESIAN_POINT('Origin',(-33.0000004917383,15.0000002235174,-34.444));
#834=CARTESIAN_POINT('',(-32.1885004917383,15.0000002235174,-34.444));
#835=CARTESIAN_POINT('Origin',(-33.0000004917383,15.0000002235174,-34.444));
#836=CARTESIAN_POINT('Origin',(-33.0000004917383,15.0000002235174,-34.944));
#837=CARTESIAN_POINT('',(-31.8000004917383,15.0000002235174,-34.944));
#838=CARTESIAN_POINT('Origin',(-33.0000004917383,15.0000002235174,-32.444));
#839=CARTESIAN_POINT('',(-32.1885004917383,15.0000002235174,-32.444));
#840=CARTESIAN_POINT('',(-32.1885004917383,15.0000002235174,-32.444));
#841=CARTESIAN_POINT('Origin',(-33.0000004917383,15.0000002235174,-32.444));
#842=CARTESIAN_POINT('Origin',(111.620769281931,15.0000002235174,-34.444));
#843=CARTESIAN_POINT('',(112.820769281931,15.0000002235174,-34.444));
#844=CARTESIAN_POINT('Origin',(111.620769281931,15.0000002235174,-34.444));
#845=CARTESIAN_POINT('',(112.432269281931,15.0000002235174,-34.444));
#846=CARTESIAN_POINT('Origin',(111.620769281931,15.0000002235174,-34.444));
#847=CARTESIAN_POINT('Origin',(111.620769281931,15.0000002235174,-34.944));
#848=CARTESIAN_POINT('',(112.820769281931,15.0000002235174,-34.944));
#849=CARTESIAN_POINT('Origin',(111.620769281931,15.0000002235174,-32.444));
#850=CARTESIAN_POINT('',(112.432269281931,15.0000002235174,-32.444));
#851=CARTESIAN_POINT('',(112.432269281931,15.0000002235174,-32.444));
#852=CARTESIAN_POINT('Origin',(111.620769281931,15.0000002235174,-32.444));
#853=CARTESIAN_POINT('Origin',(111.620769281931,-19.0000002831221,-34.444));
#854=CARTESIAN_POINT('',(112.820769281931,-19.0000002831221,-34.444));
#855=CARTESIAN_POINT('Origin',(111.620769281931,-19.0000002831221,-34.444));
#856=CARTESIAN_POINT('',(112.432269281931,-19.0000002831221,-34.444));
#857=CARTESIAN_POINT('Origin',(111.620769281931,-19.0000002831221,-34.444));
#858=CARTESIAN_POINT('Origin',(111.620769281931,-19.0000002831221,-34.944));
#859=CARTESIAN_POINT('',(112.820769281931,-19.0000002831221,-34.944));
#860=CARTESIAN_POINT('Origin',(111.620769281931,-19.0000002831221,-32.444));
#861=CARTESIAN_POINT('',(112.432269281931,-19.0000002831221,-32.444));
#862=CARTESIAN_POINT('',(112.432269281931,-19.0000002831221,-32.444));
#863=CARTESIAN_POINT('Origin',(111.620769281931,-19.0000002831221,-32.444));
#864=CARTESIAN_POINT('Origin',(-33.0000004917383,-19.0000002831221,-34.444));
#865=CARTESIAN_POINT('',(-32.1885004917383,-19.0000002831221,-34.444));
#866=CARTESIAN_POINT('Origin',(-33.0000004917383,-19.0000002831221,-34.444));
#867=CARTESIAN_POINT('Origin',(-33.0000004917383,-19.0000002831221,-32.444));
#868=CARTESIAN_POINT('',(-32.1885004917383,-19.0000002831221,-32.444));
#869=CARTESIAN_POINT('',(-32.1885004917383,-19.0000002831221,-32.444));
#870=CARTESIAN_POINT('Origin',(-33.0000004917383,-19.0000002831221,-32.444));
#871=CARTESIAN_POINT('Origin',(-34.63,-21.,-32.444));
#872=CARTESIAN_POINT('',(-34.63,21.,-32.444));
#873=CARTESIAN_POINT('Origin',(113.37,-21.,-32.444));
#874=CARTESIAN_POINT('',(-34.63,-21.,-32.444));
#875=CARTESIAN_POINT('Origin',(39.37,0.,-32.444));
#876=UNCERTAINTY_MEASURE_WITH_UNIT(LENGTH_MEASURE(0.01),#880,
'DISTANCE_ACCURACY_VALUE',
'Maximum model space distance between geometric entities at asserted c
onnectivities');
#877=UNCERTAINTY_MEASURE_WITH_UNIT(LENGTH_MEASURE(0.01),#880,
'DISTANCE_ACCURACY_VALUE',
'Maximum model space distance between geometric entities at asserted c
onnectivities');
#878=(
GEOMETRIC_REPRESENTATION_CONTEXT(3)
GLOBAL_UNCERTAINTY_ASSIGNED_CONTEXT((#876))
GLOBAL_UNIT_ASSIGNED_CONTEXT((#880,#882,#883))
REPRESENTATION_CONTEXT('','3D')
);
#879=(
GEOMETRIC_REPRESENTATION_CONTEXT(3)
GLOBAL_UNCERTAINTY_ASSIGNED_CONTEXT((#877))
GLOBAL_UNIT_ASSIGNED_CONTEXT((#880,#882,#883))
REPRESENTATION_CONTEXT('','3D')
);
#880=(
LENGTH_UNIT()
NAMED_UNIT(*)
SI_UNIT(.MILLI.,.METRE.)
);
#881=(
LENGTH_UNIT()
NAMED_UNIT(*)
SI_UNIT($,.METRE.)
);
#882=(
NAMED_UNIT(*)
PLANE_ANGLE_UNIT()
SI_UNIT($,.RADIAN.)
);
#883=(
NAMED_UNIT(*)
SI_UNIT($,.STERADIAN.)
SOLID_ANGLE_UNIT()
);
#884=SHAPE_DEFINITION_REPRESENTATION(#885,#886);
#885=PRODUCT_DEFINITION_SHAPE('',$,#888);
#886=SHAPE_REPRESENTATION('',(#502),#878);
#887=PRODUCT_DEFINITION_CONTEXT('part definition',#892,'design');
#888=PRODUCT_DEFINITION('Case','Case',#889,#887);
#889=PRODUCT_DEFINITION_FORMATION('',$,#894);
#890=PRODUCT_RELATED_PRODUCT_CATEGORY('Case','Case',(#894));
#891=APPLICATION_PROTOCOL_DEFINITION('international standard',
'automotive_design',2009,#892);
#892=APPLICATION_CONTEXT(
'Core Data for Automotive Mechanical Design Process');
#893=PRODUCT_CONTEXT('part definition',#892,'mechanical');
#894=PRODUCT('Case','Case',$,(#893));
#895=PRESENTATION_STYLE_ASSIGNMENT((#918));
#896=PRESENTATION_STYLE_ASSIGNMENT((#919));
#897=PRESENTATION_STYLE_ASSIGNMENT((#920));
#898=PRESENTATION_STYLE_ASSIGNMENT((#921));
#899=PRESENTATION_STYLE_ASSIGNMENT((#922));
#900=PRESENTATION_STYLE_ASSIGNMENT((#923));
#901=PRESENTATION_STYLE_ASSIGNMENT((#924));
#902=PRESENTATION_STYLE_ASSIGNMENT((#925));
#903=PRESENTATION_STYLE_ASSIGNMENT((#926));
#904=PRESENTATION_STYLE_ASSIGNMENT((#927));
#905=PRESENTATION_STYLE_ASSIGNMENT((#928));
#906=PRESENTATION_STYLE_ASSIGNMENT((#929));
#907=PRESENTATION_STYLE_ASSIGNMENT((#930));
#908=PRESENTATION_STYLE_ASSIGNMENT((#931));
#909=PRESENTATION_STYLE_ASSIGNMENT((#932));
#910=PRESENTATION_STYLE_ASSIGNMENT((#933));
#911=PRESENTATION_STYLE_ASSIGNMENT((#934));
#912=PRESENTATION_STYLE_ASSIGNMENT((#935));
#913=PRESENTATION_STYLE_ASSIGNMENT((#936));
#914=PRESENTATION_STYLE_ASSIGNMENT((#937));
#915=PRESENTATION_STYLE_ASSIGNMENT((#938));
#916=PRESENTATION_STYLE_ASSIGNMENT((#939));
#917=PRESENTATION_STYLE_ASSIGNMENT((#940));
#918=SURFACE_STYLE_USAGE(.BOTH.,#941);
#919=SURFACE_STYLE_USAGE(.BOTH.,#942);
#920=SURFACE_STYLE_USAGE(.BOTH.,#943);
#921=SURFACE_STYLE_USAGE(.BOTH.,#944);
#922=SURFACE_STYLE_USAGE(.BOTH.,#945);
#923=SURFACE_STYLE_USAGE(.BOTH.,#946);
#924=SURFACE_STYLE_USAGE(.BOTH.,#947);
#925=SURFACE_STYLE_USAGE(.BOTH.,#948);
#926=SURFACE_STYLE_USAGE(.BOTH.,#949);
#927=SURFACE_STYLE_USAGE(.BOTH.,#950);
#928=SURFACE_STYLE_USAGE(.BOTH.,#951);
#929=SURFACE_STYLE_USAGE(.BOTH.,#952);
#930=SURFACE_STYLE_USAGE(.BOTH.,#953);
#931=SURFACE_STYLE_USAGE(.BOTH.,#954);
#932=SURFACE_STYLE_USAGE(.BOTH.,#955);
#933=SURFACE_STYLE_USAGE(.BOTH.,#956);
#934=SURFACE_STYLE_USAGE(.BOTH.,#957);
#935=SURFACE_STYLE_USAGE(.BOTH.,#958);
#936=SURFACE_STYLE_USAGE(.BOTH.,#959);
#937=SURFACE_STYLE_USAGE(.BOTH.,#960);
#938=SURFACE_STYLE_USAGE(.BOTH.,#961);
#939=SURFACE_STYLE_USAGE(.BOTH.,#962);
#940=SURFACE_STYLE_USAGE(.BOTH.,#963);
#941=SURFACE_SIDE_STYLE('',(#964));
#942=SURFACE_SIDE_STYLE('',(#965));
#943=SURFACE_SIDE_STYLE('',(#966));
#944=SURFACE_SIDE_STYLE('',(#967));
#945=SURFACE_SIDE_STYLE('',(#968));
#946=SURFACE_SIDE_STYLE('',(#969));
#947=SURFACE_SIDE_STYLE('',(#970));
#948=SURFACE_SIDE_STYLE('',(#971));
#949=SURFACE_SIDE_STYLE('',(#972));
#950=SURFACE_SIDE_STYLE('',(#973));
#951=SURFACE_SIDE_STYLE('',(#974));
#952=SURFACE_SIDE_STYLE('',(#975));
#953=SURFACE_SIDE_STYLE('',(#976));
#954=SURFACE_SIDE_STYLE('',(#977));
#955=SURFACE_SIDE_STYLE('',(#978));
#956=SURFACE_SIDE_STYLE('',(#979));
#957=SURFACE_SIDE_STYLE('',(#980));
#958=SURFACE_SIDE_STYLE('',(#981));
#959=SURFACE_SIDE_STYLE('',(#982));
#960=SURFACE_SIDE_STYLE('',(#983));
#961=SURFACE_SIDE_STYLE('',(#984));
#962=SURFACE_SIDE_STYLE('',(#985));
#963=SURFACE_SIDE_STYLE('',(#986));
#964=SURFACE_STYLE_FILL_AREA(#987);
#965=SURFACE_STYLE_FILL_AREA(#988);
#966=SURFACE_STYLE_FILL_AREA(#989);
#967=SURFACE_STYLE_FILL_AREA(#990);
#968=SURFACE_STYLE_FILL_AREA(#991);
#969=SURFACE_STYLE_FILL_AREA(#992);
#970=SURFACE_STYLE_FILL_AREA(#993);
#971=SURFACE_STYLE_FILL_AREA(#994);
#972=SURFACE_STYLE_FILL_AREA(#995);
#973=SURFACE_STYLE_FILL_AREA(#996);
#974=SURFACE_STYLE_FILL_AREA(#997);
#975=SURFACE_STYLE_FILL_AREA(#998);
#976=SURFACE_STYLE_FILL_AREA(#999);
#977=SURFACE_STYLE_FILL_AREA(#1000);
#978=SURFACE_STYLE_FILL_AREA(#1001);
#979=SURFACE_STYLE_FILL_AREA(#1002);
#980=SURFACE_STYLE_FILL_AREA(#1003);
#981=SURFACE_STYLE_FILL_AREA(#1004);
#982=SURFACE_STYLE_FILL_AREA(#1005);
#983=SURFACE_STYLE_FILL_AREA(#1006);
#984=SURFACE_STYLE_FILL_AREA(#1007);
#985=SURFACE_STYLE_FILL_AREA(#1008);
#986=SURFACE_STYLE_FILL_AREA(#1009);
#987=FILL_AREA_STYLE('Steel - Satin',(#1010));
#988=FILL_AREA_STYLE('Opaque(255,255,255)',(#1011));
#989=FILL_AREA_STYLE('Opaque(0,64,191)',(#1012));
#990=FILL_AREA_STYLE('Opaque(51,51,51)',(#1013));
#991=FILL_AREA_STYLE('Opaque(63,63,63)',(#1014));
#992=FILL_AREA_STYLE('Opaque(129,136,140)',(#1015));
#993=FILL_AREA_STYLE('Opaque(178,178,178)',(#1016));
#994=FILL_AREA_STYLE('Opaque(189,189,189)',(#1017));
#995=FILL_AREA_STYLE('Opaque(138,152,191)',(#1018));
#996=FILL_AREA_STYLE('Opaque(204,170,82)',(#1019));
#997=FILL_AREA_STYLE('Opaque(150,112,0)',(#1020));
#998=FILL_AREA_STYLE('Opaque(255,191,0)',(#1021));
#999=FILL_AREA_STYLE('Opaque(0,155,0)',(#1022));
#1000=FILL_AREA_STYLE('Opaque(161,148,27)',(#1023));
#1001=FILL_AREA_STYLE('Opaque(160,228,105)',(#1024));
#1002=FILL_AREA_STYLE('Opaque(0,154,0)',(#1025));
#1003=FILL_AREA_STYLE('Opaque(230,230,230)',(#1026));
#1004=FILL_AREA_STYLE('Opaque(28,28,28)',(#1027));
#1005=FILL_AREA_STYLE('Opaque(183,176,140)',(#1028));
#1006=FILL_AREA_STYLE('Opaque(182,176,140)',(#1029));
#1007=FILL_AREA_STYLE('Opaque(158,104,51)',(#1030));
#1008=FILL_AREA_STYLE('Opaque(127,127,127)',(#1031));
#1009=FILL_AREA_STYLE('Opaque(198,193,188)',(#1032));
#1010=FILL_AREA_STYLE_COLOUR('Steel - Satin',#1033);
#1011=FILL_AREA_STYLE_COLOUR('Opaque(255,255,255)',#1034);
#1012=FILL_AREA_STYLE_COLOUR('Opaque(0,64,191)',#1035);
#1013=FILL_AREA_STYLE_COLOUR('Opaque(51,51,51)',#1036);
#1014=FILL_AREA_STYLE_COLOUR('Opaque(63,63,63)',#1037);
#1015=FILL_AREA_STYLE_COLOUR('Opaque(129,136,140)',#1038);
#1016=FILL_AREA_STYLE_COLOUR('Opaque(178,178,178)',#1039);
#1017=FILL_AREA_STYLE_COLOUR('Opaque(189,189,189)',#1040);
#1018=FILL_AREA_STYLE_COLOUR('Opaque(138,152,191)',#1041);
#1019=FILL_AREA_STYLE_COLOUR('Opaque(204,170,82)',#1042);
#1020=FILL_AREA_STYLE_COLOUR('Opaque(150,112,0)',#1043);
#1021=FILL_AREA_STYLE_COLOUR('Opaque(255,191,0)',#1044);
#1022=FILL_AREA_STYLE_COLOUR('Opaque(0,155,0)',#1045);
#1023=FILL_AREA_STYLE_COLOUR('Opaque(161,148,27)',#1046);
#1024=FILL_AREA_STYLE_COLOUR('Opaque(160,228,105)',#1047);
#1025=FILL_AREA_STYLE_COLOUR('Opaque(0,154,0)',#1048);
#1026=FILL_AREA_STYLE_COLOUR('Opaque(230,230,230)',#1049);
#1027=FILL_AREA_STYLE_COLOUR('Opaque(28,28,28)',#1050);
#1028=FILL_AREA_STYLE_COLOUR('Opaque(183,176,140)',#1051);
#1029=FILL_AREA_STYLE_COLOUR('Opaque(182,176,140)',#1052);
#1030=FILL_AREA_STYLE_COLOUR('Opaque(158,104,51)',#1053);
#1031=FILL_AREA_STYLE_COLOUR('Opaque(127,127,127)',#1054);
#1032=FILL_AREA_STYLE_COLOUR('Opaque(198,193,188)',#1055);
#1033=COLOUR_RGB('Steel - Satin',0.627450980392157,0.627450980392157,0.627450980392157);
#1034=COLOUR_RGB('Opaque(255,255,255)',1.,1.,1.);
#1035=COLOUR_RGB('Opaque(0,64,191)',0.,0.250980392156863,0.749019607843137);
#1036=COLOUR_RGB('Opaque(51,51,51)',0.2,0.2,0.2);
#1037=COLOUR_RGB('Opaque(63,63,63)',0.250980392156863,0.250980392156863,
0.250980392156863);
#1038=COLOUR_RGB('Opaque(129,136,140)',0.505882352941176,0.533333333333333,
0.549019607843137);
#1039=COLOUR_RGB('Opaque(178,178,178)',0.698039215686274,0.698039215686274,
0.698039215686274);
#1040=COLOUR_RGB('Opaque(189,189,189)',0.741176470588235,0.741176470588235,
0.741176470588235);
#1041=COLOUR_RGB('Opaque(138,152,191)',0.541176470588235,0.596078431372549,
0.749019607843137);
#1042=COLOUR_RGB('Opaque(204,170,82)',0.8,0.666666666666667,0.32156862745098);
#1043=COLOUR_RGB('Opaque(150,112,0)',0.588235294117647,0.43921568627451,
0.);
#1044=COLOUR_RGB('Opaque(255,191,0)',1.,0.749019607843137,0.);
#1045=COLOUR_RGB('Opaque(0,155,0)',0.,0.607843137254902,0.);
#1046=COLOUR_RGB('Opaque(161,148,27)',0.631372549019608,0.580392156862745,
0.105882352941176);
#1047=COLOUR_RGB('Opaque(160,228,105)',0.627450980392157,0.894117647058824,
0.411764705882353);
#1048=COLOUR_RGB('Opaque(0,154,0)',0.,0.603921568627451,0.);
#1049=COLOUR_RGB('Opaque(230,230,230)',0.901960784313726,0.901960784313726,
0.901960784313726);
#1050=COLOUR_RGB('Opaque(28,28,28)',0.109803921568627,0.109803921568627,
0.109803921568627);
#1051=COLOUR_RGB('Opaque(183,176,140)',0.717647058823529,0.690196078431373,
0.549019607843137);
#1052=COLOUR_RGB('Opaque(182,176,140)',0.713725490196078,0.690196078431373,
0.549019607843137);
#1053=COLOUR_RGB('Opaque(158,104,51)',0.619607843137255,0.407843137254902,
0.2);
#1054=COLOUR_RGB('Opaque(127,127,127)',0.498039215686275,0.498039215686275,
0.498039215686275);
#1055=COLOUR_RGB('Opaque(198,193,188)',0.776470588235294,0.756862745098039,
0.737254901960784);
ENDSEC;
END-ISO-10303-21;
