ISO-10303-21;
HEADER;
/* Generated by software containing ST-Developer
 * from STEP Tools, Inc. (www.steptools.com) 
 */

FILE_DESCRIPTION(
/* description */ (''),
/* implementation_level */ '2;1');

FILE_NAME(
/* name */ 'Rasp Pi Plate.step',
/* time_stamp */ '2026-09-12T14:08:38-05:00',
/* author */ (''),
/* organization */ (''),
/* preprocessor_version */ 'ST-DEVELOPER v20.1',
/* originating_system */ 'Autodesk Translation Framework v15.8.0.0',
/* authorisation */ '');

FILE_SCHEMA (('AUTOMOTIVE_DESIGN { 1 0 10303 214 3 1 1 }'));
ENDSEC;

DATA;
#10=MECHANICAL_DESIGN_GEOMETRIC_PRESENTATION_REPRESENTATION('',(#13),#339);
#11=SHAPE_REPRESENTATION_RELATIONSHIP('SRR','None',#346,#12);
#12=ADVANCED_BREP_SHAPE_REPRESENTATION('',(#14),#338);
#13=STYLED_ITEM('',(#355),#14);
#14=MANIFOLD_SOLID_BREP('Body270',#199);
#15=FACE_BOUND('',#48,.T.);
#16=FACE_BOUND('',#49,.T.);
#17=FACE_BOUND('',#50,.T.);
#18=FACE_BOUND('',#51,.T.);
#19=FACE_BOUND('',#53,.T.);
#20=FACE_BOUND('',#54,.T.);
#21=FACE_BOUND('',#55,.T.);
#22=FACE_BOUND('',#56,.T.);
#23=PLANE('',#225);
#24=PLANE('',#226);
#25=PLANE('',#227);
#26=PLANE('',#228);
#27=PLANE('',#229);
#28=PLANE('',#230);
#29=FACE_OUTER_BOUND('',#39,.T.);
#30=FACE_OUTER_BOUND('',#40,.T.);
#31=FACE_OUTER_BOUND('',#41,.T.);
#32=FACE_OUTER_BOUND('',#42,.T.);
#33=FACE_OUTER_BOUND('',#43,.T.);
#34=FACE_OUTER_BOUND('',#44,.T.);
#35=FACE_OUTER_BOUND('',#45,.T.);
#36=FACE_OUTER_BOUND('',#46,.T.);
#37=FACE_OUTER_BOUND('',#47,.T.);
#38=FACE_OUTER_BOUND('',#52,.T.);
#39=EDGE_LOOP('',(#137,#138,#139,#140));
#40=EDGE_LOOP('',(#141,#142,#143,#144));
#41=EDGE_LOOP('',(#145,#146,#147,#148));
#42=EDGE_LOOP('',(#149,#150,#151,#152));
#43=EDGE_LOOP('',(#153,#154,#155,#156));
#44=EDGE_LOOP('',(#157,#158,#159,#160));
#45=EDGE_LOOP('',(#161,#162,#163,#164));
#46=EDGE_LOOP('',(#165,#166,#167,#168));
#47=EDGE_LOOP('',(#169,#170,#171,#172));
#48=EDGE_LOOP('',(#173));
#49=EDGE_LOOP('',(#174));
#50=EDGE_LOOP('',(#175));
#51=EDGE_LOOP('',(#176));
#52=EDGE_LOOP('',(#177,#178,#179,#180));
#53=EDGE_LOOP('',(#181));
#54=EDGE_LOOP('',(#182));
#55=EDGE_LOOP('',(#183));
#56=EDGE_LOOP('',(#184));
#57=LINE('',#290,#73);
#58=LINE('',#296,#74);
#59=LINE('',#302,#75);
#60=LINE('',#308,#76);
#61=LINE('',#313,#77);
#62=LINE('',#315,#78);
#63=LINE('',#317,#79);
#64=LINE('',#318,#80);
#65=LINE('',#321,#81);
#66=LINE('',#323,#82);
#67=LINE('',#324,#83);
#68=LINE('',#327,#84);
#69=LINE('',#329,#85);
#70=LINE('',#330,#86);
#71=LINE('',#332,#87);
#72=LINE('',#333,#88);
#73=VECTOR('',#237,0.8115);
#74=VECTOR('',#244,0.8115);
#75=VECTOR('',#251,0.8115);
#76=VECTOR('',#258,0.8115);
#77=VECTOR('',#263,10.);
#78=VECTOR('',#264,10.);
#79=VECTOR('',#265,10.);
#80=VECTOR('',#266,10.);
#81=VECTOR('',#269,10.);
#82=VECTOR('',#270,10.);
#83=VECTOR('',#271,10.);
#84=VECTOR('',#274,10.);
#85=VECTOR('',#275,10.);
#86=VECTOR('',#276,10.);
#87=VECTOR('',#279,10.);
#88=VECTOR('',#280,10.);
#89=CIRCLE('',#214,0.8115);
#90=CIRCLE('',#215,0.8115);
#91=CIRCLE('',#217,0.8115);
#92=CIRCLE('',#218,0.8115);
#93=CIRCLE('',#220,0.8115);
#94=CIRCLE('',#221,0.8115);
#95=CIRCLE('',#223,0.8115);
#96=CIRCLE('',#224,0.8115);
#97=VERTEX_POINT('',#287);
#98=VERTEX_POINT('',#289);
#99=VERTEX_POINT('',#293);
#100=VERTEX_POINT('',#295);
#101=VERTEX_POINT('',#299);
#102=VERTEX_POINT('',#301);
#103=VERTEX_POINT('',#305);
#104=VERTEX_POINT('',#307);
#105=VERTEX_POINT('',#311);
#106=VERTEX_POINT('',#312);
#107=VERTEX_POINT('',#314);
#108=VERTEX_POINT('',#316);
#109=VERTEX_POINT('',#320);
#110=VERTEX_POINT('',#322);
#111=VERTEX_POINT('',#326);
#112=VERTEX_POINT('',#328);
#113=EDGE_CURVE('',#97,#97,#89,.T.);
#114=EDGE_CURVE('',#97,#98,#57,.T.);
#115=EDGE_CURVE('',#98,#98,#90,.T.);
#116=EDGE_CURVE('',#99,#99,#91,.T.);
#117=EDGE_CURVE('',#99,#100,#58,.T.);
#118=EDGE_CURVE('',#100,#100,#92,.T.);
#119=EDGE_CURVE('',#101,#101,#93,.T.);
#120=EDGE_CURVE('',#101,#102,#59,.T.);
#121=EDGE_CURVE('',#102,#102,#94,.T.);
#122=EDGE_CURVE('',#103,#103,#95,.T.);
#123=EDGE_CURVE('',#103,#104,#60,.T.);
#124=EDGE_CURVE('',#104,#104,#96,.T.);
#125=EDGE_CURVE('',#105,#106,#61,.T.);
#126=EDGE_CURVE('',#105,#107,#62,.T.);
#127=EDGE_CURVE('',#108,#107,#63,.T.);
#128=EDGE_CURVE('',#106,#108,#64,.T.);
#129=EDGE_CURVE('',#106,#109,#65,.T.);
#130=EDGE_CURVE('',#110,#108,#66,.T.);
#131=EDGE_CURVE('',#109,#110,#67,.T.);
#132=EDGE_CURVE('',#109,#111,#68,.T.);
#133=EDGE_CURVE('',#112,#110,#69,.T.);
#134=EDGE_CURVE('',#111,#112,#70,.T.);
#135=EDGE_CURVE('',#111,#105,#71,.T.);
#136=EDGE_CURVE('',#107,#112,#72,.T.);
#137=ORIENTED_EDGE('',*,*,#113,.F.);
#138=ORIENTED_EDGE('',*,*,#114,.T.);
#139=ORIENTED_EDGE('',*,*,#115,.F.);
#140=ORIENTED_EDGE('',*,*,#114,.F.);
#141=ORIENTED_EDGE('',*,*,#116,.F.);
#142=ORIENTED_EDGE('',*,*,#117,.T.);
#143=ORIENTED_EDGE('',*,*,#118,.F.);
#144=ORIENTED_EDGE('',*,*,#117,.F.);
#145=ORIENTED_EDGE('',*,*,#119,.F.);
#146=ORIENTED_EDGE('',*,*,#120,.T.);
#147=ORIENTED_EDGE('',*,*,#121,.F.);
#148=ORIENTED_EDGE('',*,*,#120,.F.);
#149=ORIENTED_EDGE('',*,*,#122,.F.);
#150=ORIENTED_EDGE('',*,*,#123,.T.);
#151=ORIENTED_EDGE('',*,*,#124,.F.);
#152=ORIENTED_EDGE('',*,*,#123,.F.);
#153=ORIENTED_EDGE('',*,*,#125,.F.);
#154=ORIENTED_EDGE('',*,*,#126,.T.);
#155=ORIENTED_EDGE('',*,*,#127,.F.);
#156=ORIENTED_EDGE('',*,*,#128,.F.);
#157=ORIENTED_EDGE('',*,*,#129,.F.);
#158=ORIENTED_EDGE('',*,*,#128,.T.);
#159=ORIENTED_EDGE('',*,*,#130,.F.);
#160=ORIENTED_EDGE('',*,*,#131,.F.);
#161=ORIENTED_EDGE('',*,*,#132,.F.);
#162=ORIENTED_EDGE('',*,*,#131,.T.);
#163=ORIENTED_EDGE('',*,*,#133,.F.);
#164=ORIENTED_EDGE('',*,*,#134,.F.);
#165=ORIENTED_EDGE('',*,*,#135,.F.);
#166=ORIENTED_EDGE('',*,*,#134,.T.);
#167=ORIENTED_EDGE('',*,*,#136,.F.);
#168=ORIENTED_EDGE('',*,*,#126,.F.);
#169=ORIENTED_EDGE('',*,*,#136,.T.);
#170=ORIENTED_EDGE('',*,*,#133,.T.);
#171=ORIENTED_EDGE('',*,*,#130,.T.);
#172=ORIENTED_EDGE('',*,*,#127,.T.);
#173=ORIENTED_EDGE('',*,*,#113,.T.);
#174=ORIENTED_EDGE('',*,*,#116,.T.);
#175=ORIENTED_EDGE('',*,*,#119,.T.);
#176=ORIENTED_EDGE('',*,*,#122,.T.);
#177=ORIENTED_EDGE('',*,*,#135,.T.);
#178=ORIENTED_EDGE('',*,*,#125,.T.);
#179=ORIENTED_EDGE('',*,*,#129,.T.);
#180=ORIENTED_EDGE('',*,*,#132,.T.);
#181=ORIENTED_EDGE('',*,*,#115,.T.);
#182=ORIENTED_EDGE('',*,*,#118,.T.);
#183=ORIENTED_EDGE('',*,*,#121,.T.);
#184=ORIENTED_EDGE('',*,*,#124,.T.);
#185=CYLINDRICAL_SURFACE('',#213,0.8115);
#186=CYLINDRICAL_SURFACE('',#216,0.8115);
#187=CYLINDRICAL_SURFACE('',#219,0.8115);
#188=CYLINDRICAL_SURFACE('',#222,0.8115);
#189=ADVANCED_FACE('',(#29),#185,.F.);
#190=ADVANCED_FACE('',(#30),#186,.F.);
#191=ADVANCED_FACE('',(#31),#187,.F.);
#192=ADVANCED_FACE('',(#32),#188,.F.);
#193=ADVANCED_FACE('',(#33),#23,.T.);
#194=ADVANCED_FACE('',(#34),#24,.T.);
#195=ADVANCED_FACE('',(#35),#25,.T.);
#196=ADVANCED_FACE('',(#36),#26,.T.);
#197=ADVANCED_FACE('',(#37,#15,#16,#17,#18),#27,.T.);
#198=ADVANCED_FACE('',(#38,#19,#20,#21,#22),#28,.F.);
#199=CLOSED_SHELL('',(#189,#190,#191,#192,#193,#194,#195,#196,#197,#198));
#200=DERIVED_UNIT_ELEMENT(#202,1.);
#201=DERIVED_UNIT_ELEMENT(#341,-3.);
#202=(
MASS_UNIT()
NAMED_UNIT(*)
SI_UNIT(.KILO.,.GRAM.)
);
#203=DERIVED_UNIT((#200,#201));
#204=MEASURE_REPRESENTATION_ITEM('density measure',
POSITIVE_RATIO_MEASURE(7850.),#203);
#205=PROPERTY_DEFINITION_REPRESENTATION(#210,#207);
#206=PROPERTY_DEFINITION_REPRESENTATION(#211,#208);
#207=REPRESENTATION('material name',(#209),#338);
#208=REPRESENTATION('density',(#204),#338);
#209=DESCRIPTIVE_REPRESENTATION_ITEM('Steel','Steel');
#210=PROPERTY_DEFINITION('material property','material name',#348);
#211=PROPERTY_DEFINITION('material property','density of part',#348);
#212=AXIS2_PLACEMENT_3D('',#285,#231,#232);
#213=AXIS2_PLACEMENT_3D('',#286,#233,#234);
#214=AXIS2_PLACEMENT_3D('',#288,#235,#236);
#215=AXIS2_PLACEMENT_3D('',#291,#238,#239);
#216=AXIS2_PLACEMENT_3D('',#292,#240,#241);
#217=AXIS2_PLACEMENT_3D('',#294,#242,#243);
#218=AXIS2_PLACEMENT_3D('',#297,#245,#246);
#219=AXIS2_PLACEMENT_3D('',#298,#247,#248);
#220=AXIS2_PLACEMENT_3D('',#300,#249,#250);
#221=AXIS2_PLACEMENT_3D('',#303,#252,#253);
#222=AXIS2_PLACEMENT_3D('',#304,#254,#255);
#223=AXIS2_PLACEMENT_3D('',#306,#256,#257);
#224=AXIS2_PLACEMENT_3D('',#309,#259,#260);
#225=AXIS2_PLACEMENT_3D('',#310,#261,#262);
#226=AXIS2_PLACEMENT_3D('',#319,#267,#268);
#227=AXIS2_PLACEMENT_3D('',#325,#272,#273);
#228=AXIS2_PLACEMENT_3D('',#331,#277,#278);
#229=AXIS2_PLACEMENT_3D('',#334,#281,#282);
#230=AXIS2_PLACEMENT_3D('',#335,#283,#284);
#231=DIRECTION('axis',(0.,0.,1.));
#232=DIRECTION('refdir',(1.,0.,0.));
#233=DIRECTION('center_axis',(0.,0.,1.));
#234=DIRECTION('ref_axis',(-1.,0.,0.));
#235=DIRECTION('center_axis',(0.,0.,1.));
#236=DIRECTION('ref_axis',(-1.,0.,0.));
#237=DIRECTION('',(0.,0.,1.));
#238=DIRECTION('center_axis',(0.,0.,-1.));
#239=DIRECTION('ref_axis',(-1.,0.,0.));
#240=DIRECTION('center_axis',(0.,0.,1.));
#241=DIRECTION('ref_axis',(-1.,0.,0.));
#242=DIRECTION('center_axis',(0.,0.,1.));
#243=DIRECTION('ref_axis',(-1.,0.,0.));
#244=DIRECTION('',(0.,0.,1.));
#245=DIRECTION('center_axis',(0.,0.,-1.));
#246=DIRECTION('ref_axis',(-1.,0.,0.));
#247=DIRECTION('center_axis',(0.,0.,1.));
#248=DIRECTION('ref_axis',(-1.,0.,0.));
#249=DIRECTION('center_axis',(0.,0.,1.));
#250=DIRECTION('ref_axis',(-1.,0.,0.));
#251=DIRECTION('',(0.,0.,1.));
#252=DIRECTION('center_axis',(0.,0.,-1.));
#253=DIRECTION('ref_axis',(-1.,0.,0.));
#254=DIRECTION('center_axis',(0.,0.,1.));
#255=DIRECTION('ref_axis',(-1.,0.,0.));
#256=DIRECTION('center_axis',(0.,0.,1.));
#257=DIRECTION('ref_axis',(-1.,0.,0.));
#258=DIRECTION('',(0.,0.,1.));
#259=DIRECTION('center_axis',(0.,0.,-1.));
#260=DIRECTION('ref_axis',(-1.,0.,0.));
#261=DIRECTION('center_axis',(1.,0.,0.));
#262=DIRECTION('ref_axis',(0.,-1.,0.));
#263=DIRECTION('',(0.,1.,0.));
#264=DIRECTION('',(0.,0.,-1.));
#265=DIRECTION('',(0.,-1.,0.));
#266=DIRECTION('',(0.,0.,-1.));
#267=DIRECTION('center_axis',(0.,1.,0.));
#268=DIRECTION('ref_axis',(1.,0.,0.));
#269=DIRECTION('',(-1.,0.,0.));
#270=DIRECTION('',(1.,0.,0.));
#271=DIRECTION('',(0.,0.,-1.));
#272=DIRECTION('center_axis',(-1.,0.,0.));
#273=DIRECTION('ref_axis',(0.,1.,0.));
#274=DIRECTION('',(0.,-1.,0.));
#275=DIRECTION('',(0.,1.,0.));
#276=DIRECTION('',(0.,0.,-1.));
#277=DIRECTION('center_axis',(0.,-1.,0.));
#278=DIRECTION('ref_axis',(-1.,0.,0.));
#279=DIRECTION('',(1.,0.,0.));
#280=DIRECTION('',(-1.,0.,0.));
#281=DIRECTION('center_axis',(0.,0.,-1.));
#282=DIRECTION('ref_axis',(-1.,0.,0.));
#283=DIRECTION('center_axis',(0.,0.,-1.));
#284=DIRECTION('ref_axis',(-1.,0.,0.));
#285=CARTESIAN_POINT('',(0.,0.,0.));
#286=CARTESIAN_POINT('Origin',(102.937967971578,-10.6372066066299,-7.21538427275354));
#287=CARTESIAN_POINT('',(103.749467971578,-10.6372066066299,-11.2153842727535));
#288=CARTESIAN_POINT('Origin',(102.937967971578,-10.6372066066299,-11.2153842727535));
#289=CARTESIAN_POINT('',(103.749467971578,-10.6372066066299,-10.2153842727535));
#290=CARTESIAN_POINT('',(103.749467971578,-10.6372066066299,-7.21538427275354));
#291=CARTESIAN_POINT('Origin',(102.937967971578,-10.6372066066299,-10.2153842727535));
#292=CARTESIAN_POINT('Origin',(102.896313091567,-0.131836783762291,-8.21538427275354));
#293=CARTESIAN_POINT('',(103.707813091567,-0.131836783762291,-11.2153842727535));
#294=CARTESIAN_POINT('Origin',(102.896313091567,-0.131836783762291,-11.2153842727535));
#295=CARTESIAN_POINT('',(103.707813091567,-0.131836783762291,-10.2153842727535));
#296=CARTESIAN_POINT('',(103.707813091567,-0.131836783762291,-8.21538427275354));
#297=CARTESIAN_POINT('Origin',(102.896313091567,-0.131836783762291,-10.2153842727535));
#298=CARTESIAN_POINT('Origin',(47.4176439649094,-11.4490598465497,-8.21538427275354));
#299=CARTESIAN_POINT('',(48.2291439649094,-11.4490598465497,-11.2153842727535));
#300=CARTESIAN_POINT('Origin',(47.4176439649094,-11.4490598465497,-11.2153842727535));
#301=CARTESIAN_POINT('',(48.2291439649094,-11.4490598465497,-10.2153842727535));
#302=CARTESIAN_POINT('',(48.2291439649094,-11.4490598465497,-8.21538427275354));
#303=CARTESIAN_POINT('Origin',(47.4176439649094,-11.4490598465497,-10.2153842727535));
#304=CARTESIAN_POINT('Origin',(47.1159656051625,1.04670816421744,-9.21538427275354));
#305=CARTESIAN_POINT('',(47.9274656051625,1.04670816421744,-11.2153842727535));
#306=CARTESIAN_POINT('Origin',(47.1159656051625,1.04670816421744,-11.2153842727535));
#307=CARTESIAN_POINT('',(47.9274656051625,1.04670816421744,-10.2153842727535));
#308=CARTESIAN_POINT('',(47.9274656051625,1.04670816421744,-9.21538427275354));
#309=CARTESIAN_POINT('Origin',(47.1159656051625,1.04670816421744,-10.2153842727535));
#310=CARTESIAN_POINT('Origin',(104.999304898058,2.11834291358949,-10.2153842727535));
#311=CARTESIAN_POINT('',(104.999304898058,-12.4349113060816,-10.2153842727535));
#312=CARTESIAN_POINT('',(104.999304898058,2.11834291358949,-10.2153842727535));
#313=CARTESIAN_POINT('',(104.999304898058,-12.4349113060816,-10.2153842727535));
#314=CARTESIAN_POINT('',(104.999304898058,-12.4349113060816,-11.2153842727535));
#315=CARTESIAN_POINT('',(104.999304898058,-12.4349113060816,-10.2153842727535));
#316=CARTESIAN_POINT('',(104.999304898058,2.11834291358949,-11.2153842727535));
#317=CARTESIAN_POINT('',(104.999304898058,-12.4349113060816,-11.2153842727535));
#318=CARTESIAN_POINT('',(104.999304898058,2.11834291358949,-10.2153842727535));
#319=CARTESIAN_POINT('Origin',(45.000697337116,2.11834291358949,-10.2153842727535));
#320=CARTESIAN_POINT('',(45.000697337116,2.11834291358949,-10.2153842727535));
#321=CARTESIAN_POINT('',(104.999304898058,2.11834291358949,-10.2153842727535));
#322=CARTESIAN_POINT('',(45.000697337116,2.11834291358949,-11.2153842727535));
#323=CARTESIAN_POINT('',(104.999304898058,2.11834291358949,-11.2153842727535));
#324=CARTESIAN_POINT('',(45.000697337116,2.11834291358949,-10.2153842727535));
#325=CARTESIAN_POINT('Origin',(45.000697337116,-12.4349113060816,-10.2153842727535));
#326=CARTESIAN_POINT('',(45.000697337116,-12.4349113060816,-10.2153842727535));
#327=CARTESIAN_POINT('',(45.000697337116,2.11834291358949,-10.2153842727535));
#328=CARTESIAN_POINT('',(45.000697337116,-12.4349113060816,-11.2153842727535));
#329=CARTESIAN_POINT('',(45.000697337116,2.11834291358949,-11.2153842727535));
#330=CARTESIAN_POINT('',(45.000697337116,-12.4349113060816,-10.2153842727535));
#331=CARTESIAN_POINT('Origin',(104.999304898058,-12.4349113060816,-10.2153842727535));
#332=CARTESIAN_POINT('',(45.000697337116,-12.4349113060816,-10.2153842727535));
#333=CARTESIAN_POINT('',(45.000697337116,-12.4349113060816,-11.2153842727535));
#334=CARTESIAN_POINT('Origin',(75.0000011175871,-5.15828419624606,-11.2153842727535));
#335=CARTESIAN_POINT('Origin',(75.0000011175871,-5.15828419624606,-10.2153842727535));
#336=UNCERTAINTY_MEASURE_WITH_UNIT(LENGTH_MEASURE(0.01),#340,
'DISTANCE_ACCURACY_VALUE',
'Maximum model space distance between geometric entities at asserted c
onnectivities');
#337=UNCERTAINTY_MEASURE_WITH_UNIT(LENGTH_MEASURE(0.01),#340,
'DISTANCE_ACCURACY_VALUE',
'Maximum model space distance between geometric entities at asserted c
onnectivities');
#338=(
GEOMETRIC_REPRESENTATION_CONTEXT(3)
GLOBAL_UNCERTAINTY_ASSIGNED_CONTEXT((#336))
GLOBAL_UNIT_ASSIGNED_CONTEXT((#340,#342,#343))
REPRESENTATION_CONTEXT('','3D')
);
#339=(
GEOMETRIC_REPRESENTATION_CONTEXT(3)
GLOBAL_UNCERTAINTY_ASSIGNED_CONTEXT((#337))
GLOBAL_UNIT_ASSIGNED_CONTEXT((#340,#342,#343))
REPRESENTATION_CONTEXT('','3D')
);
#340=(
LENGTH_UNIT()
NAMED_UNIT(*)
SI_UNIT(.MILLI.,.METRE.)
);
#341=(
LENGTH_UNIT()
NAMED_UNIT(*)
SI_UNIT($,.METRE.)
);
#342=(
NAMED_UNIT(*)
PLANE_ANGLE_UNIT()
SI_UNIT($,.RADIAN.)
);
#343=(
NAMED_UNIT(*)
SI_UNIT($,.STERADIAN.)
SOLID_ANGLE_UNIT()
);
#344=SHAPE_DEFINITION_REPRESENTATION(#345,#346);
#345=PRODUCT_DEFINITION_SHAPE('',$,#348);
#346=SHAPE_REPRESENTATION('',(#212),#338);
#347=PRODUCT_DEFINITION_CONTEXT('part definition',#352,'design');
#348=PRODUCT_DEFINITION('Case','Case',#349,#347);
#349=PRODUCT_DEFINITION_FORMATION('',$,#354);
#350=PRODUCT_RELATED_PRODUCT_CATEGORY('Case','Case',(#354));
#351=APPLICATION_PROTOCOL_DEFINITION('international standard',
'automotive_design',2009,#352);
#352=APPLICATION_CONTEXT(
'Core Data for Automotive Mechanical Design Process');
#353=PRODUCT_CONTEXT('part definition',#352,'mechanical');
#354=PRODUCT('Case','Case',$,(#353));
#355=PRESENTATION_STYLE_ASSIGNMENT((#378));
#356=PRESENTATION_STYLE_ASSIGNMENT((#379));
#357=PRESENTATION_STYLE_ASSIGNMENT((#380));
#358=PRESENTATION_STYLE_ASSIGNMENT((#381));
#359=PRESENTATION_STYLE_ASSIGNMENT((#382));
#360=PRESENTATION_STYLE_ASSIGNMENT((#383));
#361=PRESENTATION_STYLE_ASSIGNMENT((#384));
#362=PRESENTATION_STYLE_ASSIGNMENT((#385));
#363=PRESENTATION_STYLE_ASSIGNMENT((#386));
#364=PRESENTATION_STYLE_ASSIGNMENT((#387));
#365=PRESENTATION_STYLE_ASSIGNMENT((#388));
#366=PRESENTATION_STYLE_ASSIGNMENT((#389));
#367=PRESENTATION_STYLE_ASSIGNMENT((#390));
#368=PRESENTATION_STYLE_ASSIGNMENT((#391));
#369=PRESENTATION_STYLE_ASSIGNMENT((#392));
#370=PRESENTATION_STYLE_ASSIGNMENT((#393));
#371=PRESENTATION_STYLE_ASSIGNMENT((#394));
#372=PRESENTATION_STYLE_ASSIGNMENT((#395));
#373=PRESENTATION_STYLE_ASSIGNMENT((#396));
#374=PRESENTATION_STYLE_ASSIGNMENT((#397));
#375=PRESENTATION_STYLE_ASSIGNMENT((#398));
#376=PRESENTATION_STYLE_ASSIGNMENT((#399));
#377=PRESENTATION_STYLE_ASSIGNMENT((#400));
#378=SURFACE_STYLE_USAGE(.BOTH.,#401);
#379=SURFACE_STYLE_USAGE(.BOTH.,#402);
#380=SURFACE_STYLE_USAGE(.BOTH.,#403);
#381=SURFACE_STYLE_USAGE(.BOTH.,#404);
#382=SURFACE_STYLE_USAGE(.BOTH.,#405);
#383=SURFACE_STYLE_USAGE(.BOTH.,#406);
#384=SURFACE_STYLE_USAGE(.BOTH.,#407);
#385=SURFACE_STYLE_USAGE(.BOTH.,#408);
#386=SURFACE_STYLE_USAGE(.BOTH.,#409);
#387=SURFACE_STYLE_USAGE(.BOTH.,#410);
#388=SURFACE_STYLE_USAGE(.BOTH.,#411);
#389=SURFACE_STYLE_USAGE(.BOTH.,#412);
#390=SURFACE_STYLE_USAGE(.BOTH.,#413);
#391=SURFACE_STYLE_USAGE(.BOTH.,#414);
#392=SURFACE_STYLE_USAGE(.BOTH.,#415);
#393=SURFACE_STYLE_USAGE(.BOTH.,#416);
#394=SURFACE_STYLE_USAGE(.BOTH.,#417);
#395=SURFACE_STYLE_USAGE(.BOTH.,#418);
#396=SURFACE_STYLE_USAGE(.BOTH.,#419);
#397=SURFACE_STYLE_USAGE(.BOTH.,#420);
#398=SURFACE_STYLE_USAGE(.BOTH.,#421);
#399=SURFACE_STYLE_USAGE(.BOTH.,#422);
#400=SURFACE_STYLE_USAGE(.BOTH.,#423);
#401=SURFACE_SIDE_STYLE('',(#424));
#402=SURFACE_SIDE_STYLE('',(#425));
#403=SURFACE_SIDE_STYLE('',(#426));
#404=SURFACE_SIDE_STYLE('',(#427));
#405=SURFACE_SIDE_STYLE('',(#428));
#406=SURFACE_SIDE_STYLE('',(#429));
#407=SURFACE_SIDE_STYLE('',(#430));
#408=SURFACE_SIDE_STYLE('',(#431));
#409=SURFACE_SIDE_STYLE('',(#432));
#410=SURFACE_SIDE_STYLE('',(#433));
#411=SURFACE_SIDE_STYLE('',(#434));
#412=SURFACE_SIDE_STYLE('',(#435));
#413=SURFACE_SIDE_STYLE('',(#436));
#414=SURFACE_SIDE_STYLE('',(#437));
#415=SURFACE_SIDE_STYLE('',(#438));
#416=SURFACE_SIDE_STYLE('',(#439));
#417=SURFACE_SIDE_STYLE('',(#440));
#418=SURFACE_SIDE_STYLE('',(#441));
#419=SURFACE_SIDE_STYLE('',(#442));
#420=SURFACE_SIDE_STYLE('',(#443));
#421=SURFACE_SIDE_STYLE('',(#444));
#422=SURFACE_SIDE_STYLE('',(#445));
#423=SURFACE_SIDE_STYLE('',(#446));
#424=SURFACE_STYLE_FILL_AREA(#447);
#425=SURFACE_STYLE_FILL_AREA(#448);
#426=SURFACE_STYLE_FILL_AREA(#449);
#427=SURFACE_STYLE_FILL_AREA(#450);
#428=SURFACE_STYLE_FILL_AREA(#451);
#429=SURFACE_STYLE_FILL_AREA(#452);
#430=SURFACE_STYLE_FILL_AREA(#453);
#431=SURFACE_STYLE_FILL_AREA(#454);
#432=SURFACE_STYLE_FILL_AREA(#455);
#433=SURFACE_STYLE_FILL_AREA(#456);
#434=SURFACE_STYLE_FILL_AREA(#457);
#435=SURFACE_STYLE_FILL_AREA(#458);
#436=SURFACE_STYLE_FILL_AREA(#459);
#437=SURFACE_STYLE_FILL_AREA(#460);
#438=SURFACE_STYLE_FILL_AREA(#461);
#439=SURFACE_STYLE_FILL_AREA(#462);
#440=SURFACE_STYLE_FILL_AREA(#463);
#441=SURFACE_STYLE_FILL_AREA(#464);
#442=SURFACE_STYLE_FILL_AREA(#465);
#443=SURFACE_STYLE_FILL_AREA(#466);
#444=SURFACE_STYLE_FILL_AREA(#467);
#445=SURFACE_STYLE_FILL_AREA(#468);
#446=SURFACE_STYLE_FILL_AREA(#469);
#447=FILL_AREA_STYLE('Steel - Satin',(#470));
#448=FILL_AREA_STYLE('Opaque(255,255,255)',(#471));
#449=FILL_AREA_STYLE('Opaque(0,64,191)',(#472));
#450=FILL_AREA_STYLE('Opaque(51,51,51)',(#473));
#451=FILL_AREA_STYLE('Opaque(63,63,63)',(#474));
#452=FILL_AREA_STYLE('Opaque(129,136,140)',(#475));
#453=FILL_AREA_STYLE('Opaque(178,178,178)',(#476));
#454=FILL_AREA_STYLE('Opaque(189,189,189)',(#477));
#455=FILL_AREA_STYLE('Opaque(138,152,191)',(#478));
#456=FILL_AREA_STYLE('Opaque(204,170,82)',(#479));
#457=FILL_AREA_STYLE('Opaque(150,112,0)',(#480));
#458=FILL_AREA_STYLE('Opaque(255,191,0)',(#481));
#459=FILL_AREA_STYLE('Opaque(0,155,0)',(#482));
#460=FILL_AREA_STYLE('Opaque(161,148,27)',(#483));
#461=FILL_AREA_STYLE('Opaque(160,228,105)',(#484));
#462=FILL_AREA_STYLE('Opaque(0,154,0)',(#485));
#463=FILL_AREA_STYLE('Opaque(230,230,230)',(#486));
#464=FILL_AREA_STYLE('Opaque(28,28,28)',(#487));
#465=FILL_AREA_STYLE('Opaque(183,176,140)',(#488));
#466=FILL_AREA_STYLE('Opaque(182,176,140)',(#489));
#467=FILL_AREA_STYLE('Opaque(158,104,51)',(#490));
#468=FILL_AREA_STYLE('Opaque(127,127,127)',(#491));
#469=FILL_AREA_STYLE('Opaque(198,193,188)',(#492));
#470=FILL_AREA_STYLE_COLOUR('Steel - Satin',#493);
#471=FILL_AREA_STYLE_COLOUR('Opaque(255,255,255)',#494);
#472=FILL_AREA_STYLE_COLOUR('Opaque(0,64,191)',#495);
#473=FILL_AREA_STYLE_COLOUR('Opaque(51,51,51)',#496);
#474=FILL_AREA_STYLE_COLOUR('Opaque(63,63,63)',#497);
#475=FILL_AREA_STYLE_COLOUR('Opaque(129,136,140)',#498);
#476=FILL_AREA_STYLE_COLOUR('Opaque(178,178,178)',#499);
#477=FILL_AREA_STYLE_COLOUR('Opaque(189,189,189)',#500);
#478=FILL_AREA_STYLE_COLOUR('Opaque(138,152,191)',#501);
#479=FILL_AREA_STYLE_COLOUR('Opaque(204,170,82)',#502);
#480=FILL_AREA_STYLE_COLOUR('Opaque(150,112,0)',#503);
#481=FILL_AREA_STYLE_COLOUR('Opaque(255,191,0)',#504);
#482=FILL_AREA_STYLE_COLOUR('Opaque(0,155,0)',#505);
#483=FILL_AREA_STYLE_COLOUR('Opaque(161,148,27)',#506);
#484=FILL_AREA_STYLE_COLOUR('Opaque(160,228,105)',#507);
#485=FILL_AREA_STYLE_COLOUR('Opaque(0,154,0)',#508);
#486=FILL_AREA_STYLE_COLOUR('Opaque(230,230,230)',#509);
#487=FILL_AREA_STYLE_COLOUR('Opaque(28,28,28)',#510);
#488=FILL_AREA_STYLE_COLOUR('Opaque(183,176,140)',#511);
#489=FILL_AREA_STYLE_COLOUR('Opaque(182,176,140)',#512);
#490=FILL_AREA_STYLE_COLOUR('Opaque(158,104,51)',#513);
#491=FILL_AREA_STYLE_COLOUR('Opaque(127,127,127)',#514);
#492=FILL_AREA_STYLE_COLOUR('Opaque(198,193,188)',#515);
#493=COLOUR_RGB('Steel - Satin',0.627450980392157,0.627450980392157,0.627450980392157);
#494=COLOUR_RGB('Opaque(255,255,255)',1.,1.,1.);
#495=COLOUR_RGB('Opaque(0,64,191)',0.,0.250980392156863,0.749019607843137);
#496=COLOUR_RGB('Opaque(51,51,51)',0.2,0.2,0.2);
#497=COLOUR_RGB('Opaque(63,63,63)',0.250980392156863,0.250980392156863,
0.250980392156863);
#498=COLOUR_RGB('Opaque(129,136,140)',0.505882352941176,0.533333333333333,
0.549019607843137);
#499=COLOUR_RGB('Opaque(178,178,178)',0.698039215686274,0.698039215686274,
0.698039215686274);
#500=COLOUR_RGB('Opaque(189,189,189)',0.741176470588235,0.741176470588235,
0.741176470588235);
#501=COLOUR_RGB('Opaque(138,152,191)',0.541176470588235,0.596078431372549,
0.749019607843137);
#502=COLOUR_RGB('Opaque(204,170,82)',0.8,0.666666666666667,0.32156862745098);
#503=COLOUR_RGB('Opaque(150,112,0)',0.588235294117647,0.43921568627451,
0.);
#504=COLOUR_RGB('Opaque(255,191,0)',1.,0.749019607843137,0.);
#505=COLOUR_RGB('Opaque(0,155,0)',0.,0.607843137254902,0.);
#506=COLOUR_RGB('Opaque(161,148,27)',0.631372549019608,0.580392156862745,
0.105882352941176);
#507=COLOUR_RGB('Opaque(160,228,105)',0.627450980392157,0.894117647058824,
0.411764705882353);
#508=COLOUR_RGB('Opaque(0,154,0)',0.,0.603921568627451,0.);
#509=COLOUR_RGB('Opaque(230,230,230)',0.901960784313726,0.901960784313726,
0.901960784313726);
#510=COLOUR_RGB('Opaque(28,28,28)',0.109803921568627,0.109803921568627,
0.109803921568627);
#511=COLOUR_RGB('Opaque(183,176,140)',0.717647058823529,0.690196078431373,
0.549019607843137);
#512=COLOUR_RGB('Opaque(182,176,140)',0.713725490196078,0.690196078431373,
0.549019607843137);
#513=COLOUR_RGB('Opaque(158,104,51)',0.619607843137255,0.407843137254902,
0.2);
#514=COLOUR_RGB('Opaque(127,127,127)',0.498039215686275,0.498039215686275,
0.498039215686275);
#515=COLOUR_RGB('Opaque(198,193,188)',0.776470588235294,0.756862745098039,
0.737254901960784);
ENDSEC;
END-ISO-10303-21;
