ISO-10303-21;
HEADER;
/* Generated by software containing ST-Developer
 * from STEP Tools, Inc. (www.steptools.com) 
 */

FILE_DESCRIPTION(
/* description */ (''),
/* implementation_level */ '2;1');

FILE_NAME(
/* name */ 'Screen Plate.step',
/* time_stamp */ '2026-09-12T14:08:17-05:00',
/* author */ (''),
/* organization */ (''),
/* preprocessor_version */ 'ST-DEVELOPER v20.1',
/* originating_system */ 'Autodesk Translation Framework v15.8.0.0',
/* authorisation */ '');

FILE_SCHEMA (('AUTOMOTIVE_DESIGN { 1 0 10303 214 3 1 1 }'));
ENDSEC;

DATA;
#10=MECHANICAL_DESIGN_GEOMETRIC_PRESENTATION_REPRESENTATION('',(#13),#1179);
#11=SHAPE_REPRESENTATION_RELATIONSHIP('SRR','None',#1186,#12);
#12=ADVANCED_BREP_SHAPE_REPRESENTATION('',(#14),#1178);
#13=STYLED_ITEM('',(#1195),#14);
#14=MANIFOLD_SOLID_BREP('Body265',#727);
#15=FACE_BOUND('',#114,.T.);
#16=FACE_BOUND('',#115,.T.);
#17=FACE_BOUND('',#116,.T.);
#18=FACE_BOUND('',#123,.T.);
#19=FACE_BOUND('',#129,.T.);
#20=FACE_BOUND('',#135,.T.);
#21=FACE_BOUND('',#136,.T.);
#22=FACE_BOUND('',#144,.T.);
#23=PLANE('',#747);
#24=PLANE('',#751);
#25=PLANE('',#755);
#26=PLANE('',#756);
#27=PLANE('',#757);
#28=PLANE('',#758);
#29=PLANE('',#759);
#30=PLANE('',#760);
#31=PLANE('',#761);
#32=PLANE('',#762);
#33=PLANE('',#763);
#34=PLANE('',#764);
#35=PLANE('',#765);
#36=PLANE('',#766);
#37=PLANE('',#767);
#38=PLANE('',#768);
#39=PLANE('',#769);
#40=PLANE('',#770);
#41=PLANE('',#771);
#42=PLANE('',#772);
#43=PLANE('',#773);
#44=PLANE('',#774);
#45=PLANE('',#775);
#46=PLANE('',#776);
#47=PLANE('',#777);
#48=PLANE('',#778);
#49=PLANE('',#779);
#50=PLANE('',#780);
#51=PLANE('',#781);
#52=PLANE('',#782);
#53=PLANE('',#783);
#54=PLANE('',#784);
#55=PLANE('',#785);
#56=PLANE('',#786);
#57=PLANE('',#787);
#58=PLANE('',#788);
#59=FACE_OUTER_BOUND('',#99,.T.);
#60=FACE_OUTER_BOUND('',#100,.T.);
#61=FACE_OUTER_BOUND('',#101,.T.);
#62=FACE_OUTER_BOUND('',#102,.T.);
#63=FACE_OUTER_BOUND('',#103,.T.);
#64=FACE_OUTER_BOUND('',#104,.T.);
#65=FACE_OUTER_BOUND('',#105,.T.);
#66=FACE_OUTER_BOUND('',#106,.T.);
#67=FACE_OUTER_BOUND('',#107,.T.);
#68=FACE_OUTER_BOUND('',#108,.T.);
#69=FACE_OUTER_BOUND('',#109,.T.);
#70=FACE_OUTER_BOUND('',#110,.T.);
#71=FACE_OUTER_BOUND('',#111,.T.);
#72=FACE_OUTER_BOUND('',#112,.T.);
#73=FACE_OUTER_BOUND('',#113,.T.);
#74=FACE_OUTER_BOUND('',#117,.T.);
#75=FACE_OUTER_BOUND('',#118,.T.);
#76=FACE_OUTER_BOUND('',#119,.T.);
#77=FACE_OUTER_BOUND('',#120,.T.);
#78=FACE_OUTER_BOUND('',#121,.T.);
#79=FACE_OUTER_BOUND('',#122,.T.);
#80=FACE_OUTER_BOUND('',#124,.T.);
#81=FACE_OUTER_BOUND('',#125,.T.);
#82=FACE_OUTER_BOUND('',#126,.T.);
#83=FACE_OUTER_BOUND('',#127,.T.);
#84=FACE_OUTER_BOUND('',#128,.T.);
#85=FACE_OUTER_BOUND('',#130,.T.);
#86=FACE_OUTER_BOUND('',#131,.T.);
#87=FACE_OUTER_BOUND('',#132,.T.);
#88=FACE_OUTER_BOUND('',#133,.T.);
#89=FACE_OUTER_BOUND('',#134,.T.);
#90=FACE_OUTER_BOUND('',#137,.T.);
#91=FACE_OUTER_BOUND('',#138,.T.);
#92=FACE_OUTER_BOUND('',#139,.T.);
#93=FACE_OUTER_BOUND('',#140,.T.);
#94=FACE_OUTER_BOUND('',#141,.T.);
#95=FACE_OUTER_BOUND('',#142,.T.);
#96=FACE_OUTER_BOUND('',#143,.T.);
#97=FACE_OUTER_BOUND('',#145,.T.);
#98=FACE_OUTER_BOUND('',#146,.T.);
#99=EDGE_LOOP('',(#491,#492,#493,#494));
#100=EDGE_LOOP('',(#495,#496,#497,#498));
#101=EDGE_LOOP('',(#499));
#102=EDGE_LOOP('',(#500,#501,#502,#503));
#103=EDGE_LOOP('',(#504));
#104=EDGE_LOOP('',(#505,#506,#507,#508));
#105=EDGE_LOOP('',(#509));
#106=EDGE_LOOP('',(#510,#511,#512,#513));
#107=EDGE_LOOP('',(#514,#515,#516,#517));
#108=EDGE_LOOP('',(#518,#519,#520,#521));
#109=EDGE_LOOP('',(#522,#523,#524,#525));
#110=EDGE_LOOP('',(#526,#527,#528,#529));
#111=EDGE_LOOP('',(#530,#531,#532,#533));
#112=EDGE_LOOP('',(#534,#535,#536,#537));
#113=EDGE_LOOP('',(#538,#539,#540,#541,#542,#543,#544,#545,#546,#547,#548,
#549,#550,#551,#552,#553));
#114=EDGE_LOOP('',(#554,#555,#556,#557));
#115=EDGE_LOOP('',(#558,#559,#560,#561));
#116=EDGE_LOOP('',(#562,#563,#564,#565));
#117=EDGE_LOOP('',(#566,#567,#568,#569));
#118=EDGE_LOOP('',(#570,#571,#572,#573));
#119=EDGE_LOOP('',(#574,#575,#576,#577));
#120=EDGE_LOOP('',(#578,#579,#580,#581));
#121=EDGE_LOOP('',(#582,#583,#584,#585));
#122=EDGE_LOOP('',(#586,#587,#588,#589));
#123=EDGE_LOOP('',(#590));
#124=EDGE_LOOP('',(#591,#592,#593,#594));
#125=EDGE_LOOP('',(#595,#596,#597,#598));
#126=EDGE_LOOP('',(#599,#600,#601,#602));
#127=EDGE_LOOP('',(#603,#604,#605,#606));
#128=EDGE_LOOP('',(#607,#608,#609,#610));
#129=EDGE_LOOP('',(#611));
#130=EDGE_LOOP('',(#612,#613,#614,#615));
#131=EDGE_LOOP('',(#616,#617,#618,#619));
#132=EDGE_LOOP('',(#620,#621,#622,#623));
#133=EDGE_LOOP('',(#624,#625,#626,#627));
#134=EDGE_LOOP('',(#628,#629,#630,#631));
#135=EDGE_LOOP('',(#632));
#136=EDGE_LOOP('',(#633));
#137=EDGE_LOOP('',(#634,#635,#636,#637));
#138=EDGE_LOOP('',(#638,#639,#640,#641));
#139=EDGE_LOOP('',(#642,#643,#644,#645));
#140=EDGE_LOOP('',(#646,#647,#648,#649));
#141=EDGE_LOOP('',(#650,#651,#652,#653));
#142=EDGE_LOOP('',(#654,#655,#656,#657));
#143=EDGE_LOOP('',(#658,#659,#660,#661,#662,#663,#664,#665,#666,#667,#668,
#669,#670,#671,#672,#673));
#144=EDGE_LOOP('',(#674));
#145=EDGE_LOOP('',(#675,#676,#677,#678));
#146=EDGE_LOOP('',(#679,#680,#681,#682));
#147=LINE('',#980,#235);
#148=LINE('',#986,#236);
#149=LINE('',#993,#237);
#150=LINE('',#1000,#238);
#151=LINE('',#1006,#239);
#152=LINE('',#1008,#240);
#153=LINE('',#1010,#241);
#154=LINE('',#1011,#242);
#155=LINE('',#1015,#243);
#156=LINE('',#1017,#244);
#157=LINE('',#1019,#245);
#158=LINE('',#1020,#246);
#159=LINE('',#1024,#247);
#160=LINE('',#1026,#248);
#161=LINE('',#1028,#249);
#162=LINE('',#1029,#250);
#163=LINE('',#1033,#251);
#164=LINE('',#1035,#252);
#165=LINE('',#1037,#253);
#166=LINE('',#1038,#254);
#167=LINE('',#1041,#255);
#168=LINE('',#1043,#256);
#169=LINE('',#1044,#257);
#170=LINE('',#1047,#258);
#171=LINE('',#1049,#259);
#172=LINE('',#1050,#260);
#173=LINE('',#1053,#261);
#174=LINE('',#1055,#262);
#175=LINE('',#1056,#263);
#176=LINE('',#1059,#264);
#177=LINE('',#1060,#265);
#178=LINE('',#1061,#266);
#179=LINE('',#1063,#267);
#180=LINE('',#1065,#268);
#181=LINE('',#1066,#269);
#182=LINE('',#1068,#270);
#183=LINE('',#1070,#271);
#184=LINE('',#1071,#272);
#185=LINE('',#1074,#273);
#186=LINE('',#1076,#274);
#187=LINE('',#1078,#275);
#188=LINE('',#1079,#276);
#189=LINE('',#1082,#277);
#190=LINE('',#1084,#278);
#191=LINE('',#1086,#279);
#192=LINE('',#1087,#280);
#193=LINE('',#1090,#281);
#194=LINE('',#1092,#282);
#195=LINE('',#1094,#283);
#196=LINE('',#1095,#284);
#197=LINE('',#1098,#285);
#198=LINE('',#1099,#286);
#199=LINE('',#1102,#287);
#200=LINE('',#1104,#288);
#201=LINE('',#1105,#289);
#202=LINE('',#1108,#290);
#203=LINE('',#1109,#291);
#204=LINE('',#1112,#292);
#205=LINE('',#1113,#293);
#206=LINE('',#1115,#294);
#207=LINE('',#1119,#295);
#208=LINE('',#1121,#296);
#209=LINE('',#1122,#297);
#210=LINE('',#1125,#298);
#211=LINE('',#1126,#299);
#212=LINE('',#1129,#300);
#213=LINE('',#1130,#301);
#214=LINE('',#1132,#302);
#215=LINE('',#1136,#303);
#216=LINE('',#1138,#304);
#217=LINE('',#1139,#305);
#218=LINE('',#1142,#306);
#219=LINE('',#1143,#307);
#220=LINE('',#1146,#308);
#221=LINE('',#1147,#309);
#222=LINE('',#1149,#310);
#223=LINE('',#1152,#311);
#224=LINE('',#1155,#312);
#225=LINE('',#1156,#313);
#226=LINE('',#1158,#314);
#227=LINE('',#1161,#315);
#228=LINE('',#1162,#316);
#229=LINE('',#1164,#317);
#230=LINE('',#1167,#318);
#231=LINE('',#1168,#319);
#232=LINE('',#1171,#320);
#233=LINE('',#1172,#321);
#234=LINE('',#1174,#322);
#235=VECTOR('',#795,0.8115);
#236=VECTOR('',#802,0.8115);
#237=VECTOR('',#811,0.8115);
#238=VECTOR('',#820,0.8115);
#239=VECTOR('',#827,10.);
#240=VECTOR('',#828,10.);
#241=VECTOR('',#829,10.);
#242=VECTOR('',#830,10.);
#243=VECTOR('',#833,10.);
#244=VECTOR('',#834,10.);
#245=VECTOR('',#835,10.);
#246=VECTOR('',#836,10.);
#247=VECTOR('',#839,10.);
#248=VECTOR('',#840,10.);
#249=VECTOR('',#841,10.);
#250=VECTOR('',#842,10.);
#251=VECTOR('',#845,10.);
#252=VECTOR('',#846,10.);
#253=VECTOR('',#847,10.);
#254=VECTOR('',#848,10.);
#255=VECTOR('',#851,10.);
#256=VECTOR('',#852,10.);
#257=VECTOR('',#853,10.);
#258=VECTOR('',#856,10.);
#259=VECTOR('',#857,10.);
#260=VECTOR('',#858,10.);
#261=VECTOR('',#861,10.);
#262=VECTOR('',#862,10.);
#263=VECTOR('',#863,10.);
#264=VECTOR('',#866,10.);
#265=VECTOR('',#867,10.);
#266=VECTOR('',#868,10.);
#267=VECTOR('',#869,10.);
#268=VECTOR('',#870,10.);
#269=VECTOR('',#871,10.);
#270=VECTOR('',#872,10.);
#271=VECTOR('',#873,10.);
#272=VECTOR('',#874,10.);
#273=VECTOR('',#875,10.);
#274=VECTOR('',#876,10.);
#275=VECTOR('',#877,10.);
#276=VECTOR('',#878,10.);
#277=VECTOR('',#879,10.);
#278=VECTOR('',#880,10.);
#279=VECTOR('',#881,10.);
#280=VECTOR('',#882,10.);
#281=VECTOR('',#883,10.);
#282=VECTOR('',#884,10.);
#283=VECTOR('',#885,10.);
#284=VECTOR('',#886,10.);
#285=VECTOR('',#889,10.);
#286=VECTOR('',#890,10.);
#287=VECTOR('',#893,10.);
#288=VECTOR('',#894,10.);
#289=VECTOR('',#895,10.);
#290=VECTOR('',#898,10.);
#291=VECTOR('',#899,10.);
#292=VECTOR('',#902,10.);
#293=VECTOR('',#903,10.);
#294=VECTOR('',#906,10.);
#295=VECTOR('',#911,10.);
#296=VECTOR('',#912,10.);
#297=VECTOR('',#913,10.);
#298=VECTOR('',#916,10.);
#299=VECTOR('',#917,10.);
#300=VECTOR('',#920,10.);
#301=VECTOR('',#921,10.);
#302=VECTOR('',#924,10.);
#303=VECTOR('',#929,10.);
#304=VECTOR('',#930,10.);
#305=VECTOR('',#931,10.);
#306=VECTOR('',#934,10.);
#307=VECTOR('',#935,10.);
#308=VECTOR('',#938,10.);
#309=VECTOR('',#939,10.);
#310=VECTOR('',#942,10.);
#311=VECTOR('',#947,10.);
#312=VECTOR('',#950,10.);
#313=VECTOR('',#951,10.);
#314=VECTOR('',#954,10.);
#315=VECTOR('',#957,10.);
#316=VECTOR('',#958,10.);
#317=VECTOR('',#961,10.);
#318=VECTOR('',#964,10.);
#319=VECTOR('',#965,10.);
#320=VECTOR('',#968,10.);
#321=VECTOR('',#969,10.);
#322=VECTOR('',#972,10.);
#323=CIRCLE('',#742,0.8115);
#324=CIRCLE('',#743,0.8115);
#325=CIRCLE('',#745,0.8115);
#326=CIRCLE('',#746,0.8115);
#327=CIRCLE('',#749,0.8115);
#328=CIRCLE('',#750,0.8115);
#329=CIRCLE('',#753,0.8115);
#330=CIRCLE('',#754,0.8115);
#331=VERTEX_POINT('',#977);
#332=VERTEX_POINT('',#979);
#333=VERTEX_POINT('',#983);
#334=VERTEX_POINT('',#985);
#335=VERTEX_POINT('',#990);
#336=VERTEX_POINT('',#992);
#337=VERTEX_POINT('',#997);
#338=VERTEX_POINT('',#999);
#339=VERTEX_POINT('',#1004);
#340=VERTEX_POINT('',#1005);
#341=VERTEX_POINT('',#1007);
#342=VERTEX_POINT('',#1009);
#343=VERTEX_POINT('',#1013);
#344=VERTEX_POINT('',#1014);
#345=VERTEX_POINT('',#1016);
#346=VERTEX_POINT('',#1018);
#347=VERTEX_POINT('',#1022);
#348=VERTEX_POINT('',#1023);
#349=VERTEX_POINT('',#1025);
#350=VERTEX_POINT('',#1027);
#351=VERTEX_POINT('',#1031);
#352=VERTEX_POINT('',#1032);
#353=VERTEX_POINT('',#1034);
#354=VERTEX_POINT('',#1036);
#355=VERTEX_POINT('',#1040);
#356=VERTEX_POINT('',#1042);
#357=VERTEX_POINT('',#1046);
#358=VERTEX_POINT('',#1048);
#359=VERTEX_POINT('',#1052);
#360=VERTEX_POINT('',#1054);
#361=VERTEX_POINT('',#1058);
#362=VERTEX_POINT('',#1062);
#363=VERTEX_POINT('',#1064);
#364=VERTEX_POINT('',#1067);
#365=VERTEX_POINT('',#1069);
#366=VERTEX_POINT('',#1072);
#367=VERTEX_POINT('',#1073);
#368=VERTEX_POINT('',#1075);
#369=VERTEX_POINT('',#1077);
#370=VERTEX_POINT('',#1080);
#371=VERTEX_POINT('',#1081);
#372=VERTEX_POINT('',#1083);
#373=VERTEX_POINT('',#1085);
#374=VERTEX_POINT('',#1088);
#375=VERTEX_POINT('',#1089);
#376=VERTEX_POINT('',#1091);
#377=VERTEX_POINT('',#1093);
#378=VERTEX_POINT('',#1097);
#379=VERTEX_POINT('',#1101);
#380=VERTEX_POINT('',#1103);
#381=VERTEX_POINT('',#1107);
#382=VERTEX_POINT('',#1111);
#383=VERTEX_POINT('',#1118);
#384=VERTEX_POINT('',#1120);
#385=VERTEX_POINT('',#1124);
#386=VERTEX_POINT('',#1128);
#387=VERTEX_POINT('',#1135);
#388=VERTEX_POINT('',#1137);
#389=VERTEX_POINT('',#1141);
#390=VERTEX_POINT('',#1145);
#391=VERTEX_POINT('',#1154);
#392=VERTEX_POINT('',#1160);
#393=VERTEX_POINT('',#1166);
#394=VERTEX_POINT('',#1170);
#395=EDGE_CURVE('',#331,#331,#323,.T.);
#396=EDGE_CURVE('',#331,#332,#147,.T.);
#397=EDGE_CURVE('',#332,#332,#324,.T.);
#398=EDGE_CURVE('',#333,#333,#325,.T.);
#399=EDGE_CURVE('',#333,#334,#148,.T.);
#400=EDGE_CURVE('',#334,#334,#326,.T.);
#401=EDGE_CURVE('',#335,#335,#327,.T.);
#402=EDGE_CURVE('',#335,#336,#149,.T.);
#403=EDGE_CURVE('',#336,#336,#328,.T.);
#404=EDGE_CURVE('',#337,#337,#329,.T.);
#405=EDGE_CURVE('',#337,#338,#150,.T.);
#406=EDGE_CURVE('',#338,#338,#330,.T.);
#407=EDGE_CURVE('',#339,#340,#151,.T.);
#408=EDGE_CURVE('',#341,#339,#152,.T.);
#409=EDGE_CURVE('',#342,#341,#153,.T.);
#410=EDGE_CURVE('',#340,#342,#154,.T.);
#411=EDGE_CURVE('',#343,#344,#155,.T.);
#412=EDGE_CURVE('',#345,#343,#156,.T.);
#413=EDGE_CURVE('',#346,#345,#157,.T.);
#414=EDGE_CURVE('',#344,#346,#158,.T.);
#415=EDGE_CURVE('',#347,#348,#159,.T.);
#416=EDGE_CURVE('',#349,#347,#160,.T.);
#417=EDGE_CURVE('',#350,#349,#161,.T.);
#418=EDGE_CURVE('',#348,#350,#162,.T.);
#419=EDGE_CURVE('',#351,#352,#163,.T.);
#420=EDGE_CURVE('',#353,#351,#164,.T.);
#421=EDGE_CURVE('',#354,#353,#165,.T.);
#422=EDGE_CURVE('',#352,#354,#166,.T.);
#423=EDGE_CURVE('',#355,#340,#167,.T.);
#424=EDGE_CURVE('',#355,#356,#168,.T.);
#425=EDGE_CURVE('',#339,#356,#169,.T.);
#426=EDGE_CURVE('',#357,#344,#170,.T.);
#427=EDGE_CURVE('',#357,#358,#171,.T.);
#428=EDGE_CURVE('',#343,#358,#172,.T.);
#429=EDGE_CURVE('',#359,#348,#173,.T.);
#430=EDGE_CURVE('',#360,#359,#174,.T.);
#431=EDGE_CURVE('',#347,#360,#175,.T.);
#432=EDGE_CURVE('',#356,#361,#176,.T.);
#433=EDGE_CURVE('',#361,#345,#177,.T.);
#434=EDGE_CURVE('',#358,#359,#178,.T.);
#435=EDGE_CURVE('',#350,#362,#179,.T.);
#436=EDGE_CURVE('',#362,#363,#180,.T.);
#437=EDGE_CURVE('',#363,#353,#181,.T.);
#438=EDGE_CURVE('',#351,#364,#182,.T.);
#439=EDGE_CURVE('',#364,#365,#183,.T.);
#440=EDGE_CURVE('',#365,#341,#184,.T.);
#441=EDGE_CURVE('',#366,#367,#185,.T.);
#442=EDGE_CURVE('',#367,#368,#186,.T.);
#443=EDGE_CURVE('',#368,#369,#187,.T.);
#444=EDGE_CURVE('',#369,#366,#188,.T.);
#445=EDGE_CURVE('',#370,#371,#189,.T.);
#446=EDGE_CURVE('',#371,#372,#190,.T.);
#447=EDGE_CURVE('',#372,#373,#191,.T.);
#448=EDGE_CURVE('',#373,#370,#192,.T.);
#449=EDGE_CURVE('',#374,#375,#193,.T.);
#450=EDGE_CURVE('',#375,#376,#194,.T.);
#451=EDGE_CURVE('',#376,#377,#195,.T.);
#452=EDGE_CURVE('',#377,#374,#196,.T.);
#453=EDGE_CURVE('',#378,#352,#197,.T.);
#454=EDGE_CURVE('',#378,#364,#198,.T.);
#455=EDGE_CURVE('',#379,#375,#199,.T.);
#456=EDGE_CURVE('',#379,#380,#200,.T.);
#457=EDGE_CURVE('',#380,#376,#201,.T.);
#458=EDGE_CURVE('',#381,#374,#202,.T.);
#459=EDGE_CURVE('',#381,#379,#203,.T.);
#460=EDGE_CURVE('',#382,#377,#204,.T.);
#461=EDGE_CURVE('',#382,#381,#205,.T.);
#462=EDGE_CURVE('',#380,#382,#206,.T.);
#463=EDGE_CURVE('',#383,#371,#207,.T.);
#464=EDGE_CURVE('',#383,#384,#208,.T.);
#465=EDGE_CURVE('',#384,#372,#209,.T.);
#466=EDGE_CURVE('',#385,#370,#210,.T.);
#467=EDGE_CURVE('',#383,#385,#211,.T.);
#468=EDGE_CURVE('',#386,#373,#212,.T.);
#469=EDGE_CURVE('',#386,#385,#213,.T.);
#470=EDGE_CURVE('',#384,#386,#214,.T.);
#471=EDGE_CURVE('',#387,#367,#215,.T.);
#472=EDGE_CURVE('',#387,#388,#216,.T.);
#473=EDGE_CURVE('',#388,#368,#217,.T.);
#474=EDGE_CURVE('',#389,#366,#218,.T.);
#475=EDGE_CURVE('',#389,#387,#219,.T.);
#476=EDGE_CURVE('',#390,#369,#220,.T.);
#477=EDGE_CURVE('',#390,#389,#221,.T.);
#478=EDGE_CURVE('',#388,#390,#222,.T.);
#479=EDGE_CURVE('',#360,#357,#223,.T.);
#480=EDGE_CURVE('',#391,#361,#224,.T.);
#481=EDGE_CURVE('',#346,#391,#225,.T.);
#482=EDGE_CURVE('',#391,#355,#226,.T.);
#483=EDGE_CURVE('',#392,#365,#227,.T.);
#484=EDGE_CURVE('',#342,#392,#228,.T.);
#485=EDGE_CURVE('',#392,#378,#229,.T.);
#486=EDGE_CURVE('',#393,#363,#230,.T.);
#487=EDGE_CURVE('',#354,#393,#231,.T.);
#488=EDGE_CURVE('',#394,#393,#232,.T.);
#489=EDGE_CURVE('',#394,#349,#233,.T.);
#490=EDGE_CURVE('',#362,#394,#234,.T.);
#491=ORIENTED_EDGE('',*,*,#395,.F.);
#492=ORIENTED_EDGE('',*,*,#396,.T.);
#493=ORIENTED_EDGE('',*,*,#397,.F.);
#494=ORIENTED_EDGE('',*,*,#396,.F.);
#495=ORIENTED_EDGE('',*,*,#398,.F.);
#496=ORIENTED_EDGE('',*,*,#399,.T.);
#497=ORIENTED_EDGE('',*,*,#400,.T.);
#498=ORIENTED_EDGE('',*,*,#399,.F.);
#499=ORIENTED_EDGE('',*,*,#400,.F.);
#500=ORIENTED_EDGE('',*,*,#401,.F.);
#501=ORIENTED_EDGE('',*,*,#402,.T.);
#502=ORIENTED_EDGE('',*,*,#403,.T.);
#503=ORIENTED_EDGE('',*,*,#402,.F.);
#504=ORIENTED_EDGE('',*,*,#403,.F.);
#505=ORIENTED_EDGE('',*,*,#404,.F.);
#506=ORIENTED_EDGE('',*,*,#405,.T.);
#507=ORIENTED_EDGE('',*,*,#406,.T.);
#508=ORIENTED_EDGE('',*,*,#405,.F.);
#509=ORIENTED_EDGE('',*,*,#406,.F.);
#510=ORIENTED_EDGE('',*,*,#407,.F.);
#511=ORIENTED_EDGE('',*,*,#408,.F.);
#512=ORIENTED_EDGE('',*,*,#409,.F.);
#513=ORIENTED_EDGE('',*,*,#410,.F.);
#514=ORIENTED_EDGE('',*,*,#411,.F.);
#515=ORIENTED_EDGE('',*,*,#412,.F.);
#516=ORIENTED_EDGE('',*,*,#413,.F.);
#517=ORIENTED_EDGE('',*,*,#414,.F.);
#518=ORIENTED_EDGE('',*,*,#415,.F.);
#519=ORIENTED_EDGE('',*,*,#416,.F.);
#520=ORIENTED_EDGE('',*,*,#417,.F.);
#521=ORIENTED_EDGE('',*,*,#418,.F.);
#522=ORIENTED_EDGE('',*,*,#419,.F.);
#523=ORIENTED_EDGE('',*,*,#420,.F.);
#524=ORIENTED_EDGE('',*,*,#421,.F.);
#525=ORIENTED_EDGE('',*,*,#422,.F.);
#526=ORIENTED_EDGE('',*,*,#407,.T.);
#527=ORIENTED_EDGE('',*,*,#423,.F.);
#528=ORIENTED_EDGE('',*,*,#424,.T.);
#529=ORIENTED_EDGE('',*,*,#425,.F.);
#530=ORIENTED_EDGE('',*,*,#411,.T.);
#531=ORIENTED_EDGE('',*,*,#426,.F.);
#532=ORIENTED_EDGE('',*,*,#427,.T.);
#533=ORIENTED_EDGE('',*,*,#428,.F.);
#534=ORIENTED_EDGE('',*,*,#415,.T.);
#535=ORIENTED_EDGE('',*,*,#429,.F.);
#536=ORIENTED_EDGE('',*,*,#430,.F.);
#537=ORIENTED_EDGE('',*,*,#431,.F.);
#538=ORIENTED_EDGE('',*,*,#408,.T.);
#539=ORIENTED_EDGE('',*,*,#425,.T.);
#540=ORIENTED_EDGE('',*,*,#432,.T.);
#541=ORIENTED_EDGE('',*,*,#433,.T.);
#542=ORIENTED_EDGE('',*,*,#412,.T.);
#543=ORIENTED_EDGE('',*,*,#428,.T.);
#544=ORIENTED_EDGE('',*,*,#434,.T.);
#545=ORIENTED_EDGE('',*,*,#429,.T.);
#546=ORIENTED_EDGE('',*,*,#418,.T.);
#547=ORIENTED_EDGE('',*,*,#435,.T.);
#548=ORIENTED_EDGE('',*,*,#436,.T.);
#549=ORIENTED_EDGE('',*,*,#437,.T.);
#550=ORIENTED_EDGE('',*,*,#420,.T.);
#551=ORIENTED_EDGE('',*,*,#438,.T.);
#552=ORIENTED_EDGE('',*,*,#439,.T.);
#553=ORIENTED_EDGE('',*,*,#440,.T.);
#554=ORIENTED_EDGE('',*,*,#441,.T.);
#555=ORIENTED_EDGE('',*,*,#442,.T.);
#556=ORIENTED_EDGE('',*,*,#443,.T.);
#557=ORIENTED_EDGE('',*,*,#444,.T.);
#558=ORIENTED_EDGE('',*,*,#445,.T.);
#559=ORIENTED_EDGE('',*,*,#446,.T.);
#560=ORIENTED_EDGE('',*,*,#447,.T.);
#561=ORIENTED_EDGE('',*,*,#448,.T.);
#562=ORIENTED_EDGE('',*,*,#449,.T.);
#563=ORIENTED_EDGE('',*,*,#450,.T.);
#564=ORIENTED_EDGE('',*,*,#451,.T.);
#565=ORIENTED_EDGE('',*,*,#452,.T.);
#566=ORIENTED_EDGE('',*,*,#419,.T.);
#567=ORIENTED_EDGE('',*,*,#453,.F.);
#568=ORIENTED_EDGE('',*,*,#454,.T.);
#569=ORIENTED_EDGE('',*,*,#438,.F.);
#570=ORIENTED_EDGE('',*,*,#450,.F.);
#571=ORIENTED_EDGE('',*,*,#455,.F.);
#572=ORIENTED_EDGE('',*,*,#456,.T.);
#573=ORIENTED_EDGE('',*,*,#457,.T.);
#574=ORIENTED_EDGE('',*,*,#449,.F.);
#575=ORIENTED_EDGE('',*,*,#458,.F.);
#576=ORIENTED_EDGE('',*,*,#459,.T.);
#577=ORIENTED_EDGE('',*,*,#455,.T.);
#578=ORIENTED_EDGE('',*,*,#452,.F.);
#579=ORIENTED_EDGE('',*,*,#460,.F.);
#580=ORIENTED_EDGE('',*,*,#461,.T.);
#581=ORIENTED_EDGE('',*,*,#458,.T.);
#582=ORIENTED_EDGE('',*,*,#451,.F.);
#583=ORIENTED_EDGE('',*,*,#457,.F.);
#584=ORIENTED_EDGE('',*,*,#462,.T.);
#585=ORIENTED_EDGE('',*,*,#460,.T.);
#586=ORIENTED_EDGE('',*,*,#456,.F.);
#587=ORIENTED_EDGE('',*,*,#459,.F.);
#588=ORIENTED_EDGE('',*,*,#461,.F.);
#589=ORIENTED_EDGE('',*,*,#462,.F.);
#590=ORIENTED_EDGE('',*,*,#401,.T.);
#591=ORIENTED_EDGE('',*,*,#446,.F.);
#592=ORIENTED_EDGE('',*,*,#463,.F.);
#593=ORIENTED_EDGE('',*,*,#464,.T.);
#594=ORIENTED_EDGE('',*,*,#465,.T.);
#595=ORIENTED_EDGE('',*,*,#445,.F.);
#596=ORIENTED_EDGE('',*,*,#466,.F.);
#597=ORIENTED_EDGE('',*,*,#467,.F.);
#598=ORIENTED_EDGE('',*,*,#463,.T.);
#599=ORIENTED_EDGE('',*,*,#448,.F.);
#600=ORIENTED_EDGE('',*,*,#468,.F.);
#601=ORIENTED_EDGE('',*,*,#469,.T.);
#602=ORIENTED_EDGE('',*,*,#466,.T.);
#603=ORIENTED_EDGE('',*,*,#447,.F.);
#604=ORIENTED_EDGE('',*,*,#465,.F.);
#605=ORIENTED_EDGE('',*,*,#470,.T.);
#606=ORIENTED_EDGE('',*,*,#468,.T.);
#607=ORIENTED_EDGE('',*,*,#464,.F.);
#608=ORIENTED_EDGE('',*,*,#467,.T.);
#609=ORIENTED_EDGE('',*,*,#469,.F.);
#610=ORIENTED_EDGE('',*,*,#470,.F.);
#611=ORIENTED_EDGE('',*,*,#404,.T.);
#612=ORIENTED_EDGE('',*,*,#442,.F.);
#613=ORIENTED_EDGE('',*,*,#471,.F.);
#614=ORIENTED_EDGE('',*,*,#472,.T.);
#615=ORIENTED_EDGE('',*,*,#473,.T.);
#616=ORIENTED_EDGE('',*,*,#441,.F.);
#617=ORIENTED_EDGE('',*,*,#474,.F.);
#618=ORIENTED_EDGE('',*,*,#475,.T.);
#619=ORIENTED_EDGE('',*,*,#471,.T.);
#620=ORIENTED_EDGE('',*,*,#444,.F.);
#621=ORIENTED_EDGE('',*,*,#476,.F.);
#622=ORIENTED_EDGE('',*,*,#477,.T.);
#623=ORIENTED_EDGE('',*,*,#474,.T.);
#624=ORIENTED_EDGE('',*,*,#443,.F.);
#625=ORIENTED_EDGE('',*,*,#473,.F.);
#626=ORIENTED_EDGE('',*,*,#478,.T.);
#627=ORIENTED_EDGE('',*,*,#476,.T.);
#628=ORIENTED_EDGE('',*,*,#472,.F.);
#629=ORIENTED_EDGE('',*,*,#475,.F.);
#630=ORIENTED_EDGE('',*,*,#477,.F.);
#631=ORIENTED_EDGE('',*,*,#478,.F.);
#632=ORIENTED_EDGE('',*,*,#395,.T.);
#633=ORIENTED_EDGE('',*,*,#398,.T.);
#634=ORIENTED_EDGE('',*,*,#434,.F.);
#635=ORIENTED_EDGE('',*,*,#427,.F.);
#636=ORIENTED_EDGE('',*,*,#479,.F.);
#637=ORIENTED_EDGE('',*,*,#430,.T.);
#638=ORIENTED_EDGE('',*,*,#413,.T.);
#639=ORIENTED_EDGE('',*,*,#433,.F.);
#640=ORIENTED_EDGE('',*,*,#480,.F.);
#641=ORIENTED_EDGE('',*,*,#481,.F.);
#642=ORIENTED_EDGE('',*,*,#432,.F.);
#643=ORIENTED_EDGE('',*,*,#424,.F.);
#644=ORIENTED_EDGE('',*,*,#482,.F.);
#645=ORIENTED_EDGE('',*,*,#480,.T.);
#646=ORIENTED_EDGE('',*,*,#409,.T.);
#647=ORIENTED_EDGE('',*,*,#440,.F.);
#648=ORIENTED_EDGE('',*,*,#483,.F.);
#649=ORIENTED_EDGE('',*,*,#484,.F.);
#650=ORIENTED_EDGE('',*,*,#439,.F.);
#651=ORIENTED_EDGE('',*,*,#454,.F.);
#652=ORIENTED_EDGE('',*,*,#485,.F.);
#653=ORIENTED_EDGE('',*,*,#483,.T.);
#654=ORIENTED_EDGE('',*,*,#421,.T.);
#655=ORIENTED_EDGE('',*,*,#437,.F.);
#656=ORIENTED_EDGE('',*,*,#486,.F.);
#657=ORIENTED_EDGE('',*,*,#487,.F.);
#658=ORIENTED_EDGE('',*,*,#410,.T.);
#659=ORIENTED_EDGE('',*,*,#484,.T.);
#660=ORIENTED_EDGE('',*,*,#485,.T.);
#661=ORIENTED_EDGE('',*,*,#453,.T.);
#662=ORIENTED_EDGE('',*,*,#422,.T.);
#663=ORIENTED_EDGE('',*,*,#487,.T.);
#664=ORIENTED_EDGE('',*,*,#488,.F.);
#665=ORIENTED_EDGE('',*,*,#489,.T.);
#666=ORIENTED_EDGE('',*,*,#416,.T.);
#667=ORIENTED_EDGE('',*,*,#431,.T.);
#668=ORIENTED_EDGE('',*,*,#479,.T.);
#669=ORIENTED_EDGE('',*,*,#426,.T.);
#670=ORIENTED_EDGE('',*,*,#414,.T.);
#671=ORIENTED_EDGE('',*,*,#481,.T.);
#672=ORIENTED_EDGE('',*,*,#482,.T.);
#673=ORIENTED_EDGE('',*,*,#423,.T.);
#674=ORIENTED_EDGE('',*,*,#397,.T.);
#675=ORIENTED_EDGE('',*,*,#417,.T.);
#676=ORIENTED_EDGE('',*,*,#489,.F.);
#677=ORIENTED_EDGE('',*,*,#490,.F.);
#678=ORIENTED_EDGE('',*,*,#435,.F.);
#679=ORIENTED_EDGE('',*,*,#486,.T.);
#680=ORIENTED_EDGE('',*,*,#436,.F.);
#681=ORIENTED_EDGE('',*,*,#490,.T.);
#682=ORIENTED_EDGE('',*,*,#488,.T.);
#683=CYLINDRICAL_SURFACE('',#741,0.8115);
#684=CYLINDRICAL_SURFACE('',#744,0.8115);
#685=CYLINDRICAL_SURFACE('',#748,0.8115);
#686=CYLINDRICAL_SURFACE('',#752,0.8115);
#687=ADVANCED_FACE('',(#59),#683,.F.);
#688=ADVANCED_FACE('',(#60),#684,.F.);
#689=ADVANCED_FACE('',(#61),#23,.F.);
#690=ADVANCED_FACE('',(#62),#685,.F.);
#691=ADVANCED_FACE('',(#63),#24,.F.);
#692=ADVANCED_FACE('',(#64),#686,.F.);
#693=ADVANCED_FACE('',(#65),#25,.F.);
#694=ADVANCED_FACE('',(#66),#26,.F.);
#695=ADVANCED_FACE('',(#67),#27,.F.);
#696=ADVANCED_FACE('',(#68),#28,.F.);
#697=ADVANCED_FACE('',(#69),#29,.F.);
#698=ADVANCED_FACE('',(#70),#30,.F.);
#699=ADVANCED_FACE('',(#71),#31,.F.);
#700=ADVANCED_FACE('',(#72),#32,.F.);
#701=ADVANCED_FACE('',(#73,#15,#16,#17),#33,.T.);
#702=ADVANCED_FACE('',(#74),#34,.F.);
#703=ADVANCED_FACE('',(#75),#35,.T.);
#704=ADVANCED_FACE('',(#76),#36,.T.);
#705=ADVANCED_FACE('',(#77),#37,.T.);
#706=ADVANCED_FACE('',(#78),#38,.T.);
#707=ADVANCED_FACE('',(#79,#18),#39,.T.);
#708=ADVANCED_FACE('',(#80),#40,.T.);
#709=ADVANCED_FACE('',(#81),#41,.T.);
#710=ADVANCED_FACE('',(#82),#42,.T.);
#711=ADVANCED_FACE('',(#83),#43,.T.);
#712=ADVANCED_FACE('',(#84,#19),#44,.T.);
#713=ADVANCED_FACE('',(#85),#45,.T.);
#714=ADVANCED_FACE('',(#86),#46,.T.);
#715=ADVANCED_FACE('',(#87),#47,.T.);
#716=ADVANCED_FACE('',(#88),#48,.T.);
#717=ADVANCED_FACE('',(#89,#20,#21),#49,.T.);
#718=ADVANCED_FACE('',(#90),#50,.F.);
#719=ADVANCED_FACE('',(#91),#51,.F.);
#720=ADVANCED_FACE('',(#92),#52,.F.);
#721=ADVANCED_FACE('',(#93),#53,.F.);
#722=ADVANCED_FACE('',(#94),#54,.F.);
#723=ADVANCED_FACE('',(#95),#55,.F.);
#724=ADVANCED_FACE('',(#96,#22),#56,.F.);
#725=ADVANCED_FACE('',(#97),#57,.F.);
#726=ADVANCED_FACE('',(#98),#58,.T.);
#727=CLOSED_SHELL('',(#687,#688,#689,#690,#691,#692,#693,#694,#695,#696,
#697,#698,#699,#700,#701,#702,#703,#704,#705,#706,#707,#708,#709,#710,#711,
#712,#713,#714,#715,#716,#717,#718,#719,#720,#721,#722,#723,#724,#725,#726));
#728=DERIVED_UNIT_ELEMENT(#730,1.);
#729=DERIVED_UNIT_ELEMENT(#1181,-3.);
#730=(
MASS_UNIT()
NAMED_UNIT(*)
SI_UNIT(.KILO.,.GRAM.)
);
#731=DERIVED_UNIT((#728,#729));
#732=MEASURE_REPRESENTATION_ITEM('density measure',
POSITIVE_RATIO_MEASURE(7850.),#731);
#733=PROPERTY_DEFINITION_REPRESENTATION(#738,#735);
#734=PROPERTY_DEFINITION_REPRESENTATION(#739,#736);
#735=REPRESENTATION('material name',(#737),#1178);
#736=REPRESENTATION('density',(#732),#1178);
#737=DESCRIPTIVE_REPRESENTATION_ITEM('Steel','Steel');
#738=PROPERTY_DEFINITION('material property','material name',#1188);
#739=PROPERTY_DEFINITION('material property','density of part',#1188);
#740=AXIS2_PLACEMENT_3D('',#975,#789,#790);
#741=AXIS2_PLACEMENT_3D('',#976,#791,#792);
#742=AXIS2_PLACEMENT_3D('',#978,#793,#794);
#743=AXIS2_PLACEMENT_3D('',#981,#796,#797);
#744=AXIS2_PLACEMENT_3D('',#982,#798,#799);
#745=AXIS2_PLACEMENT_3D('',#984,#800,#801);
#746=AXIS2_PLACEMENT_3D('',#987,#803,#804);
#747=AXIS2_PLACEMENT_3D('',#988,#805,#806);
#748=AXIS2_PLACEMENT_3D('',#989,#807,#808);
#749=AXIS2_PLACEMENT_3D('',#991,#809,#810);
#750=AXIS2_PLACEMENT_3D('',#994,#812,#813);
#751=AXIS2_PLACEMENT_3D('',#995,#814,#815);
#752=AXIS2_PLACEMENT_3D('',#996,#816,#817);
#753=AXIS2_PLACEMENT_3D('',#998,#818,#819);
#754=AXIS2_PLACEMENT_3D('',#1001,#821,#822);
#755=AXIS2_PLACEMENT_3D('',#1002,#823,#824);
#756=AXIS2_PLACEMENT_3D('',#1003,#825,#826);
#757=AXIS2_PLACEMENT_3D('',#1012,#831,#832);
#758=AXIS2_PLACEMENT_3D('',#1021,#837,#838);
#759=AXIS2_PLACEMENT_3D('',#1030,#843,#844);
#760=AXIS2_PLACEMENT_3D('',#1039,#849,#850);
#761=AXIS2_PLACEMENT_3D('',#1045,#854,#855);
#762=AXIS2_PLACEMENT_3D('',#1051,#859,#860);
#763=AXIS2_PLACEMENT_3D('',#1057,#864,#865);
#764=AXIS2_PLACEMENT_3D('',#1096,#887,#888);
#765=AXIS2_PLACEMENT_3D('',#1100,#891,#892);
#766=AXIS2_PLACEMENT_3D('',#1106,#896,#897);
#767=AXIS2_PLACEMENT_3D('',#1110,#900,#901);
#768=AXIS2_PLACEMENT_3D('',#1114,#904,#905);
#769=AXIS2_PLACEMENT_3D('',#1116,#907,#908);
#770=AXIS2_PLACEMENT_3D('',#1117,#909,#910);
#771=AXIS2_PLACEMENT_3D('',#1123,#914,#915);
#772=AXIS2_PLACEMENT_3D('',#1127,#918,#919);
#773=AXIS2_PLACEMENT_3D('',#1131,#922,#923);
#774=AXIS2_PLACEMENT_3D('',#1133,#925,#926);
#775=AXIS2_PLACEMENT_3D('',#1134,#927,#928);
#776=AXIS2_PLACEMENT_3D('',#1140,#932,#933);
#777=AXIS2_PLACEMENT_3D('',#1144,#936,#937);
#778=AXIS2_PLACEMENT_3D('',#1148,#940,#941);
#779=AXIS2_PLACEMENT_3D('',#1150,#943,#944);
#780=AXIS2_PLACEMENT_3D('',#1151,#945,#946);
#781=AXIS2_PLACEMENT_3D('',#1153,#948,#949);
#782=AXIS2_PLACEMENT_3D('',#1157,#952,#953);
#783=AXIS2_PLACEMENT_3D('',#1159,#955,#956);
#784=AXIS2_PLACEMENT_3D('',#1163,#959,#960);
#785=AXIS2_PLACEMENT_3D('',#1165,#962,#963);
#786=AXIS2_PLACEMENT_3D('',#1169,#966,#967);
#787=AXIS2_PLACEMENT_3D('',#1173,#970,#971);
#788=AXIS2_PLACEMENT_3D('',#1175,#973,#974);
#789=DIRECTION('axis',(0.,0.,1.));
#790=DIRECTION('refdir',(1.,0.,0.));
#791=DIRECTION('center_axis',(0.,0.,1.));
#792=DIRECTION('ref_axis',(-1.,0.,0.));
#793=DIRECTION('center_axis',(0.,0.,1.));
#794=DIRECTION('ref_axis',(-1.,0.,0.));
#795=DIRECTION('',(0.,0.,1.));
#796=DIRECTION('center_axis',(0.,0.,-1.));
#797=DIRECTION('ref_axis',(-1.,0.,0.));
#798=DIRECTION('center_axis',(0.,0.,1.));
#799=DIRECTION('ref_axis',(-1.,0.,0.));
#800=DIRECTION('center_axis',(0.,0.,1.));
#801=DIRECTION('ref_axis',(-1.,0.,0.));
#802=DIRECTION('',(0.,0.,1.));
#803=DIRECTION('center_axis',(0.,0.,1.));
#804=DIRECTION('ref_axis',(-1.,0.,0.));
#805=DIRECTION('center_axis',(0.,0.,1.));
#806=DIRECTION('ref_axis',(-1.,0.,0.));
#807=DIRECTION('center_axis',(0.,0.,1.));
#808=DIRECTION('ref_axis',(-1.,0.,0.));
#809=DIRECTION('center_axis',(0.,0.,1.));
#810=DIRECTION('ref_axis',(-1.,0.,0.));
#811=DIRECTION('',(0.,0.,1.));
#812=DIRECTION('center_axis',(0.,0.,1.));
#813=DIRECTION('ref_axis',(-1.,0.,0.));
#814=DIRECTION('center_axis',(0.,0.,1.));
#815=DIRECTION('ref_axis',(-1.,0.,0.));
#816=DIRECTION('center_axis',(0.,0.,1.));
#817=DIRECTION('ref_axis',(-1.,0.,0.));
#818=DIRECTION('center_axis',(0.,0.,1.));
#819=DIRECTION('ref_axis',(-1.,0.,0.));
#820=DIRECTION('',(0.,0.,1.));
#821=DIRECTION('center_axis',(0.,0.,1.));
#822=DIRECTION('ref_axis',(-1.,0.,0.));
#823=DIRECTION('center_axis',(0.,0.,1.));
#824=DIRECTION('ref_axis',(-1.,0.,0.));
#825=DIRECTION('center_axis',(0.,-1.,0.));
#826=DIRECTION('ref_axis',(0.,0.,-1.));
#827=DIRECTION('',(0.,0.,1.));
#828=DIRECTION('',(1.,0.,0.));
#829=DIRECTION('',(0.,0.,-1.));
#830=DIRECTION('',(-1.,0.,0.));
#831=DIRECTION('center_axis',(0.,-1.,0.));
#832=DIRECTION('ref_axis',(0.,0.,-1.));
#833=DIRECTION('',(0.,0.,1.));
#834=DIRECTION('',(1.,0.,0.));
#835=DIRECTION('',(0.,0.,-1.));
#836=DIRECTION('',(-1.,0.,0.));
#837=DIRECTION('center_axis',(0.,-1.,0.));
#838=DIRECTION('ref_axis',(0.,0.,-1.));
#839=DIRECTION('',(0.,0.,-1.));
#840=DIRECTION('',(-1.,0.,0.));
#841=DIRECTION('',(0.,0.,1.));
#842=DIRECTION('',(1.,0.,0.));
#843=DIRECTION('center_axis',(0.,-1.,0.));
#844=DIRECTION('ref_axis',(0.,0.,-1.));
#845=DIRECTION('',(0.,0.,1.));
#846=DIRECTION('',(1.,0.,0.));
#847=DIRECTION('',(0.,0.,-1.));
#848=DIRECTION('',(-1.,0.,0.));
#849=DIRECTION('center_axis',(-1.,0.,0.));
#850=DIRECTION('ref_axis',(0.,1.,0.));
#851=DIRECTION('',(0.,1.,0.));
#852=DIRECTION('',(0.,0.,-1.));
#853=DIRECTION('',(0.,-1.,0.));
#854=DIRECTION('center_axis',(-1.,0.,0.));
#855=DIRECTION('ref_axis',(0.,1.,0.));
#856=DIRECTION('',(0.,1.,0.));
#857=DIRECTION('',(0.,0.,-1.));
#858=DIRECTION('',(0.,-1.,0.));
#859=DIRECTION('center_axis',(1.,0.,0.));
#860=DIRECTION('ref_axis',(0.,-1.,0.));
#861=DIRECTION('',(0.,1.,0.));
#862=DIRECTION('',(0.,0.,-1.));
#863=DIRECTION('',(0.,-1.,0.));
#864=DIRECTION('center_axis',(0.,0.,-1.));
#865=DIRECTION('ref_axis',(-1.,0.,0.));
#866=DIRECTION('',(1.,0.,0.));
#867=DIRECTION('',(0.,1.,0.));
#868=DIRECTION('',(1.,0.,0.));
#869=DIRECTION('',(0.,-1.,0.));
#870=DIRECTION('',(-1.,0.,0.));
#871=DIRECTION('',(0.,1.,0.));
#872=DIRECTION('',(0.,-1.,0.));
#873=DIRECTION('',(1.,0.,0.));
#874=DIRECTION('',(0.,1.,0.));
#875=DIRECTION('',(0.,1.,0.));
#876=DIRECTION('',(-1.,0.,0.));
#877=DIRECTION('',(0.,-1.,0.));
#878=DIRECTION('',(1.,0.,0.));
#879=DIRECTION('',(1.,0.,0.));
#880=DIRECTION('',(-4.22942104619107E-16,1.,0.));
#881=DIRECTION('',(-1.,0.,0.));
#882=DIRECTION('',(0.,-1.,0.));
#883=DIRECTION('',(1.,0.,0.));
#884=DIRECTION('',(-4.22942104619107E-16,1.,0.));
#885=DIRECTION('',(-1.,-5.41012480427005E-16,0.));
#886=DIRECTION('',(0.,-1.,0.));
#887=DIRECTION('center_axis',(-1.,0.,0.));
#888=DIRECTION('ref_axis',(0.,1.,0.));
#889=DIRECTION('',(0.,1.,0.));
#890=DIRECTION('',(0.,0.,-1.));
#891=DIRECTION('center_axis',(1.,4.22942104619107E-16,0.));
#892=DIRECTION('ref_axis',(-4.22942104619107E-16,1.,0.));
#893=DIRECTION('',(0.,0.,1.));
#894=DIRECTION('',(-4.22942104619107E-16,1.,0.));
#895=DIRECTION('',(0.,0.,1.));
#896=DIRECTION('center_axis',(0.,-1.,0.));
#897=DIRECTION('ref_axis',(1.,0.,0.));
#898=DIRECTION('',(0.,0.,1.));
#899=DIRECTION('',(1.,0.,0.));
#900=DIRECTION('center_axis',(-1.,0.,0.));
#901=DIRECTION('ref_axis',(0.,-1.,0.));
#902=DIRECTION('',(0.,0.,1.));
#903=DIRECTION('',(0.,-1.,0.));
#904=DIRECTION('center_axis',(-5.41012480427005E-16,1.,0.));
#905=DIRECTION('ref_axis',(-1.,-5.41012480427005E-16,0.));
#906=DIRECTION('',(-1.,-5.41012480427005E-16,0.));
#907=DIRECTION('center_axis',(0.,0.,-1.));
#908=DIRECTION('ref_axis',(-1.,0.,0.));
#909=DIRECTION('center_axis',(1.,4.22942104619107E-16,0.));
#910=DIRECTION('ref_axis',(-4.22942104619107E-16,1.,0.));
#911=DIRECTION('',(0.,0.,1.));
#912=DIRECTION('',(-4.22942104619107E-16,1.,0.));
#913=DIRECTION('',(0.,0.,1.));
#914=DIRECTION('center_axis',(0.,-1.,0.));
#915=DIRECTION('ref_axis',(1.,0.,0.));
#916=DIRECTION('',(0.,0.,1.));
#917=DIRECTION('',(-1.,0.,0.));
#918=DIRECTION('center_axis',(-1.,0.,0.));
#919=DIRECTION('ref_axis',(0.,-1.,0.));
#920=DIRECTION('',(0.,0.,1.));
#921=DIRECTION('',(0.,-1.,0.));
#922=DIRECTION('center_axis',(0.,1.,0.));
#923=DIRECTION('ref_axis',(-1.,0.,0.));
#924=DIRECTION('',(-1.,0.,0.));
#925=DIRECTION('center_axis',(0.,0.,-1.));
#926=DIRECTION('ref_axis',(-1.,0.,0.));
#927=DIRECTION('center_axis',(0.,1.,0.));
#928=DIRECTION('ref_axis',(-1.,0.,0.));
#929=DIRECTION('',(0.,0.,1.));
#930=DIRECTION('',(-1.,0.,0.));
#931=DIRECTION('',(0.,0.,1.));
#932=DIRECTION('center_axis',(1.,0.,0.));
#933=DIRECTION('ref_axis',(0.,1.,0.));
#934=DIRECTION('',(0.,0.,1.));
#935=DIRECTION('',(0.,1.,0.));
#936=DIRECTION('center_axis',(0.,-1.,0.));
#937=DIRECTION('ref_axis',(1.,0.,0.));
#938=DIRECTION('',(0.,0.,1.));
#939=DIRECTION('',(1.,0.,0.));
#940=DIRECTION('center_axis',(-1.,0.,0.));
#941=DIRECTION('ref_axis',(0.,-1.,0.));
#942=DIRECTION('',(0.,-1.,0.));
#943=DIRECTION('center_axis',(0.,0.,-1.));
#944=DIRECTION('ref_axis',(-1.,0.,0.));
#945=DIRECTION('center_axis',(0.,-1.,0.));
#946=DIRECTION('ref_axis',(-1.,0.,0.));
#947=DIRECTION('',(-1.,0.,0.));
#948=DIRECTION('center_axis',(1.,0.,0.));
#949=DIRECTION('ref_axis',(0.,-1.,0.));
#950=DIRECTION('',(0.,0.,-1.));
#951=DIRECTION('',(0.,-1.,0.));
#952=DIRECTION('center_axis',(0.,-1.,0.));
#953=DIRECTION('ref_axis',(-1.,0.,0.));
#954=DIRECTION('',(-1.,0.,0.));
#955=DIRECTION('center_axis',(1.,0.,0.));
#956=DIRECTION('ref_axis',(0.,-1.,0.));
#957=DIRECTION('',(0.,0.,-1.));
#958=DIRECTION('',(0.,-1.,0.));
#959=DIRECTION('center_axis',(0.,-1.,0.));
#960=DIRECTION('ref_axis',(-1.,0.,0.));
#961=DIRECTION('',(-1.,0.,0.));
#962=DIRECTION('center_axis',(1.,0.,0.));
#963=DIRECTION('ref_axis',(0.,0.,-1.));
#964=DIRECTION('',(0.,0.,-1.));
#965=DIRECTION('',(0.,-1.,0.));
#966=DIRECTION('center_axis',(0.,0.,-1.));
#967=DIRECTION('ref_axis',(-1.,0.,0.));
#968=DIRECTION('',(-1.,0.,0.));
#969=DIRECTION('',(0.,1.,0.));
#970=DIRECTION('center_axis',(-1.,0.,0.));
#971=DIRECTION('ref_axis',(0.,0.,1.));
#972=DIRECTION('',(0.,0.,1.));
#973=DIRECTION('center_axis',(0.,-1.,0.));
#974=DIRECTION('ref_axis',(-1.,0.,0.));
#975=CARTESIAN_POINT('',(0.,0.,0.));
#976=CARTESIAN_POINT('Origin',(102.937967971578,-10.6372066066299,-7.21538427275354));
#977=CARTESIAN_POINT('',(103.749467971578,-10.6372066066299,-10.2153842727535));
#978=CARTESIAN_POINT('Origin',(102.937967971578,-10.6372066066299,-10.2153842727535));
#979=CARTESIAN_POINT('',(103.749467971578,-10.6372066066299,-4.0848));
#980=CARTESIAN_POINT('',(103.749467971578,-10.6372066066299,-7.21538427275354));
#981=CARTESIAN_POINT('Origin',(102.937967971578,-10.6372066066299,-4.0848));
#982=CARTESIAN_POINT('Origin',(102.896313091567,-0.131836783762291,-8.21538427275354));
#983=CARTESIAN_POINT('',(103.707813091567,-0.131836783762291,-10.2153842727535));
#984=CARTESIAN_POINT('Origin',(102.896313091567,-0.131836783762291,-10.2153842727535));
#985=CARTESIAN_POINT('',(103.707813091567,-0.131836783762291,-5.21538427275354));
#986=CARTESIAN_POINT('',(103.707813091567,-0.131836783762291,-8.21538427275354));
#987=CARTESIAN_POINT('Origin',(102.896313091567,-0.131836783762291,-5.21538427275354));
#988=CARTESIAN_POINT('Origin',(102.896313091567,-0.131836783762291,-5.21538427275354));
#989=CARTESIAN_POINT('Origin',(47.4176439649094,-11.4490598465497,-8.21538427275354));
#990=CARTESIAN_POINT('',(48.2291439649094,-11.4490598465497,-10.2153842727535));
#991=CARTESIAN_POINT('Origin',(47.4176439649094,-11.4490598465497,-10.2153842727535));
#992=CARTESIAN_POINT('',(48.2291439649094,-11.4490598465497,-5.21538427275354));
#993=CARTESIAN_POINT('',(48.2291439649094,-11.4490598465497,-8.21538427275354));
#994=CARTESIAN_POINT('Origin',(47.4176439649094,-11.4490598465497,-5.21538427275354));
#995=CARTESIAN_POINT('Origin',(47.4176439649094,-11.4490598465497,-5.21538427275354));
#996=CARTESIAN_POINT('Origin',(47.1159656051625,1.04670816421744,-9.21538427275354));
#997=CARTESIAN_POINT('',(47.9274656051625,1.04670816421744,-10.2153842727535));
#998=CARTESIAN_POINT('Origin',(47.1159656051625,1.04670816421744,-10.2153842727535));
#999=CARTESIAN_POINT('',(47.9274656051625,1.04670816421744,-7.21538427275354));
#1000=CARTESIAN_POINT('',(47.9274656051625,1.04670816421744,-9.21538427275354));
#1001=CARTESIAN_POINT('Origin',(47.1159656051625,1.04670816421744,-7.21538427275354));
#1002=CARTESIAN_POINT('Origin',(47.1159656051625,1.04670816421744,-7.21538427275354));
#1003=CARTESIAN_POINT('Origin',(-33.5000004991889,19.1367531180917,-3.0848));
#1004=CARTESIAN_POINT('',(29.5000004395843,19.1367531180917,-6.0848));
#1005=CARTESIAN_POINT('',(29.5000004395843,19.1367531180917,-4.0848));
#1006=CARTESIAN_POINT('',(29.5000004395843,19.1367531180917,-3.5848));
#1007=CARTESIAN_POINT('',(5.00000007450581,19.1367531180917,-6.0848));
#1008=CARTESIAN_POINT('',(3.00000004470348,19.1367531180917,-6.0848));
#1009=CARTESIAN_POINT('',(5.00000007450581,19.1367531180917,-4.0848));
#1010=CARTESIAN_POINT('',(5.00000007450581,19.1367531180917,-3.5848));
#1011=CARTESIAN_POINT('',(3.00000004470348,19.1367531180917,-4.0848));
#1012=CARTESIAN_POINT('Origin',(-33.5000004991889,19.1367531180917,-3.0848));
#1013=CARTESIAN_POINT('',(74.5000011101365,19.1367531180917,-6.0848));
#1014=CARTESIAN_POINT('',(74.5000011101365,19.1367531180917,-4.0848));
#1015=CARTESIAN_POINT('',(74.5000011101365,19.1367531180917,-3.5848));
#1016=CARTESIAN_POINT('',(49.5000007376075,19.1367531180917,-6.0848));
#1017=CARTESIAN_POINT('',(3.00000004470348,19.1367531180917,-6.0848));
#1018=CARTESIAN_POINT('',(49.5000007376075,19.1367531180917,-4.0848));
#1019=CARTESIAN_POINT('',(49.5000007376075,19.1367531180917,-3.5848));
#1020=CARTESIAN_POINT('',(3.00000004470348,19.1367531180917,-4.0848));
#1021=CARTESIAN_POINT('Origin',(-33.5000004991889,19.1367531180917,-3.0848));
#1022=CARTESIAN_POINT('',(95.0000014156103,19.1367531180917,-4.0848));
#1023=CARTESIAN_POINT('',(95.0000014156103,19.1367531180917,-6.0848));
#1024=CARTESIAN_POINT('',(95.0000014156103,19.1367531180917,-3.5848));
#1025=CARTESIAN_POINT('',(112.400001676381,19.1367531180917,-4.0848));
#1026=CARTESIAN_POINT('',(3.00000004470348,19.1367531180917,-4.0848));
#1027=CARTESIAN_POINT('',(112.400001676381,19.1367531180917,-6.0848));
#1028=CARTESIAN_POINT('',(112.400001676381,19.1367531180917,-3.0848));
#1029=CARTESIAN_POINT('',(3.00000004470348,19.1367531180917,-6.0848));
#1030=CARTESIAN_POINT('Origin',(-33.5000004991889,19.1367531180917,-3.0848));
#1031=CARTESIAN_POINT('',(-16.0000002384186,19.1367531180917,-6.0848));
#1032=CARTESIAN_POINT('',(-16.0000002384186,19.1367531180917,-4.0848));
#1033=CARTESIAN_POINT('',(-16.0000002384186,19.1367531180917,-3.5848));
#1034=CARTESIAN_POINT('',(-33.4000004991889,19.1367531180917,-6.0848));
#1035=CARTESIAN_POINT('',(3.00000004470348,19.1367531180917,-6.0848));
#1036=CARTESIAN_POINT('',(-33.4000004991889,19.1367531180917,-4.0848));
#1037=CARTESIAN_POINT('',(-33.4000004991889,19.1367531180917,-3.0848));
#1038=CARTESIAN_POINT('',(3.00000004470348,19.1367531180917,-4.0848));
#1039=CARTESIAN_POINT('Origin',(29.5000004395843,12.5000001862645,-4.0848));
#1040=CARTESIAN_POINT('',(29.5000004395843,12.5000001862645,-4.0848));
#1041=CARTESIAN_POINT('',(29.5000004395843,6.28418829814938,-4.0848));
#1042=CARTESIAN_POINT('',(29.5000004395843,12.5000001862645,-6.0848));
#1043=CARTESIAN_POINT('',(29.5000004395843,12.5000001862645,-4.0848));
#1044=CARTESIAN_POINT('',(29.5000004395843,6.28418829814938,-6.0848));
#1045=CARTESIAN_POINT('Origin',(74.5000011101365,12.5000001862645,-4.0848));
#1046=CARTESIAN_POINT('',(74.5000011101365,12.5000001862645,-4.0848));
#1047=CARTESIAN_POINT('',(74.5000011101365,6.28418829814938,-4.0848));
#1048=CARTESIAN_POINT('',(74.5000011101365,12.5000001862645,-6.0848));
#1049=CARTESIAN_POINT('',(74.5000011101365,12.5000001862645,-4.0848));
#1050=CARTESIAN_POINT('',(74.5000011101365,6.28418829814938,-6.0848));
#1051=CARTESIAN_POINT('Origin',(95.0000014156103,20.1367531180917,-4.0848));
#1052=CARTESIAN_POINT('',(95.0000014156103,12.5000001862645,-6.0848));
#1053=CARTESIAN_POINT('',(95.0000014156103,10.102564764063,-6.0848));
#1054=CARTESIAN_POINT('',(95.0000014156103,12.5000001862645,-4.0848));
#1055=CARTESIAN_POINT('',(95.0000014156103,12.5000001862645,-4.0848));
#1056=CARTESIAN_POINT('',(95.0000014156103,10.102564764063,-4.0848));
#1057=CARTESIAN_POINT('Origin',(39.5000005885959,0.068376410034241,-6.0848));
#1058=CARTESIAN_POINT('',(49.5000007376075,12.5000001862645,-6.0848));
#1059=CARTESIAN_POINT('',(44.5000006631017,12.5000001862645,-6.0848));
#1060=CARTESIAN_POINT('',(49.5000007376075,10.102564764063,-6.0848));
#1061=CARTESIAN_POINT('',(67.2500010021031,12.5000001862645,-6.0848));
#1062=CARTESIAN_POINT('',(112.400001676381,-20.0000002980232,-6.0848));
#1063=CARTESIAN_POINT('',(112.400001676381,10.102564764063,-6.0848));
#1064=CARTESIAN_POINT('',(-33.4000004991889,-20.0000002980232,-6.0848));
#1065=CARTESIAN_POINT('',(-33.5000004991889,-20.0000002980232,-6.0848));
#1066=CARTESIAN_POINT('',(-33.4000004991889,-9.96581194399449,-6.0848));
#1067=CARTESIAN_POINT('',(-16.0000002384186,12.5000001862645,-6.0848));
#1068=CARTESIAN_POINT('',(-16.0000002384186,6.28418829814938,-6.0848));
#1069=CARTESIAN_POINT('',(5.00000007450581,12.5000001862645,-6.0848));
#1070=CARTESIAN_POINT('',(22.2500003315508,12.5000001862645,-6.0848));
#1071=CARTESIAN_POINT('',(5.00000007450581,10.102564764063,-6.0848));
#1072=CARTESIAN_POINT('',(104.999304898058,-12.4349113060816,-6.0848));
#1073=CARTESIAN_POINT('',(104.999304898058,2.11834291358949,-6.0848));
#1074=CARTESIAN_POINT('',(104.999304898058,-6.18326744802369,-6.0848));
#1075=CARTESIAN_POINT('',(100.85418021765,2.11834291358949,-6.0848));
#1076=CARTESIAN_POINT('',(72.249652743327,2.11834291358949,-6.0848));
#1077=CARTESIAN_POINT('',(100.85418021765,-12.4349113060816,-6.0848));
#1078=CARTESIAN_POINT('',(100.85418021765,1.09335966181187,-6.0848));
#1079=CARTESIAN_POINT('',(70.1770904031227,-12.4349113060816,-6.0848));
#1080=CARTESIAN_POINT('',(45.000697337116,0.105660944035668,-6.0848));
#1081=CARTESIAN_POINT('',(49.1049391607016,0.105660944035668,-6.0848));
#1082=CARTESIAN_POINT('',(42.2503489628559,0.105660944035668,-6.0848));
#1083=CARTESIAN_POINT('',(49.1049391607016,2.11834291358949,-6.0848));
#1084=CARTESIAN_POINT('',(49.1049391607016,0.0870186770349566,-6.0848));
#1085=CARTESIAN_POINT('',(45.000697337116,2.11834291358949,-6.0848));
#1086=CARTESIAN_POINT('',(44.3024698746488,2.11834291358949,-6.0848));
#1087=CARTESIAN_POINT('',(45.000697337116,1.09335966181187,-6.0848));
#1088=CARTESIAN_POINT('',(45.000697337116,-12.4349113060816,-6.0848));
#1089=CARTESIAN_POINT('',(49.1049391607017,-12.4349113060816,-6.0848));
#1090=CARTESIAN_POINT('',(42.2503489628559,-12.4349113060816,-6.0848));
#1091=CARTESIAN_POINT('',(49.1049391607016,-10.5244368286411,-6.0848));
#1092=CARTESIAN_POINT('',(49.1049391607017,-6.18326744802369,-6.0848));
#1093=CARTESIAN_POINT('',(45.000697337116,-10.5244368286411,-6.0848));
#1094=CARTESIAN_POINT('',(44.3024698746488,-10.5244368286411,-6.0848));
#1095=CARTESIAN_POINT('',(45.000697337116,-5.22803020930343,-6.0848));
#1096=CARTESIAN_POINT('Origin',(-16.0000002384186,12.5000001862645,-4.0848));
#1097=CARTESIAN_POINT('',(-16.0000002384186,12.5000001862645,-4.0848));
#1098=CARTESIAN_POINT('',(-16.0000002384186,6.28418829814938,-4.0848));
#1099=CARTESIAN_POINT('',(-16.0000002384186,12.5000001862645,-4.0848));
#1100=CARTESIAN_POINT('Origin',(49.1049391607017,-12.4349113060816,-10.2153842727535));
#1101=CARTESIAN_POINT('',(49.1049391607017,-12.4349113060816,-10.2153842727535));
#1102=CARTESIAN_POINT('',(49.1049391607017,-12.4349113060816,-10.2153842727535));
#1103=CARTESIAN_POINT('',(49.1049391607016,-10.5244368286411,-10.2153842727535));
#1104=CARTESIAN_POINT('',(49.1049391607017,-15.6599999302212,-10.2153842727535));
#1105=CARTESIAN_POINT('',(49.1049391607016,-10.5244368286411,-10.2153842727535));
#1106=CARTESIAN_POINT('Origin',(45.000697337116,-12.4349113060816,-10.2153842727535));
#1107=CARTESIAN_POINT('',(45.000697337116,-12.4349113060816,-10.2153842727535));
#1108=CARTESIAN_POINT('',(45.000697337116,-12.4349113060816,-10.2153842727535));
#1109=CARTESIAN_POINT('',(45.000697337116,-12.4349113060816,-10.2153842727535));
#1110=CARTESIAN_POINT('Origin',(45.000697337116,-10.5244368286411,-10.2153842727535));
#1111=CARTESIAN_POINT('',(45.000697337116,-10.5244368286411,-10.2153842727535));
#1112=CARTESIAN_POINT('',(45.000697337116,-10.5244368286411,-10.2153842727535));
#1113=CARTESIAN_POINT('',(45.000697337116,2.11834291358949,-10.2153842727535));
#1114=CARTESIAN_POINT('Origin',(49.1049391607016,-10.5244368286411,-10.2153842727535));
#1115=CARTESIAN_POINT('',(49.1049391607016,-10.5244368286411,-10.2153842727535));
#1116=CARTESIAN_POINT('Origin',(47.0528182489088,-11.4796740673614,-10.2153842727535));
#1117=CARTESIAN_POINT('Origin',(49.1049391607016,0.105660944035668,-10.2153842727535));
#1118=CARTESIAN_POINT('',(49.1049391607016,0.105660944035668,-10.2153842727535));
#1119=CARTESIAN_POINT('',(49.1049391607016,0.105660944035668,-10.2153842727535));
#1120=CARTESIAN_POINT('',(49.1049391607016,2.11834291358949,-10.2153842727535));
#1121=CARTESIAN_POINT('',(49.1049391607017,-15.6599999302212,-10.2153842727535));
#1122=CARTESIAN_POINT('',(49.1049391607016,2.11834291358949,-10.2153842727535));
#1123=CARTESIAN_POINT('Origin',(45.000697337116,0.105660944035668,-10.2153842727535));
#1124=CARTESIAN_POINT('',(45.000697337116,0.105660944035668,-10.2153842727535));
#1125=CARTESIAN_POINT('',(45.000697337116,0.105660944035668,-10.2153842727535));
#1126=CARTESIAN_POINT('',(49.1049391607016,0.105660944035668,-10.2153842727535));
#1127=CARTESIAN_POINT('Origin',(45.000697337116,2.11834291358949,-10.2153842727535));
#1128=CARTESIAN_POINT('',(45.000697337116,2.11834291358949,-10.2153842727535));
#1129=CARTESIAN_POINT('',(45.000697337116,2.11834291358949,-10.2153842727535));
#1130=CARTESIAN_POINT('',(45.000697337116,2.11834291358949,-10.2153842727535));
#1131=CARTESIAN_POINT('Origin',(49.1049391607016,2.11834291358949,-10.2153842727535));
#1132=CARTESIAN_POINT('',(104.999304898058,2.11834291358949,-10.2153842727535));
#1133=CARTESIAN_POINT('Origin',(47.0528182489088,1.11200192881258,-10.2153842727535));
#1134=CARTESIAN_POINT('Origin',(104.999304898058,2.11834291358949,-10.2153842727535));
#1135=CARTESIAN_POINT('',(104.999304898058,2.11834291358949,-10.2153842727535));
#1136=CARTESIAN_POINT('',(104.999304898058,2.11834291358949,-10.2153842727535));
#1137=CARTESIAN_POINT('',(100.85418021765,2.11834291358949,-10.2153842727535));
#1138=CARTESIAN_POINT('',(104.999304898058,2.11834291358949,-10.2153842727535));
#1139=CARTESIAN_POINT('',(100.85418021765,2.11834291358949,-10.2153842727535));
#1140=CARTESIAN_POINT('Origin',(104.999304898058,-12.4349113060816,-10.2153842727535));
#1141=CARTESIAN_POINT('',(104.999304898058,-12.4349113060816,-10.2153842727535));
#1142=CARTESIAN_POINT('',(104.999304898058,-12.4349113060816,-10.2153842727535));
#1143=CARTESIAN_POINT('',(104.999304898058,-12.4349113060816,-10.2153842727535));
#1144=CARTESIAN_POINT('Origin',(100.85418021765,-12.4349113060816,-10.2153842727535));
#1145=CARTESIAN_POINT('',(100.85418021765,-12.4349113060816,-10.2153842727535));
#1146=CARTESIAN_POINT('',(100.85418021765,-12.4349113060816,-10.2153842727535));
#1147=CARTESIAN_POINT('',(45.000697337116,-12.4349113060816,-10.2153842727535));
#1148=CARTESIAN_POINT('Origin',(100.85418021765,2.11834291358949,-10.2153842727535));
#1149=CARTESIAN_POINT('',(100.85418021765,2.11834291358949,-10.2153842727535));
#1150=CARTESIAN_POINT('Origin',(102.926742557854,-5.15828419624606,-10.2153842727535));
#1151=CARTESIAN_POINT('Origin',(95.0000014156103,12.5000001862645,-4.0848));
#1152=CARTESIAN_POINT('',(67.2500010021031,12.5000001862645,-4.0848));
#1153=CARTESIAN_POINT('Origin',(49.5000007376075,20.1367531180917,-4.0848));
#1154=CARTESIAN_POINT('',(49.5000007376075,12.5000001862645,-4.0848));
#1155=CARTESIAN_POINT('',(49.5000007376075,12.5000001862645,-4.0848));
#1156=CARTESIAN_POINT('',(49.5000007376075,10.102564764063,-4.0848));
#1157=CARTESIAN_POINT('Origin',(49.5000007376075,12.5000001862645,-4.0848));
#1158=CARTESIAN_POINT('',(44.5000006631017,12.5000001862645,-4.0848));
#1159=CARTESIAN_POINT('Origin',(5.00000007450581,20.1367531180917,-4.0848));
#1160=CARTESIAN_POINT('',(5.00000007450581,12.5000001862645,-4.0848));
#1161=CARTESIAN_POINT('',(5.00000007450581,12.5000001862645,-4.0848));
#1162=CARTESIAN_POINT('',(5.00000007450581,10.102564764063,-4.0848));
#1163=CARTESIAN_POINT('Origin',(5.00000007450581,12.5000001862645,-4.0848));
#1164=CARTESIAN_POINT('',(22.2500003315508,12.5000001862645,-4.0848));
#1165=CARTESIAN_POINT('Origin',(-33.4000004991889,-20.0000002980232,-3.0848));
#1166=CARTESIAN_POINT('',(-33.4000004991889,-20.0000002980232,-4.0848));
#1167=CARTESIAN_POINT('',(-33.4000004991889,-20.0000002980232,-3.0848));
#1168=CARTESIAN_POINT('',(-33.4000004991889,-9.96581194399449,-4.0848));
#1169=CARTESIAN_POINT('Origin',(39.5000005885959,0.068376410034241,-4.0848));
#1170=CARTESIAN_POINT('',(112.400001676381,-20.0000002980232,-4.0848));
#1171=CARTESIAN_POINT('',(76.0000011324883,-20.0000002980232,-4.0848));
#1172=CARTESIAN_POINT('',(112.400001676381,10.102564764063,-4.0848));
#1173=CARTESIAN_POINT('Origin',(112.400001676381,20.1367531180917,-3.0848));
#1174=CARTESIAN_POINT('',(112.400001676381,-20.0000002980232,-3.0848));
#1175=CARTESIAN_POINT('Origin',(112.500001676381,-20.0000002980232,-3.0848));
#1176=UNCERTAINTY_MEASURE_WITH_UNIT(LENGTH_MEASURE(0.01),#1180,
'DISTANCE_ACCURACY_VALUE',
'Maximum model space distance between geometric entities at asserted c
onnectivities');
#1177=UNCERTAINTY_MEASURE_WITH_UNIT(LENGTH_MEASURE(0.01),#1180,
'DISTANCE_ACCURACY_VALUE',
'Maximum model space distance between geometric entities at asserted c
onnectivities');
#1178=(
GEOMETRIC_REPRESENTATION_CONTEXT(3)
GLOBAL_UNCERTAINTY_ASSIGNED_CONTEXT((#1176))
GLOBAL_UNIT_ASSIGNED_CONTEXT((#1180,#1182,#1183))
REPRESENTATION_CONTEXT('','3D')
);
#1179=(
GEOMETRIC_REPRESENTATION_CONTEXT(3)
GLOBAL_UNCERTAINTY_ASSIGNED_CONTEXT((#1177))
GLOBAL_UNIT_ASSIGNED_CONTEXT((#1180,#1182,#1183))
REPRESENTATION_CONTEXT('','3D')
);
#1180=(
LENGTH_UNIT()
NAMED_UNIT(*)
SI_UNIT(.MILLI.,.METRE.)
);
#1181=(
LENGTH_UNIT()
NAMED_UNIT(*)
SI_UNIT($,.METRE.)
);
#1182=(
NAMED_UNIT(*)
PLANE_ANGLE_UNIT()
SI_UNIT($,.RADIAN.)
);
#1183=(
NAMED_UNIT(*)
SI_UNIT($,.STERADIAN.)
SOLID_ANGLE_UNIT()
);
#1184=SHAPE_DEFINITION_REPRESENTATION(#1185,#1186);
#1185=PRODUCT_DEFINITION_SHAPE('',$,#1188);
#1186=SHAPE_REPRESENTATION('',(#740),#1178);
#1187=PRODUCT_DEFINITION_CONTEXT('part definition',#1192,'design');
#1188=PRODUCT_DEFINITION('Case','Case',#1189,#1187);
#1189=PRODUCT_DEFINITION_FORMATION('',$,#1194);
#1190=PRODUCT_RELATED_PRODUCT_CATEGORY('Case','Case',(#1194));
#1191=APPLICATION_PROTOCOL_DEFINITION('international standard',
'automotive_design',2009,#1192);
#1192=APPLICATION_CONTEXT(
'Core Data for Automotive Mechanical Design Process');
#1193=PRODUCT_CONTEXT('part definition',#1192,'mechanical');
#1194=PRODUCT('Case','Case',$,(#1193));
#1195=PRESENTATION_STYLE_ASSIGNMENT((#1218));
#1196=PRESENTATION_STYLE_ASSIGNMENT((#1219));
#1197=PRESENTATION_STYLE_ASSIGNMENT((#1220));
#1198=PRESENTATION_STYLE_ASSIGNMENT((#1221));
#1199=PRESENTATION_STYLE_ASSIGNMENT((#1222));
#1200=PRESENTATION_STYLE_ASSIGNMENT((#1223));
#1201=PRESENTATION_STYLE_ASSIGNMENT((#1224));
#1202=PRESENTATION_STYLE_ASSIGNMENT((#1225));
#1203=PRESENTATION_STYLE_ASSIGNMENT((#1226));
#1204=PRESENTATION_STYLE_ASSIGNMENT((#1227));
#1205=PRESENTATION_STYLE_ASSIGNMENT((#1228));
#1206=PRESENTATION_STYLE_ASSIGNMENT((#1229));
#1207=PRESENTATION_STYLE_ASSIGNMENT((#1230));
#1208=PRESENTATION_STYLE_ASSIGNMENT((#1231));
#1209=PRESENTATION_STYLE_ASSIGNMENT((#1232));
#1210=PRESENTATION_STYLE_ASSIGNMENT((#1233));
#1211=PRESENTATION_STYLE_ASSIGNMENT((#1234));
#1212=PRESENTATION_STYLE_ASSIGNMENT((#1235));
#1213=PRESENTATION_STYLE_ASSIGNMENT((#1236));
#1214=PRESENTATION_STYLE_ASSIGNMENT((#1237));
#1215=PRESENTATION_STYLE_ASSIGNMENT((#1238));
#1216=PRESENTATION_STYLE_ASSIGNMENT((#1239));
#1217=PRESENTATION_STYLE_ASSIGNMENT((#1240));
#1218=SURFACE_STYLE_USAGE(.BOTH.,#1241);
#1219=SURFACE_STYLE_USAGE(.BOTH.,#1242);
#1220=SURFACE_STYLE_USAGE(.BOTH.,#1243);
#1221=SURFACE_STYLE_USAGE(.BOTH.,#1244);
#1222=SURFACE_STYLE_USAGE(.BOTH.,#1245);
#1223=SURFACE_STYLE_USAGE(.BOTH.,#1246);
#1224=SURFACE_STYLE_USAGE(.BOTH.,#1247);
#1225=SURFACE_STYLE_USAGE(.BOTH.,#1248);
#1226=SURFACE_STYLE_USAGE(.BOTH.,#1249);
#1227=SURFACE_STYLE_USAGE(.BOTH.,#1250);
#1228=SURFACE_STYLE_USAGE(.BOTH.,#1251);
#1229=SURFACE_STYLE_USAGE(.BOTH.,#1252);
#1230=SURFACE_STYLE_USAGE(.BOTH.,#1253);
#1231=SURFACE_STYLE_USAGE(.BOTH.,#1254);
#1232=SURFACE_STYLE_USAGE(.BOTH.,#1255);
#1233=SURFACE_STYLE_USAGE(.BOTH.,#1256);
#1234=SURFACE_STYLE_USAGE(.BOTH.,#1257);
#1235=SURFACE_STYLE_USAGE(.BOTH.,#1258);
#1236=SURFACE_STYLE_USAGE(.BOTH.,#1259);
#1237=SURFACE_STYLE_USAGE(.BOTH.,#1260);
#1238=SURFACE_STYLE_USAGE(.BOTH.,#1261);
#1239=SURFACE_STYLE_USAGE(.BOTH.,#1262);
#1240=SURFACE_STYLE_USAGE(.BOTH.,#1263);
#1241=SURFACE_SIDE_STYLE('',(#1264));
#1242=SURFACE_SIDE_STYLE('',(#1265));
#1243=SURFACE_SIDE_STYLE('',(#1266));
#1244=SURFACE_SIDE_STYLE('',(#1267));
#1245=SURFACE_SIDE_STYLE('',(#1268));
#1246=SURFACE_SIDE_STYLE('',(#1269));
#1247=SURFACE_SIDE_STYLE('',(#1270));
#1248=SURFACE_SIDE_STYLE('',(#1271));
#1249=SURFACE_SIDE_STYLE('',(#1272));
#1250=SURFACE_SIDE_STYLE('',(#1273));
#1251=SURFACE_SIDE_STYLE('',(#1274));
#1252=SURFACE_SIDE_STYLE('',(#1275));
#1253=SURFACE_SIDE_STYLE('',(#1276));
#1254=SURFACE_SIDE_STYLE('',(#1277));
#1255=SURFACE_SIDE_STYLE('',(#1278));
#1256=SURFACE_SIDE_STYLE('',(#1279));
#1257=SURFACE_SIDE_STYLE('',(#1280));
#1258=SURFACE_SIDE_STYLE('',(#1281));
#1259=SURFACE_SIDE_STYLE('',(#1282));
#1260=SURFACE_SIDE_STYLE('',(#1283));
#1261=SURFACE_SIDE_STYLE('',(#1284));
#1262=SURFACE_SIDE_STYLE('',(#1285));
#1263=SURFACE_SIDE_STYLE('',(#1286));
#1264=SURFACE_STYLE_FILL_AREA(#1287);
#1265=SURFACE_STYLE_FILL_AREA(#1288);
#1266=SURFACE_STYLE_FILL_AREA(#1289);
#1267=SURFACE_STYLE_FILL_AREA(#1290);
#1268=SURFACE_STYLE_FILL_AREA(#1291);
#1269=SURFACE_STYLE_FILL_AREA(#1292);
#1270=SURFACE_STYLE_FILL_AREA(#1293);
#1271=SURFACE_STYLE_FILL_AREA(#1294);
#1272=SURFACE_STYLE_FILL_AREA(#1295);
#1273=SURFACE_STYLE_FILL_AREA(#1296);
#1274=SURFACE_STYLE_FILL_AREA(#1297);
#1275=SURFACE_STYLE_FILL_AREA(#1298);
#1276=SURFACE_STYLE_FILL_AREA(#1299);
#1277=SURFACE_STYLE_FILL_AREA(#1300);
#1278=SURFACE_STYLE_FILL_AREA(#1301);
#1279=SURFACE_STYLE_FILL_AREA(#1302);
#1280=SURFACE_STYLE_FILL_AREA(#1303);
#1281=SURFACE_STYLE_FILL_AREA(#1304);
#1282=SURFACE_STYLE_FILL_AREA(#1305);
#1283=SURFACE_STYLE_FILL_AREA(#1306);
#1284=SURFACE_STYLE_FILL_AREA(#1307);
#1285=SURFACE_STYLE_FILL_AREA(#1308);
#1286=SURFACE_STYLE_FILL_AREA(#1309);
#1287=FILL_AREA_STYLE('Steel - Satin',(#1310));
#1288=FILL_AREA_STYLE('Opaque(255,255,255)',(#1311));
#1289=FILL_AREA_STYLE('Opaque(0,64,191)',(#1312));
#1290=FILL_AREA_STYLE('Opaque(51,51,51)',(#1313));
#1291=FILL_AREA_STYLE('Opaque(63,63,63)',(#1314));
#1292=FILL_AREA_STYLE('Opaque(129,136,140)',(#1315));
#1293=FILL_AREA_STYLE('Opaque(178,178,178)',(#1316));
#1294=FILL_AREA_STYLE('Opaque(189,189,189)',(#1317));
#1295=FILL_AREA_STYLE('Opaque(138,152,191)',(#1318));
#1296=FILL_AREA_STYLE('Opaque(204,170,82)',(#1319));
#1297=FILL_AREA_STYLE('Opaque(150,112,0)',(#1320));
#1298=FILL_AREA_STYLE('Opaque(255,191,0)',(#1321));
#1299=FILL_AREA_STYLE('Opaque(0,155,0)',(#1322));
#1300=FILL_AREA_STYLE('Opaque(161,148,27)',(#1323));
#1301=FILL_AREA_STYLE('Opaque(160,228,105)',(#1324));
#1302=FILL_AREA_STYLE('Opaque(0,154,0)',(#1325));
#1303=FILL_AREA_STYLE('Opaque(230,230,230)',(#1326));
#1304=FILL_AREA_STYLE('Opaque(28,28,28)',(#1327));
#1305=FILL_AREA_STYLE('Opaque(183,176,140)',(#1328));
#1306=FILL_AREA_STYLE('Opaque(182,176,140)',(#1329));
#1307=FILL_AREA_STYLE('Opaque(158,104,51)',(#1330));
#1308=FILL_AREA_STYLE('Opaque(127,127,127)',(#1331));
#1309=FILL_AREA_STYLE('Opaque(198,193,188)',(#1332));
#1310=FILL_AREA_STYLE_COLOUR('Steel - Satin',#1333);
#1311=FILL_AREA_STYLE_COLOUR('Opaque(255,255,255)',#1334);
#1312=FILL_AREA_STYLE_COLOUR('Opaque(0,64,191)',#1335);
#1313=FILL_AREA_STYLE_COLOUR('Opaque(51,51,51)',#1336);
#1314=FILL_AREA_STYLE_COLOUR('Opaque(63,63,63)',#1337);
#1315=FILL_AREA_STYLE_COLOUR('Opaque(129,136,140)',#1338);
#1316=FILL_AREA_STYLE_COLOUR('Opaque(178,178,178)',#1339);
#1317=FILL_AREA_STYLE_COLOUR('Opaque(189,189,189)',#1340);
#1318=FILL_AREA_STYLE_COLOUR('Opaque(138,152,191)',#1341);
#1319=FILL_AREA_STYLE_COLOUR('Opaque(204,170,82)',#1342);
#1320=FILL_AREA_STYLE_COLOUR('Opaque(150,112,0)',#1343);
#1321=FILL_AREA_STYLE_COLOUR('Opaque(255,191,0)',#1344);
#1322=FILL_AREA_STYLE_COLOUR('Opaque(0,155,0)',#1345);
#1323=FILL_AREA_STYLE_COLOUR('Opaque(161,148,27)',#1346);
#1324=FILL_AREA_STYLE_COLOUR('Opaque(160,228,105)',#1347);
#1325=FILL_AREA_STYLE_COLOUR('Opaque(0,154,0)',#1348);
#1326=FILL_AREA_STYLE_COLOUR('Opaque(230,230,230)',#1349);
#1327=FILL_AREA_STYLE_COLOUR('Opaque(28,28,28)',#1350);
#1328=FILL_AREA_STYLE_COLOUR('Opaque(183,176,140)',#1351);
#1329=FILL_AREA_STYLE_COLOUR('Opaque(182,176,140)',#1352);
#1330=FILL_AREA_STYLE_COLOUR('Opaque(158,104,51)',#1353);
#1331=FILL_AREA_STYLE_COLOUR('Opaque(127,127,127)',#1354);
#1332=FILL_AREA_STYLE_COLOUR('Opaque(198,193,188)',#1355);
#1333=COLOUR_RGB('Steel - Satin',0.627450980392157,0.627450980392157,0.627450980392157);
#1334=COLOUR_RGB('Opaque(255,255,255)',1.,1.,1.);
#1335=COLOUR_RGB('Opaque(0,64,191)',0.,0.250980392156863,0.749019607843137);
#1336=COLOUR_RGB('Opaque(51,51,51)',0.2,0.2,0.2);
#1337=COLOUR_RGB('Opaque(63,63,63)',0.250980392156863,0.250980392156863,
0.250980392156863);
#1338=COLOUR_RGB('Opaque(129,136,140)',0.505882352941176,0.533333333333333,
0.549019607843137);
#1339=COLOUR_RGB('Opaque(178,178,178)',0.698039215686274,0.698039215686274,
0.698039215686274);
#1340=COLOUR_RGB('Opaque(189,189,189)',0.741176470588235,0.741176470588235,
0.741176470588235);
#1341=COLOUR_RGB('Opaque(138,152,191)',0.541176470588235,0.596078431372549,
0.749019607843137);
#1342=COLOUR_RGB('Opaque(204,170,82)',0.8,0.666666666666667,0.32156862745098);
#1343=COLOUR_RGB('Opaque(150,112,0)',0.588235294117647,0.43921568627451,
0.);
#1344=COLOUR_RGB('Opaque(255,191,0)',1.,0.749019607843137,0.);
#1345=COLOUR_RGB('Opaque(0,155,0)',0.,0.607843137254902,0.);
#1346=COLOUR_RGB('Opaque(161,148,27)',0.631372549019608,0.580392156862745,
0.105882352941176);
#1347=COLOUR_RGB('Opaque(160,228,105)',0.627450980392157,0.894117647058824,
0.411764705882353);
#1348=COLOUR_RGB('Opaque(0,154,0)',0.,0.603921568627451,0.);
#1349=COLOUR_RGB('Opaque(230,230,230)',0.901960784313726,0.901960784313726,
0.901960784313726);
#1350=COLOUR_RGB('Opaque(28,28,28)',0.109803921568627,0.109803921568627,
0.109803921568627);
#1351=COLOUR_RGB('Opaque(183,176,140)',0.717647058823529,0.690196078431373,
0.549019607843137);
#1352=COLOUR_RGB('Opaque(182,176,140)',0.713725490196078,0.690196078431373,
0.549019607843137);
#1353=COLOUR_RGB('Opaque(158,104,51)',0.619607843137255,0.407843137254902,
0.2);
#1354=COLOUR_RGB('Opaque(127,127,127)',0.498039215686275,0.498039215686275,
0.498039215686275);
#1355=COLOUR_RGB('Opaque(198,193,188)',0.776470588235294,0.756862745098039,
0.737254901960784);
ENDSEC;
END-ISO-10303-21;
