ISO-10303-21;
HEADER;
/* Generated by software containing ST-Developer
 * from STEP Tools, Inc. (www.steptools.com) 
 */

FILE_DESCRIPTION(
/* description */ (''),
/* implementation_level */ '2;1');

FILE_NAME(
/* name */ 'Top Plate.step',
/* time_stamp */ '2026-09-12T14:09:19-05:00',
/* author */ (''),
/* organization */ (''),
/* preprocessor_version */ 'ST-DEVELOPER v20.1',
/* originating_system */ 'Autodesk Translation Framework v15.8.0.0',
/* authorisation */ '');

FILE_SCHEMA (('AUTOMOTIVE_DESIGN { 1 0 10303 214 3 1 1 }'));
ENDSEC;

DATA;
#10=MECHANICAL_DESIGN_GEOMETRIC_PRESENTATION_REPRESENTATION('',(#13),#327);
#11=SHAPE_REPRESENTATION_RELATIONSHIP('SRR','None',#334,#12);
#12=ADVANCED_BREP_SHAPE_REPRESENTATION('',(#14),#326);
#13=STYLED_ITEM('',(#343),#14);
#14=MANIFOLD_SOLID_BREP('Body272',#195);
#15=FACE_BOUND('',#41,.T.);
#16=FACE_BOUND('',#42,.T.);
#17=FACE_BOUND('',#49,.T.);
#18=FACE_BOUND('',#50,.T.);
#19=PLANE('',#215);
#20=PLANE('',#216);
#21=PLANE('',#217);
#22=PLANE('',#218);
#23=PLANE('',#219);
#24=PLANE('',#220);
#25=PLANE('',#221);
#26=PLANE('',#222);
#27=FACE_OUTER_BOUND('',#37,.T.);
#28=FACE_OUTER_BOUND('',#38,.T.);
#29=FACE_OUTER_BOUND('',#39,.T.);
#30=FACE_OUTER_BOUND('',#40,.T.);
#31=FACE_OUTER_BOUND('',#43,.T.);
#32=FACE_OUTER_BOUND('',#44,.T.);
#33=FACE_OUTER_BOUND('',#45,.T.);
#34=FACE_OUTER_BOUND('',#46,.T.);
#35=FACE_OUTER_BOUND('',#47,.T.);
#36=FACE_OUTER_BOUND('',#48,.T.);
#37=EDGE_LOOP('',(#135,#136,#137,#138));
#38=EDGE_LOOP('',(#139,#140,#141,#142));
#39=EDGE_LOOP('',(#143,#144,#145,#146));
#40=EDGE_LOOP('',(#147,#148,#149,#150));
#41=EDGE_LOOP('',(#151));
#42=EDGE_LOOP('',(#152));
#43=EDGE_LOOP('',(#153,#154,#155,#156));
#44=EDGE_LOOP('',(#157,#158,#159,#160,#161,#162));
#45=EDGE_LOOP('',(#163,#164,#165,#166));
#46=EDGE_LOOP('',(#167,#168,#169,#170,#171,#172));
#47=EDGE_LOOP('',(#173,#174,#175,#176));
#48=EDGE_LOOP('',(#177,#178,#179,#180));
#49=EDGE_LOOP('',(#181));
#50=EDGE_LOOP('',(#182));
#51=LINE('',#278,#71);
#52=LINE('',#284,#72);
#53=LINE('',#289,#73);
#54=LINE('',#291,#74);
#55=LINE('',#293,#75);
#56=LINE('',#294,#76);
#57=LINE('',#297,#77);
#58=LINE('',#299,#78);
#59=LINE('',#300,#79);
#60=LINE('',#303,#80);
#61=LINE('',#305,#81);
#62=LINE('',#306,#82);
#63=LINE('',#309,#83);
#64=LINE('',#311,#84);
#65=LINE('',#312,#85);
#66=LINE('',#315,#86);
#67=LINE('',#316,#87);
#68=LINE('',#319,#88);
#69=LINE('',#320,#89);
#70=LINE('',#322,#90);
#71=VECTOR('',#229,0.8115);
#72=VECTOR('',#236,0.8115);
#73=VECTOR('',#241,10.);
#74=VECTOR('',#242,10.);
#75=VECTOR('',#243,10.);
#76=VECTOR('',#244,10.);
#77=VECTOR('',#247,10.);
#78=VECTOR('',#248,10.);
#79=VECTOR('',#249,10.);
#80=VECTOR('',#252,10.);
#81=VECTOR('',#253,10.);
#82=VECTOR('',#254,10.);
#83=VECTOR('',#257,10.);
#84=VECTOR('',#258,10.);
#85=VECTOR('',#259,10.);
#86=VECTOR('',#262,10.);
#87=VECTOR('',#263,10.);
#88=VECTOR('',#266,10.);
#89=VECTOR('',#267,10.);
#90=VECTOR('',#270,10.);
#91=CIRCLE('',#210,0.8115);
#92=CIRCLE('',#211,0.8115);
#93=CIRCLE('',#213,0.8115);
#94=CIRCLE('',#214,0.8115);
#95=VERTEX_POINT('',#275);
#96=VERTEX_POINT('',#277);
#97=VERTEX_POINT('',#281);
#98=VERTEX_POINT('',#283);
#99=VERTEX_POINT('',#287);
#100=VERTEX_POINT('',#288);
#101=VERTEX_POINT('',#290);
#102=VERTEX_POINT('',#292);
#103=VERTEX_POINT('',#296);
#104=VERTEX_POINT('',#298);
#105=VERTEX_POINT('',#302);
#106=VERTEX_POINT('',#304);
#107=VERTEX_POINT('',#308);
#108=VERTEX_POINT('',#310);
#109=VERTEX_POINT('',#314);
#110=VERTEX_POINT('',#318);
#111=EDGE_CURVE('',#95,#95,#91,.T.);
#112=EDGE_CURVE('',#95,#96,#51,.T.);
#113=EDGE_CURVE('',#96,#96,#92,.T.);
#114=EDGE_CURVE('',#97,#97,#93,.T.);
#115=EDGE_CURVE('',#97,#98,#52,.T.);
#116=EDGE_CURVE('',#98,#98,#94,.T.);
#117=EDGE_CURVE('',#99,#100,#53,.T.);
#118=EDGE_CURVE('',#99,#101,#54,.T.);
#119=EDGE_CURVE('',#102,#101,#55,.T.);
#120=EDGE_CURVE('',#100,#102,#56,.T.);
#121=EDGE_CURVE('',#101,#103,#57,.T.);
#122=EDGE_CURVE('',#103,#104,#58,.T.);
#123=EDGE_CURVE('',#104,#102,#59,.T.);
#124=EDGE_CURVE('',#100,#105,#60,.T.);
#125=EDGE_CURVE('',#105,#106,#61,.T.);
#126=EDGE_CURVE('',#106,#99,#62,.T.);
#127=EDGE_CURVE('',#107,#104,#63,.T.);
#128=EDGE_CURVE('',#108,#107,#64,.T.);
#129=EDGE_CURVE('',#105,#108,#65,.T.);
#130=EDGE_CURVE('',#109,#108,#66,.T.);
#131=EDGE_CURVE('',#106,#109,#67,.T.);
#132=EDGE_CURVE('',#110,#109,#68,.T.);
#133=EDGE_CURVE('',#103,#110,#69,.T.);
#134=EDGE_CURVE('',#107,#110,#70,.T.);
#135=ORIENTED_EDGE('',*,*,#111,.F.);
#136=ORIENTED_EDGE('',*,*,#112,.T.);
#137=ORIENTED_EDGE('',*,*,#113,.F.);
#138=ORIENTED_EDGE('',*,*,#112,.F.);
#139=ORIENTED_EDGE('',*,*,#114,.F.);
#140=ORIENTED_EDGE('',*,*,#115,.T.);
#141=ORIENTED_EDGE('',*,*,#116,.F.);
#142=ORIENTED_EDGE('',*,*,#115,.F.);
#143=ORIENTED_EDGE('',*,*,#117,.F.);
#144=ORIENTED_EDGE('',*,*,#118,.T.);
#145=ORIENTED_EDGE('',*,*,#119,.F.);
#146=ORIENTED_EDGE('',*,*,#120,.F.);
#147=ORIENTED_EDGE('',*,*,#119,.T.);
#148=ORIENTED_EDGE('',*,*,#121,.T.);
#149=ORIENTED_EDGE('',*,*,#122,.T.);
#150=ORIENTED_EDGE('',*,*,#123,.T.);
#151=ORIENTED_EDGE('',*,*,#113,.T.);
#152=ORIENTED_EDGE('',*,*,#116,.T.);
#153=ORIENTED_EDGE('',*,*,#117,.T.);
#154=ORIENTED_EDGE('',*,*,#124,.T.);
#155=ORIENTED_EDGE('',*,*,#125,.T.);
#156=ORIENTED_EDGE('',*,*,#126,.T.);
#157=ORIENTED_EDGE('',*,*,#127,.F.);
#158=ORIENTED_EDGE('',*,*,#128,.F.);
#159=ORIENTED_EDGE('',*,*,#129,.F.);
#160=ORIENTED_EDGE('',*,*,#124,.F.);
#161=ORIENTED_EDGE('',*,*,#120,.T.);
#162=ORIENTED_EDGE('',*,*,#123,.F.);
#163=ORIENTED_EDGE('',*,*,#125,.F.);
#164=ORIENTED_EDGE('',*,*,#129,.T.);
#165=ORIENTED_EDGE('',*,*,#130,.F.);
#166=ORIENTED_EDGE('',*,*,#131,.F.);
#167=ORIENTED_EDGE('',*,*,#126,.F.);
#168=ORIENTED_EDGE('',*,*,#131,.T.);
#169=ORIENTED_EDGE('',*,*,#132,.F.);
#170=ORIENTED_EDGE('',*,*,#133,.F.);
#171=ORIENTED_EDGE('',*,*,#121,.F.);
#172=ORIENTED_EDGE('',*,*,#118,.F.);
#173=ORIENTED_EDGE('',*,*,#133,.T.);
#174=ORIENTED_EDGE('',*,*,#134,.F.);
#175=ORIENTED_EDGE('',*,*,#127,.T.);
#176=ORIENTED_EDGE('',*,*,#122,.F.);
#177=ORIENTED_EDGE('',*,*,#134,.T.);
#178=ORIENTED_EDGE('',*,*,#132,.T.);
#179=ORIENTED_EDGE('',*,*,#130,.T.);
#180=ORIENTED_EDGE('',*,*,#128,.T.);
#181=ORIENTED_EDGE('',*,*,#111,.T.);
#182=ORIENTED_EDGE('',*,*,#114,.T.);
#183=CYLINDRICAL_SURFACE('',#209,0.8115);
#184=CYLINDRICAL_SURFACE('',#212,0.8115);
#185=ADVANCED_FACE('',(#27),#183,.F.);
#186=ADVANCED_FACE('',(#28),#184,.F.);
#187=ADVANCED_FACE('',(#29),#19,.T.);
#188=ADVANCED_FACE('',(#30,#15,#16),#20,.T.);
#189=ADVANCED_FACE('',(#31),#21,.F.);
#190=ADVANCED_FACE('',(#32),#22,.T.);
#191=ADVANCED_FACE('',(#33),#23,.T.);
#192=ADVANCED_FACE('',(#34),#24,.T.);
#193=ADVANCED_FACE('',(#35),#25,.T.);
#194=ADVANCED_FACE('',(#36,#17,#18),#26,.T.);
#195=CLOSED_SHELL('',(#185,#186,#187,#188,#189,#190,#191,#192,#193,#194));
#196=DERIVED_UNIT_ELEMENT(#198,1.);
#197=DERIVED_UNIT_ELEMENT(#329,-3.);
#198=(
MASS_UNIT()
NAMED_UNIT(*)
SI_UNIT(.KILO.,.GRAM.)
);
#199=DERIVED_UNIT((#196,#197));
#200=MEASURE_REPRESENTATION_ITEM('density measure',
POSITIVE_RATIO_MEASURE(7850.),#199);
#201=PROPERTY_DEFINITION_REPRESENTATION(#206,#203);
#202=PROPERTY_DEFINITION_REPRESENTATION(#207,#204);
#203=REPRESENTATION('material name',(#205),#326);
#204=REPRESENTATION('density',(#200),#326);
#205=DESCRIPTIVE_REPRESENTATION_ITEM('Steel','Steel');
#206=PROPERTY_DEFINITION('material property','material name',#336);
#207=PROPERTY_DEFINITION('material property','density of part',#336);
#208=AXIS2_PLACEMENT_3D('',#273,#223,#224);
#209=AXIS2_PLACEMENT_3D('',#274,#225,#226);
#210=AXIS2_PLACEMENT_3D('',#276,#227,#228);
#211=AXIS2_PLACEMENT_3D('',#279,#230,#231);
#212=AXIS2_PLACEMENT_3D('',#280,#232,#233);
#213=AXIS2_PLACEMENT_3D('',#282,#234,#235);
#214=AXIS2_PLACEMENT_3D('',#285,#237,#238);
#215=AXIS2_PLACEMENT_3D('',#286,#239,#240);
#216=AXIS2_PLACEMENT_3D('',#295,#245,#246);
#217=AXIS2_PLACEMENT_3D('',#301,#250,#251);
#218=AXIS2_PLACEMENT_3D('',#307,#255,#256);
#219=AXIS2_PLACEMENT_3D('',#313,#260,#261);
#220=AXIS2_PLACEMENT_3D('',#317,#264,#265);
#221=AXIS2_PLACEMENT_3D('',#321,#268,#269);
#222=AXIS2_PLACEMENT_3D('',#323,#271,#272);
#223=DIRECTION('axis',(0.,0.,1.));
#224=DIRECTION('refdir',(1.,0.,0.));
#225=DIRECTION('center_axis',(0.,-1.,0.));
#226=DIRECTION('ref_axis',(0.,0.,1.));
#227=DIRECTION('center_axis',(0.,-1.,0.));
#228=DIRECTION('ref_axis',(0.,0.,1.));
#229=DIRECTION('',(0.,-1.,0.));
#230=DIRECTION('center_axis',(0.,1.,0.));
#231=DIRECTION('ref_axis',(0.,0.,1.));
#232=DIRECTION('center_axis',(0.,-1.,0.));
#233=DIRECTION('ref_axis',(0.,0.,1.));
#234=DIRECTION('center_axis',(0.,-1.,0.));
#235=DIRECTION('ref_axis',(0.,0.,1.));
#236=DIRECTION('',(0.,-1.,0.));
#237=DIRECTION('center_axis',(0.,1.,0.));
#238=DIRECTION('ref_axis',(0.,0.,1.));
#239=DIRECTION('center_axis',(0.,0.,1.));
#240=DIRECTION('ref_axis',(-1.,0.,0.));
#241=DIRECTION('',(1.,0.,0.));
#242=DIRECTION('',(0.,-1.,0.));
#243=DIRECTION('',(-1.,0.,0.));
#244=DIRECTION('',(0.,-1.,0.));
#245=DIRECTION('center_axis',(0.,-1.,0.));
#246=DIRECTION('ref_axis',(0.,0.,-1.));
#247=DIRECTION('',(0.,0.,-1.));
#248=DIRECTION('',(1.,0.,0.));
#249=DIRECTION('',(0.,0.,1.));
#250=DIRECTION('center_axis',(0.,1.,0.));
#251=DIRECTION('ref_axis',(-1.,0.,0.));
#252=DIRECTION('',(0.,0.,1.));
#253=DIRECTION('',(-1.,0.,0.));
#254=DIRECTION('',(0.,0.,-1.));
#255=DIRECTION('center_axis',(1.,0.,0.));
#256=DIRECTION('ref_axis',(0.,0.,-1.));
#257=DIRECTION('',(0.,-1.,0.));
#258=DIRECTION('',(0.,0.,-1.));
#259=DIRECTION('',(0.,1.,0.));
#260=DIRECTION('center_axis',(0.,0.,1.));
#261=DIRECTION('ref_axis',(1.,0.,0.));
#262=DIRECTION('',(1.,0.,0.));
#263=DIRECTION('',(0.,1.,0.));
#264=DIRECTION('center_axis',(-1.,0.,0.));
#265=DIRECTION('ref_axis',(0.,0.,1.));
#266=DIRECTION('',(0.,0.,1.));
#267=DIRECTION('',(0.,1.,0.));
#268=DIRECTION('center_axis',(0.,0.,-1.));
#269=DIRECTION('ref_axis',(-1.,0.,0.));
#270=DIRECTION('',(-1.,0.,0.));
#271=DIRECTION('center_axis',(0.,1.,0.));
#272=DIRECTION('ref_axis',(0.,0.,1.));
#273=CARTESIAN_POINT('',(0.,0.,0.));
#274=CARTESIAN_POINT('Origin',(-29.2021097308734,17.9997531180913,-15.9722997053123));
#275=CARTESIAN_POINT('',(-29.2021097308734,20.9997531180917,-16.7837997053123));
#276=CARTESIAN_POINT('Origin',(-29.2021097308734,20.9997531180917,-15.9722997053123));
#277=CARTESIAN_POINT('',(-29.2021097308734,19.1367531180917,-16.7837997053123));
#278=CARTESIAN_POINT('',(-29.2021097308734,17.9997531180913,-16.7837997053123));
#279=CARTESIAN_POINT('Origin',(-29.2021097308734,19.1367531180917,-15.9722997053123));
#280=CARTESIAN_POINT('Origin',(108.143265527458,17.9997531180909,-15.9648265591548));
#281=CARTESIAN_POINT('',(108.143265527458,20.9997531180917,-16.7763265591548));
#282=CARTESIAN_POINT('Origin',(108.143265527458,20.9997531180917,-15.9648265591548));
#283=CARTESIAN_POINT('',(108.143265527458,19.1367531180917,-16.7763265591548));
#284=CARTESIAN_POINT('',(108.143265527458,17.9997531180909,-16.7763265591548));
#285=CARTESIAN_POINT('Origin',(108.143265527458,19.1367531180917,-15.9648265591548));
#286=CARTESIAN_POINT('Origin',(110.000001639128,20.1367531180917,2.00000002980232));
#287=CARTESIAN_POINT('',(-31.1999993026257,20.1367531180917,2.00000002980232));
#288=CARTESIAN_POINT('',(110.000001639128,20.1367531180917,2.00000002980232));
#289=CARTESIAN_POINT('',(74.7000003792346,20.1367531180917,2.00000002980232));
#290=CARTESIAN_POINT('',(-31.1999993026257,19.1367531180917,2.00000002980232));
#291=CARTESIAN_POINT('',(-31.1999993026257,20.1367531180917,2.00000002980232));
#292=CARTESIAN_POINT('',(110.000001639128,19.1367531180917,2.00000002980232));
#293=CARTESIAN_POINT('',(110.000001639128,19.1367531180917,2.00000002980232));
#294=CARTESIAN_POINT('',(110.000001639128,20.1367531180917,2.00000002980232));
#295=CARTESIAN_POINT('Origin',(39.4000082171607,19.1367531180917,-15.199992574091));
#296=CARTESIAN_POINT('',(-31.1999993026257,19.1367531180917,-32.3999992758036));
#297=CARTESIAN_POINT('',(-31.1999993026257,19.1367531180917,3.4999999217689));
#298=CARTESIAN_POINT('',(109.999997541308,19.1367531180917,-32.3999992758036));
#299=CARTESIAN_POINT('',(-31.1999993026257,19.1367531180917,-32.3999992758036));
#300=CARTESIAN_POINT('',(109.999997541308,19.1367531180917,-32.3999992758036));
#301=CARTESIAN_POINT('Origin',(39.3999991193414,20.1367531180917,-14.4499996770173));
#302=CARTESIAN_POINT('',(109.999997541308,20.1367531180917,3.4999999217689));
#303=CARTESIAN_POINT('',(109.999997541308,20.1367531180917,-32.3999992758036));
#304=CARTESIAN_POINT('',(-31.1999993026257,20.1367531180917,3.4999999217689));
#305=CARTESIAN_POINT('',(109.999997541308,20.1367531180917,3.4999999217689));
#306=CARTESIAN_POINT('',(-31.1999993026257,20.1367531180917,3.4999999217689));
#307=CARTESIAN_POINT('Origin',(109.999997541308,20.1367531180917,3.4999999217689));
#308=CARTESIAN_POINT('',(109.999997541308,20.9997531180917,-32.3999992758036));
#309=CARTESIAN_POINT('',(109.999997541308,20.1367531180917,-32.3999992758036));
#310=CARTESIAN_POINT('',(109.999997541308,20.9997531180917,3.4999999217689));
#311=CARTESIAN_POINT('',(109.999997541308,20.9997531180917,-32.3999992758036));
#312=CARTESIAN_POINT('',(109.999997541308,20.1367531180917,3.4999999217689));
#313=CARTESIAN_POINT('Origin',(-31.1999993026257,20.1367531180917,3.4999999217689));
#314=CARTESIAN_POINT('',(-31.1999993026257,20.9997531180917,3.4999999217689));
#315=CARTESIAN_POINT('',(109.999997541308,20.9997531180917,3.4999999217689));
#316=CARTESIAN_POINT('',(-31.1999993026257,20.1367531180917,3.4999999217689));
#317=CARTESIAN_POINT('Origin',(-31.1999993026257,20.1367531180917,-32.3999992758036));
#318=CARTESIAN_POINT('',(-31.1999993026257,20.9997531180917,-32.3999992758036));
#319=CARTESIAN_POINT('',(-31.1999993026257,20.9997531180917,3.4999999217689));
#320=CARTESIAN_POINT('',(-31.1999993026257,20.1367531180917,-32.3999992758036));
#321=CARTESIAN_POINT('Origin',(109.999997541308,20.1367531180917,-32.3999992758036));
#322=CARTESIAN_POINT('',(-31.1999993026257,20.9997531180917,-32.3999992758036));
#323=CARTESIAN_POINT('Origin',(39.3999991193414,20.9997531180917,-14.4499996770173));
#324=UNCERTAINTY_MEASURE_WITH_UNIT(LENGTH_MEASURE(0.01),#328,
'DISTANCE_ACCURACY_VALUE',
'Maximum model space distance between geometric entities at asserted c
onnectivities');
#325=UNCERTAINTY_MEASURE_WITH_UNIT(LENGTH_MEASURE(0.01),#328,
'DISTANCE_ACCURACY_VALUE',
'Maximum model space distance between geometric entities at asserted c
onnectivities');
#326=(
GEOMETRIC_REPRESENTATION_CONTEXT(3)
GLOBAL_UNCERTAINTY_ASSIGNED_CONTEXT((#324))
GLOBAL_UNIT_ASSIGNED_CONTEXT((#328,#330,#331))
REPRESENTATION_CONTEXT('','3D')
);
#327=(
GEOMETRIC_REPRESENTATION_CONTEXT(3)
GLOBAL_UNCERTAINTY_ASSIGNED_CONTEXT((#325))
GLOBAL_UNIT_ASSIGNED_CONTEXT((#328,#330,#331))
REPRESENTATION_CONTEXT('','3D')
);
#328=(
LENGTH_UNIT()
NAMED_UNIT(*)
SI_UNIT(.MILLI.,.METRE.)
);
#329=(
LENGTH_UNIT()
NAMED_UNIT(*)
SI_UNIT($,.METRE.)
);
#330=(
NAMED_UNIT(*)
PLANE_ANGLE_UNIT()
SI_UNIT($,.RADIAN.)
);
#331=(
NAMED_UNIT(*)
SI_UNIT($,.STERADIAN.)
SOLID_ANGLE_UNIT()
);
#332=SHAPE_DEFINITION_REPRESENTATION(#333,#334);
#333=PRODUCT_DEFINITION_SHAPE('',$,#336);
#334=SHAPE_REPRESENTATION('',(#208),#326);
#335=PRODUCT_DEFINITION_CONTEXT('part definition',#340,'design');
#336=PRODUCT_DEFINITION('Case','Case',#337,#335);
#337=PRODUCT_DEFINITION_FORMATION('',$,#342);
#338=PRODUCT_RELATED_PRODUCT_CATEGORY('Case','Case',(#342));
#339=APPLICATION_PROTOCOL_DEFINITION('international standard',
'automotive_design',2009,#340);
#340=APPLICATION_CONTEXT(
'Core Data for Automotive Mechanical Design Process');
#341=PRODUCT_CONTEXT('part definition',#340,'mechanical');
#342=PRODUCT('Case','Case',$,(#341));
#343=PRESENTATION_STYLE_ASSIGNMENT((#366));
#344=PRESENTATION_STYLE_ASSIGNMENT((#367));
#345=PRESENTATION_STYLE_ASSIGNMENT((#368));
#346=PRESENTATION_STYLE_ASSIGNMENT((#369));
#347=PRESENTATION_STYLE_ASSIGNMENT((#370));
#348=PRESENTATION_STYLE_ASSIGNMENT((#371));
#349=PRESENTATION_STYLE_ASSIGNMENT((#372));
#350=PRESENTATION_STYLE_ASSIGNMENT((#373));
#351=PRESENTATION_STYLE_ASSIGNMENT((#374));
#352=PRESENTATION_STYLE_ASSIGNMENT((#375));
#353=PRESENTATION_STYLE_ASSIGNMENT((#376));
#354=PRESENTATION_STYLE_ASSIGNMENT((#377));
#355=PRESENTATION_STYLE_ASSIGNMENT((#378));
#356=PRESENTATION_STYLE_ASSIGNMENT((#379));
#357=PRESENTATION_STYLE_ASSIGNMENT((#380));
#358=PRESENTATION_STYLE_ASSIGNMENT((#381));
#359=PRESENTATION_STYLE_ASSIGNMENT((#382));
#360=PRESENTATION_STYLE_ASSIGNMENT((#383));
#361=PRESENTATION_STYLE_ASSIGNMENT((#384));
#362=PRESENTATION_STYLE_ASSIGNMENT((#385));
#363=PRESENTATION_STYLE_ASSIGNMENT((#386));
#364=PRESENTATION_STYLE_ASSIGNMENT((#387));
#365=PRESENTATION_STYLE_ASSIGNMENT((#388));
#366=SURFACE_STYLE_USAGE(.BOTH.,#389);
#367=SURFACE_STYLE_USAGE(.BOTH.,#390);
#368=SURFACE_STYLE_USAGE(.BOTH.,#391);
#369=SURFACE_STYLE_USAGE(.BOTH.,#392);
#370=SURFACE_STYLE_USAGE(.BOTH.,#393);
#371=SURFACE_STYLE_USAGE(.BOTH.,#394);
#372=SURFACE_STYLE_USAGE(.BOTH.,#395);
#373=SURFACE_STYLE_USAGE(.BOTH.,#396);
#374=SURFACE_STYLE_USAGE(.BOTH.,#397);
#375=SURFACE_STYLE_USAGE(.BOTH.,#398);
#376=SURFACE_STYLE_USAGE(.BOTH.,#399);
#377=SURFACE_STYLE_USAGE(.BOTH.,#400);
#378=SURFACE_STYLE_USAGE(.BOTH.,#401);
#379=SURFACE_STYLE_USAGE(.BOTH.,#402);
#380=SURFACE_STYLE_USAGE(.BOTH.,#403);
#381=SURFACE_STYLE_USAGE(.BOTH.,#404);
#382=SURFACE_STYLE_USAGE(.BOTH.,#405);
#383=SURFACE_STYLE_USAGE(.BOTH.,#406);
#384=SURFACE_STYLE_USAGE(.BOTH.,#407);
#385=SURFACE_STYLE_USAGE(.BOTH.,#408);
#386=SURFACE_STYLE_USAGE(.BOTH.,#409);
#387=SURFACE_STYLE_USAGE(.BOTH.,#410);
#388=SURFACE_STYLE_USAGE(.BOTH.,#411);
#389=SURFACE_SIDE_STYLE('',(#412));
#390=SURFACE_SIDE_STYLE('',(#413));
#391=SURFACE_SIDE_STYLE('',(#414));
#392=SURFACE_SIDE_STYLE('',(#415));
#393=SURFACE_SIDE_STYLE('',(#416));
#394=SURFACE_SIDE_STYLE('',(#417));
#395=SURFACE_SIDE_STYLE('',(#418));
#396=SURFACE_SIDE_STYLE('',(#419));
#397=SURFACE_SIDE_STYLE('',(#420));
#398=SURFACE_SIDE_STYLE('',(#421));
#399=SURFACE_SIDE_STYLE('',(#422));
#400=SURFACE_SIDE_STYLE('',(#423));
#401=SURFACE_SIDE_STYLE('',(#424));
#402=SURFACE_SIDE_STYLE('',(#425));
#403=SURFACE_SIDE_STYLE('',(#426));
#404=SURFACE_SIDE_STYLE('',(#427));
#405=SURFACE_SIDE_STYLE('',(#428));
#406=SURFACE_SIDE_STYLE('',(#429));
#407=SURFACE_SIDE_STYLE('',(#430));
#408=SURFACE_SIDE_STYLE('',(#431));
#409=SURFACE_SIDE_STYLE('',(#432));
#410=SURFACE_SIDE_STYLE('',(#433));
#411=SURFACE_SIDE_STYLE('',(#434));
#412=SURFACE_STYLE_FILL_AREA(#435);
#413=SURFACE_STYLE_FILL_AREA(#436);
#414=SURFACE_STYLE_FILL_AREA(#437);
#415=SURFACE_STYLE_FILL_AREA(#438);
#416=SURFACE_STYLE_FILL_AREA(#439);
#417=SURFACE_STYLE_FILL_AREA(#440);
#418=SURFACE_STYLE_FILL_AREA(#441);
#419=SURFACE_STYLE_FILL_AREA(#442);
#420=SURFACE_STYLE_FILL_AREA(#443);
#421=SURFACE_STYLE_FILL_AREA(#444);
#422=SURFACE_STYLE_FILL_AREA(#445);
#423=SURFACE_STYLE_FILL_AREA(#446);
#424=SURFACE_STYLE_FILL_AREA(#447);
#425=SURFACE_STYLE_FILL_AREA(#448);
#426=SURFACE_STYLE_FILL_AREA(#449);
#427=SURFACE_STYLE_FILL_AREA(#450);
#428=SURFACE_STYLE_FILL_AREA(#451);
#429=SURFACE_STYLE_FILL_AREA(#452);
#430=SURFACE_STYLE_FILL_AREA(#453);
#431=SURFACE_STYLE_FILL_AREA(#454);
#432=SURFACE_STYLE_FILL_AREA(#455);
#433=SURFACE_STYLE_FILL_AREA(#456);
#434=SURFACE_STYLE_FILL_AREA(#457);
#435=FILL_AREA_STYLE('Steel - Satin',(#458));
#436=FILL_AREA_STYLE('Opaque(255,255,255)',(#459));
#437=FILL_AREA_STYLE('Opaque(0,64,191)',(#460));
#438=FILL_AREA_STYLE('Opaque(51,51,51)',(#461));
#439=FILL_AREA_STYLE('Opaque(63,63,63)',(#462));
#440=FILL_AREA_STYLE('Opaque(129,136,140)',(#463));
#441=FILL_AREA_STYLE('Opaque(178,178,178)',(#464));
#442=FILL_AREA_STYLE('Opaque(189,189,189)',(#465));
#443=FILL_AREA_STYLE('Opaque(138,152,191)',(#466));
#444=FILL_AREA_STYLE('Opaque(204,170,82)',(#467));
#445=FILL_AREA_STYLE('Opaque(150,112,0)',(#468));
#446=FILL_AREA_STYLE('Opaque(255,191,0)',(#469));
#447=FILL_AREA_STYLE('Opaque(0,155,0)',(#470));
#448=FILL_AREA_STYLE('Opaque(161,148,27)',(#471));
#449=FILL_AREA_STYLE('Opaque(160,228,105)',(#472));
#450=FILL_AREA_STYLE('Opaque(0,154,0)',(#473));
#451=FILL_AREA_STYLE('Opaque(230,230,230)',(#474));
#452=FILL_AREA_STYLE('Opaque(28,28,28)',(#475));
#453=FILL_AREA_STYLE('Opaque(183,176,140)',(#476));
#454=FILL_AREA_STYLE('Opaque(182,176,140)',(#477));
#455=FILL_AREA_STYLE('Opaque(158,104,51)',(#478));
#456=FILL_AREA_STYLE('Opaque(127,127,127)',(#479));
#457=FILL_AREA_STYLE('Opaque(198,193,188)',(#480));
#458=FILL_AREA_STYLE_COLOUR('Steel - Satin',#481);
#459=FILL_AREA_STYLE_COLOUR('Opaque(255,255,255)',#482);
#460=FILL_AREA_STYLE_COLOUR('Opaque(0,64,191)',#483);
#461=FILL_AREA_STYLE_COLOUR('Opaque(51,51,51)',#484);
#462=FILL_AREA_STYLE_COLOUR('Opaque(63,63,63)',#485);
#463=FILL_AREA_STYLE_COLOUR('Opaque(129,136,140)',#486);
#464=FILL_AREA_STYLE_COLOUR('Opaque(178,178,178)',#487);
#465=FILL_AREA_STYLE_COLOUR('Opaque(189,189,189)',#488);
#466=FILL_AREA_STYLE_COLOUR('Opaque(138,152,191)',#489);
#467=FILL_AREA_STYLE_COLOUR('Opaque(204,170,82)',#490);
#468=FILL_AREA_STYLE_COLOUR('Opaque(150,112,0)',#491);
#469=FILL_AREA_STYLE_COLOUR('Opaque(255,191,0)',#492);
#470=FILL_AREA_STYLE_COLOUR('Opaque(0,155,0)',#493);
#471=FILL_AREA_STYLE_COLOUR('Opaque(161,148,27)',#494);
#472=FILL_AREA_STYLE_COLOUR('Opaque(160,228,105)',#495);
#473=FILL_AREA_STYLE_COLOUR('Opaque(0,154,0)',#496);
#474=FILL_AREA_STYLE_COLOUR('Opaque(230,230,230)',#497);
#475=FILL_AREA_STYLE_COLOUR('Opaque(28,28,28)',#498);
#476=FILL_AREA_STYLE_COLOUR('Opaque(183,176,140)',#499);
#477=FILL_AREA_STYLE_COLOUR('Opaque(182,176,140)',#500);
#478=FILL_AREA_STYLE_COLOUR('Opaque(158,104,51)',#501);
#479=FILL_AREA_STYLE_COLOUR('Opaque(127,127,127)',#502);
#480=FILL_AREA_STYLE_COLOUR('Opaque(198,193,188)',#503);
#481=COLOUR_RGB('Steel - Satin',0.627450980392157,0.627450980392157,0.627450980392157);
#482=COLOUR_RGB('Opaque(255,255,255)',1.,1.,1.);
#483=COLOUR_RGB('Opaque(0,64,191)',0.,0.250980392156863,0.749019607843137);
#484=COLOUR_RGB('Opaque(51,51,51)',0.2,0.2,0.2);
#485=COLOUR_RGB('Opaque(63,63,63)',0.250980392156863,0.250980392156863,
0.250980392156863);
#486=COLOUR_RGB('Opaque(129,136,140)',0.505882352941176,0.533333333333333,
0.549019607843137);
#487=COLOUR_RGB('Opaque(178,178,178)',0.698039215686274,0.698039215686274,
0.698039215686274);
#488=COLOUR_RGB('Opaque(189,189,189)',0.741176470588235,0.741176470588235,
0.741176470588235);
#489=COLOUR_RGB('Opaque(138,152,191)',0.541176470588235,0.596078431372549,
0.749019607843137);
#490=COLOUR_RGB('Opaque(204,170,82)',0.8,0.666666666666667,0.32156862745098);
#491=COLOUR_RGB('Opaque(150,112,0)',0.588235294117647,0.43921568627451,
0.);
#492=COLOUR_RGB('Opaque(255,191,0)',1.,0.749019607843137,0.);
#493=COLOUR_RGB('Opaque(0,155,0)',0.,0.607843137254902,0.);
#494=COLOUR_RGB('Opaque(161,148,27)',0.631372549019608,0.580392156862745,
0.105882352941176);
#495=COLOUR_RGB('Opaque(160,228,105)',0.627450980392157,0.894117647058824,
0.411764705882353);
#496=COLOUR_RGB('Opaque(0,154,0)',0.,0.603921568627451,0.);
#497=COLOUR_RGB('Opaque(230,230,230)',0.901960784313726,0.901960784313726,
0.901960784313726);
#498=COLOUR_RGB('Opaque(28,28,28)',0.109803921568627,0.109803921568627,
0.109803921568627);
#499=COLOUR_RGB('Opaque(183,176,140)',0.717647058823529,0.690196078431373,
0.549019607843137);
#500=COLOUR_RGB('Opaque(182,176,140)',0.713725490196078,0.690196078431373,
0.549019607843137);
#501=COLOUR_RGB('Opaque(158,104,51)',0.619607843137255,0.407843137254902,
0.2);
#502=COLOUR_RGB('Opaque(127,127,127)',0.498039215686275,0.498039215686275,
0.498039215686275);
#503=COLOUR_RGB('Opaque(198,193,188)',0.776470588235294,0.756862745098039,
0.737254901960784);
ENDSEC;
END-ISO-10303-21;
